<svg width="539" height="76" viewBox="0 0 539 76" fill="none" xmlns="http://www.w3.org/2000/svg">
<rect width="539" height="76" fill="#181C22"/>
<rect width="539" height="16" fill="#2C3139"/>
<rect y="16" width="539" height="24" fill="#22262E"/>
<path d="M159.948 32V31.184H161.7V25.544H160.308V24.908C160.66 24.844 160.964 24.768 161.22 24.68C161.484 24.584 161.72 24.472 161.928 24.344H162.684V31.184H164.268V32H159.948ZM168.203 32.144C167.427 32.144 166.823 31.8 166.391 31.112C165.959 30.424 165.743 29.436 165.743 28.148C165.743 26.86 165.959 25.88 166.391 25.208C166.823 24.536 167.427 24.2 168.203 24.2C168.971 24.2 169.571 24.536 170.003 25.208C170.435 25.88 170.651 26.86 170.651 28.148C170.651 29.436 170.435 30.424 170.003 31.112C169.571 31.8 168.971 32.144 168.203 32.144ZM168.203 31.352C168.427 31.352 168.627 31.292 168.803 31.172C168.987 31.044 169.143 30.852 169.271 30.596C169.407 30.332 169.511 30 169.583 29.6C169.655 29.192 169.691 28.708 169.691 28.148C169.691 27.588 169.655 27.108 169.583 26.708C169.511 26.308 169.407 25.984 169.271 25.736C169.143 25.48 168.987 25.292 168.803 25.172C168.627 25.052 168.427 24.992 168.203 24.992C167.979 24.992 167.775 25.052 167.591 25.172C167.407 25.292 167.247 25.48 167.111 25.736C166.983 25.984 166.883 26.308 166.811 26.708C166.739 27.108 166.703 27.588 166.703 28.148C166.703 29.268 166.839 30.084 167.111 30.596C167.391 31.1 167.755 31.352 168.203 31.352ZM174.418 32.144C173.642 32.144 173.038 31.8 172.606 31.112C172.174 30.424 171.958 29.436 171.958 28.148C171.958 26.86 172.174 25.88 172.606 25.208C173.038 24.536 173.642 24.2 174.418 24.2C175.186 24.2 175.786 24.536 176.218 25.208C176.65 25.88 176.866 26.86 176.866 28.148C176.866 29.436 176.65 30.424 176.218 31.112C175.786 31.8 175.186 32.144 174.418 32.144ZM174.418 31.352C174.642 31.352 174.842 31.292 175.018 31.172C175.202 31.044 175.358 30.852 175.486 30.596C175.622 30.332 175.726 30 175.798 29.6C175.87 29.192 175.906 28.708 175.906 28.148C175.906 27.588 175.87 27.108 175.798 26.708C175.726 26.308 175.622 25.984 175.486 25.736C175.358 25.48 175.202 25.292 175.018 25.172C174.842 25.052 174.642 24.992 174.418 24.992C174.194 24.992 173.99 25.052 173.806 25.172C173.622 25.292 173.462 25.48 173.326 25.736C173.198 25.984 173.098 26.308 173.026 26.708C172.954 27.108 172.918 27.588 172.918 28.148C172.918 29.268 173.054 30.084 173.326 30.596C173.606 31.1 173.97 31.352 174.418 31.352ZM179.853 28.952C179.309 28.952 178.873 28.736 178.545 28.304C178.225 27.872 178.065 27.256 178.065 26.456C178.065 25.664 178.225 25.056 178.545 24.632C178.873 24.2 179.309 23.984 179.853 23.984C180.389 23.984 180.821 24.2 181.149 24.632C181.477 25.056 181.641 25.664 181.641 26.456C181.641 27.256 181.477 27.872 181.149 28.304C180.821 28.736 180.389 28.952 179.853 28.952ZM179.853 28.34C180.157 28.34 180.405 28.184 180.597 27.872C180.789 27.552 180.885 27.08 180.885 26.456C180.885 25.832 180.789 25.368 180.597 25.064C180.405 24.752 180.157 24.596 179.853 24.596C179.541 24.596 179.289 24.752 179.097 25.064C178.905 25.368 178.809 25.832 178.809 26.456C178.809 27.08 178.905 27.552 179.097 27.872C179.289 28.184 179.541 28.34 179.853 28.34ZM180.069 32.144L184.413 23.984H185.085L180.741 32.144H180.069ZM185.337 32.144C184.793 32.144 184.357 31.928 184.029 31.496C183.709 31.064 183.549 30.448 183.549 29.648C183.549 28.856 183.709 28.248 184.029 27.824C184.357 27.392 184.793 27.176 185.337 27.176C185.873 27.176 186.305 27.392 186.633 27.824C186.961 28.248 187.125 28.856 187.125 29.648C187.125 30.448 186.961 31.064 186.633 31.496C186.305 31.928 185.873 32.144 185.337 32.144ZM185.337 31.532C185.641 31.532 185.889 31.376 186.081 31.064C186.273 30.744 186.369 30.272 186.369 29.648C186.369 29.024 186.273 28.56 186.081 28.256C185.889 27.944 185.641 27.788 185.337 27.788C185.025 27.788 184.773 27.944 184.581 28.256C184.389 28.56 184.293 29.024 184.293 29.648C184.293 30.272 184.389 30.744 184.581 31.064C184.773 31.376 185.025 31.532 185.337 31.532Z" fill="#F8FAFF"/>
<path d="M197 32L193.536 26L200.464 26L197 32Z" fill="#637087"/>
<path d="M235.124 32C235.156 31.28 235.22 30.62 235.316 30.02C235.412 29.42 235.544 28.852 235.712 28.316C235.888 27.772 236.108 27.248 236.372 26.744C236.644 26.24 236.968 25.724 237.344 25.196H233.528V24.344H238.46V24.956C238.004 25.532 237.632 26.084 237.344 26.612C237.064 27.14 236.84 27.68 236.672 28.232C236.504 28.776 236.38 29.356 236.3 29.972C236.228 30.58 236.176 31.256 236.144 32H235.124ZM241.339 32C241.371 31.28 241.435 30.62 241.531 30.02C241.627 29.42 241.759 28.852 241.927 28.316C242.103 27.772 242.323 27.248 242.587 26.744C242.859 26.24 243.183 25.724 243.559 25.196H239.743V24.344H244.675V24.956C244.219 25.532 243.847 26.084 243.559 26.612C243.279 27.14 243.055 27.68 242.887 28.232C242.719 28.776 242.595 29.356 242.515 29.972C242.443 30.58 242.391 31.256 242.359 32H241.339ZM249.078 32V29.888H245.634V29.24L248.91 24.344H250.014V29.096H251.058V29.888H250.014V32H249.078ZM246.678 29.096H249.078V26.876C249.078 26.668 249.082 26.424 249.09 26.144C249.106 25.856 249.122 25.608 249.138 25.4H249.09C248.994 25.584 248.894 25.764 248.79 25.94C248.686 26.116 248.578 26.296 248.466 26.48L246.678 29.096Z" fill="#F8FAFF"/>
<path d="M275.328 32.144C274.84 32.144 274.432 32 274.104 31.712C273.784 31.424 273.624 31.016 273.624 30.488C273.624 29.848 273.908 29.36 274.476 29.024C275.044 28.68 275.952 28.44 277.2 28.304C277.2 28.12 277.18 27.94 277.14 27.764C277.108 27.588 277.048 27.432 276.96 27.296C276.872 27.16 276.748 27.052 276.588 26.972C276.436 26.884 276.24 26.84 276 26.84C275.664 26.84 275.348 26.904 275.052 27.032C274.756 27.16 274.492 27.304 274.26 27.464L273.876 26.78C274.148 26.604 274.48 26.436 274.872 26.276C275.264 26.108 275.696 26.024 276.168 26.024C276.88 26.024 277.396 26.244 277.716 26.684C278.036 27.116 278.196 27.696 278.196 28.424V32H277.38L277.296 31.304H277.26C276.98 31.536 276.68 31.736 276.36 31.904C276.04 32.064 275.696 32.144 275.328 32.144ZM275.616 31.352C275.896 31.352 276.16 31.288 276.408 31.16C276.656 31.024 276.92 30.828 277.2 30.572V28.952C276.712 29.016 276.3 29.092 275.964 29.18C275.636 29.268 275.368 29.372 275.16 29.492C274.96 29.612 274.812 29.752 274.716 29.912C274.628 30.064 274.584 30.232 274.584 30.416C274.584 30.752 274.684 30.992 274.884 31.136C275.084 31.28 275.328 31.352 275.616 31.352ZM281.985 32.144C281.361 32.144 280.905 31.952 280.617 31.568C280.337 31.184 280.197 30.616 280.197 29.864V26.168H281.193V29.732C281.193 30.284 281.277 30.684 281.445 30.932C281.621 31.172 281.901 31.292 282.285 31.292C282.589 31.292 282.857 31.216 283.089 31.064C283.321 30.904 283.577 30.652 283.857 30.308V26.168H284.841V32H284.025L283.941 31.088H283.905C283.633 31.408 283.345 31.664 283.041 31.856C282.745 32.048 282.393 32.144 281.985 32.144ZM288.894 32.144C288.582 32.144 288.318 32.096 288.102 32C287.894 31.904 287.722 31.772 287.586 31.604C287.458 31.436 287.366 31.232 287.31 30.992C287.254 30.752 287.226 30.488 287.226 30.2V26.972H286.362V26.228L287.274 26.168L287.394 24.536H288.222V26.168H289.794V26.972H288.222V30.212C288.222 30.572 288.286 30.852 288.414 31.052C288.55 31.244 288.786 31.34 289.122 31.34C289.226 31.34 289.338 31.324 289.458 31.292C289.578 31.26 289.686 31.224 289.782 31.184L289.974 31.928C289.814 31.984 289.638 32.032 289.446 32.072C289.262 32.12 289.078 32.144 288.894 32.144ZM293.467 32.144C293.107 32.144 292.763 32.076 292.435 31.94C292.115 31.804 291.831 31.608 291.583 31.352C291.335 31.088 291.135 30.768 290.983 30.392C290.839 30.008 290.767 29.576 290.767 29.096C290.767 28.608 290.839 28.176 290.983 27.8C291.135 27.416 291.335 27.092 291.583 26.828C291.831 26.564 292.115 26.364 292.435 26.228C292.763 26.092 293.107 26.024 293.467 26.024C293.827 26.024 294.167 26.092 294.487 26.228C294.815 26.364 295.103 26.564 295.351 26.828C295.599 27.092 295.795 27.416 295.939 27.8C296.091 28.176 296.167 28.608 296.167 29.096C296.167 29.576 296.091 30.008 295.939 30.392C295.795 30.768 295.599 31.088 295.351 31.352C295.103 31.608 294.815 31.804 294.487 31.94C294.167 32.076 293.827 32.144 293.467 32.144ZM293.467 31.328C293.715 31.328 293.943 31.276 294.151 31.172C294.359 31.06 294.535 30.908 294.679 30.716C294.831 30.516 294.947 30.28 295.027 30.008C295.107 29.736 295.147 29.432 295.147 29.096C295.147 28.76 295.107 28.456 295.027 28.184C294.947 27.904 294.831 27.664 294.679 27.464C294.535 27.264 294.359 27.112 294.151 27.008C293.943 26.896 293.715 26.84 293.467 26.84C293.219 26.84 292.991 26.896 292.783 27.008C292.575 27.112 292.395 27.264 292.243 27.464C292.099 27.664 291.987 27.904 291.907 28.184C291.827 28.456 291.787 28.76 291.787 29.096C291.787 29.432 291.827 29.736 291.907 30.008C291.987 30.28 292.099 30.516 292.243 30.716C292.395 30.908 292.575 31.06 292.783 31.172C292.991 31.276 293.219 31.328 293.467 31.328Z" fill="#F8FAFF"/>
<path d="M263.521 30.488L262.993 29.948L264.853 28.04L262.993 26.144L263.521 25.604L265.381 27.512L267.229 25.604L267.757 26.144L265.897 28.04L267.757 29.948L267.229 30.488L265.381 28.568L263.521 30.488Z" fill="#F8FAFF"/>
<path d="M307 32L303.536 26L310.464 26L307 32Z" fill="#637087"/>
<path d="M360.438 20.0625L349.625 20.0625C348.745 20.0625 348.031 20.776 348.031 21.6562V34.4062C348.031 35.2865 348.745 36 349.625 36H360.438C361.318 36 362.031 35.2865 362.031 34.4062V21.6563C362.031 20.776 361.318 20.0625 360.438 20.0625Z" stroke="#66A9FF" stroke-width="1.5" stroke-linecap="round" stroke-linejoin="round"/>
<path d="M354.975 32.8125H354.983" stroke="#66A9FF" stroke-width="1.5" stroke-linecap="round" stroke-linejoin="round"/>
<path d="M377 32L373.536 26L380.464 26L377 32Z" fill="#637087"/>
<rect y="40" width="539" height="24" fill="#67A9FE"/>
<path d="M18.712 55V47.968H16.336V47.128H22.096V47.968H19.72V55H18.712ZM23.6676 55V46.456H24.6516V48.784L24.6156 49.984C24.8956 49.72 25.1876 49.496 25.4916 49.312C25.7956 49.12 26.1516 49.024 26.5596 49.024C27.1756 49.024 27.6236 49.216 27.9036 49.6C28.1916 49.984 28.3356 50.552 28.3356 51.304V55H27.3516V51.436C27.3516 50.884 27.2636 50.488 27.0876 50.248C26.9116 50 26.6316 49.876 26.2476 49.876C25.9436 49.876 25.6756 49.952 25.4436 50.104C25.2116 50.256 24.9476 50.48 24.6516 50.776V55H23.6676ZM32.8089 55.144C32.4169 55.144 32.0489 55.076 31.7049 54.94C31.3689 54.796 31.0729 54.596 30.8169 54.34C30.5689 54.076 30.3729 53.756 30.2289 53.38C30.0849 53.004 30.0129 52.576 30.0129 52.096C30.0129 51.616 30.0849 51.188 30.2289 50.812C30.3809 50.428 30.5769 50.104 30.8169 49.84C31.0649 49.576 31.3449 49.376 31.6569 49.24C31.9689 49.096 32.2929 49.024 32.6289 49.024C32.9969 49.024 33.3249 49.088 33.6129 49.216C33.9089 49.344 34.1529 49.528 34.3449 49.768C34.5449 50.008 34.6969 50.296 34.8009 50.632C34.9049 50.968 34.9569 51.344 34.9569 51.76C34.9569 51.864 34.9529 51.968 34.9449 52.072C34.9449 52.168 34.9369 52.252 34.9209 52.324H30.9849C31.0249 52.948 31.2169 53.444 31.5609 53.812C31.9129 54.172 32.3689 54.352 32.9289 54.352C33.2089 54.352 33.4649 54.312 33.6969 54.232C33.9369 54.144 34.1649 54.032 34.3809 53.896L34.7289 54.544C34.4729 54.704 34.1889 54.844 33.8769 54.964C33.5649 55.084 33.2089 55.144 32.8089 55.144ZM30.9729 51.616H34.0929C34.0929 51.024 33.9649 50.576 33.7089 50.272C33.4609 49.96 33.1089 49.804 32.6529 49.804C32.4449 49.804 32.2449 49.844 32.0529 49.924C31.8689 50.004 31.7009 50.124 31.5489 50.284C31.3969 50.436 31.2689 50.624 31.1649 50.848C31.0689 51.072 31.0049 51.328 30.9729 51.616ZM41.6044 55.144C41.2204 55.144 40.8604 55.076 40.5244 54.94C40.1884 54.804 39.8964 54.608 39.6484 54.352C39.4084 54.088 39.2164 53.768 39.0724 53.392C38.9364 53.008 38.8684 52.576 38.8684 52.096C38.8684 51.608 38.9444 51.176 39.0964 50.8C39.2484 50.416 39.4524 50.092 39.7084 49.828C39.9644 49.564 40.2604 49.364 40.5964 49.228C40.9404 49.092 41.3004 49.024 41.6764 49.024C42.0604 49.024 42.3884 49.092 42.6604 49.228C42.9324 49.364 43.1724 49.524 43.3804 49.708L42.8764 50.356C42.7084 50.204 42.5284 50.08 42.3364 49.984C42.1524 49.888 41.9444 49.84 41.7124 49.84C41.4484 49.84 41.2044 49.896 40.9804 50.008C40.7564 50.112 40.5644 50.264 40.4044 50.464C40.2444 50.664 40.1164 50.904 40.0204 51.184C39.9324 51.456 39.8884 51.76 39.8884 52.096C39.8884 52.432 39.9324 52.736 40.0204 53.008C40.1084 53.28 40.2284 53.516 40.3804 53.716C40.5404 53.908 40.7324 54.06 40.9564 54.172C41.1804 54.276 41.4244 54.328 41.6884 54.328C41.9604 54.328 42.2084 54.272 42.4324 54.16C42.6644 54.04 42.8724 53.9 43.0564 53.74L43.4884 54.4C43.2244 54.632 42.9324 54.816 42.6124 54.952C42.2924 55.08 41.9564 55.144 41.6044 55.144ZM45.0231 55V46.456H46.0071V48.784L45.9711 49.984C46.2511 49.72 46.5431 49.496 46.8471 49.312C47.1511 49.12 47.5071 49.024 47.9151 49.024C48.5311 49.024 48.9791 49.216 49.2591 49.6C49.5471 49.984 49.6911 50.552 49.6911 51.304V55H48.7071V51.436C48.7071 50.884 48.6191 50.488 48.4431 50.248C48.2671 50 47.9871 49.876 47.6031 49.876C47.2991 49.876 47.0311 49.952 46.7991 50.104C46.5671 50.256 46.3031 50.48 46.0071 50.776V55H45.0231ZM53.1444 55.144C52.6564 55.144 52.2484 55 51.9204 54.712C51.6004 54.424 51.4404 54.016 51.4404 53.488C51.4404 52.848 51.7244 52.36 52.2924 52.024C52.8604 51.68 53.7684 51.44 55.0164 51.304C55.0164 51.12 54.9964 50.94 54.9564 50.764C54.9244 50.588 54.8644 50.432 54.7764 50.296C54.6884 50.16 54.5644 50.052 54.4044 49.972C54.2524 49.884 54.0564 49.84 53.8164 49.84C53.4804 49.84 53.1644 49.904 52.8684 50.032C52.5724 50.16 52.3084 50.304 52.0764 50.464L51.6924 49.78C51.9644 49.604 52.2964 49.436 52.6884 49.276C53.0804 49.108 53.5124 49.024 53.9844 49.024C54.6964 49.024 55.2124 49.244 55.5324 49.684C55.8524 50.116 56.0124 50.696 56.0124 51.424V55H55.1964L55.1124 54.304H55.0764C54.7964 54.536 54.4964 54.736 54.1764 54.904C53.8564 55.064 53.5124 55.144 53.1444 55.144ZM53.4324 54.352C53.7124 54.352 53.9764 54.288 54.2244 54.16C54.4724 54.024 54.7364 53.828 55.0164 53.572V51.952C54.5284 52.016 54.1164 52.092 53.7804 52.18C53.4524 52.268 53.1844 52.372 52.9764 52.492C52.7764 52.612 52.6284 52.752 52.5324 52.912C52.4444 53.064 52.4004 53.232 52.4004 53.416C52.4004 53.752 52.5004 53.992 52.7004 54.136C52.9004 54.28 53.1444 54.352 53.4324 54.352ZM58.0973 55V49.168H58.9133L58.9973 50.008H59.0333C59.3133 49.728 59.6053 49.496 59.9093 49.312C60.2213 49.12 60.5813 49.024 60.9893 49.024C61.6053 49.024 62.0533 49.216 62.3333 49.6C62.6213 49.984 62.7653 50.552 62.7653 51.304V55H61.7813V51.436C61.7813 50.884 61.6933 50.488 61.5173 50.248C61.3413 50 61.0613 49.876 60.6773 49.876C60.3733 49.876 60.1053 49.952 59.8733 50.104C59.6413 50.256 59.3773 50.48 59.0813 50.776V55H58.0973ZM66.8778 57.688C66.5178 57.688 66.1898 57.652 65.8938 57.58C65.5978 57.516 65.3418 57.416 65.1258 57.28C64.9178 57.144 64.7538 56.98 64.6338 56.788C64.5218 56.596 64.4658 56.372 64.4658 56.116C64.4658 55.868 64.5418 55.632 64.6938 55.408C64.8458 55.184 65.0538 54.98 65.3178 54.796V54.748C65.1738 54.66 65.0498 54.54 64.9458 54.388C64.8498 54.228 64.8018 54.032 64.8018 53.8C64.8018 53.552 64.8698 53.336 65.0058 53.152C65.1418 52.968 65.2858 52.824 65.4378 52.72V52.672C65.2458 52.512 65.0698 52.3 64.9098 52.036C64.7578 51.764 64.6818 51.452 64.6818 51.1C64.6818 50.78 64.7378 50.492 64.8498 50.236C64.9698 49.98 65.1298 49.764 65.3298 49.588C65.5298 49.404 65.7618 49.264 66.0258 49.168C66.2978 49.072 66.5818 49.024 66.8778 49.024C67.0378 49.024 67.1858 49.04 67.3218 49.072C67.4658 49.096 67.5938 49.128 67.7058 49.168H69.7338V49.924H68.5338C68.6698 50.06 68.7818 50.232 68.8698 50.44C68.9658 50.648 69.0138 50.876 69.0138 51.124C69.0138 51.436 68.9578 51.72 68.8458 51.976C68.7338 52.224 68.5818 52.436 68.3898 52.612C68.1978 52.78 67.9698 52.912 67.7058 53.008C67.4498 53.104 67.1738 53.152 66.8778 53.152C66.7338 53.152 66.5858 53.136 66.4338 53.104C66.2818 53.064 66.1378 53.012 66.0018 52.948C65.8978 53.036 65.8098 53.136 65.7378 53.248C65.6658 53.352 65.6298 53.484 65.6298 53.644C65.6298 53.828 65.7018 53.98 65.8458 54.1C65.9898 54.22 66.2618 54.28 66.6618 54.28H67.7898C68.4698 54.28 68.9778 54.392 69.3138 54.616C69.6578 54.832 69.8298 55.184 69.8298 55.672C69.8298 55.944 69.7618 56.2 69.6258 56.44C69.4898 56.688 69.2938 56.904 69.0378 57.088C68.7818 57.272 68.4698 57.416 68.1018 57.52C67.7418 57.632 67.3338 57.688 66.8778 57.688ZM66.8778 52.492C67.0458 52.492 67.2018 52.46 67.3458 52.396C67.4978 52.332 67.6298 52.24 67.7418 52.12C67.8618 52 67.9538 51.856 68.0178 51.688C68.0818 51.512 68.1138 51.316 68.1138 51.1C68.1138 50.668 67.9938 50.336 67.7538 50.104C67.5138 49.864 67.2218 49.744 66.8778 49.744C66.5338 49.744 66.2418 49.864 66.0018 50.104C65.7618 50.336 65.6418 50.668 65.6418 51.1C65.6418 51.316 65.6738 51.512 65.7378 51.688C65.8018 51.856 65.8898 52 66.0018 52.12C66.1218 52.24 66.2538 52.332 66.3978 52.396C66.5498 52.46 66.7098 52.492 66.8778 52.492ZM67.0218 57.004C67.3018 57.004 67.5538 56.968 67.7778 56.896C68.0098 56.832 68.2058 56.744 68.3658 56.632C68.5258 56.528 68.6498 56.404 68.7378 56.26C68.8258 56.116 68.8698 55.968 68.8698 55.816C68.8698 55.544 68.7698 55.356 68.5698 55.252C68.3698 55.148 68.0778 55.096 67.6938 55.096H66.6858C66.5738 55.096 66.4498 55.088 66.3138 55.072C66.1858 55.064 66.0578 55.04 65.9298 55C65.7218 55.152 65.5698 55.312 65.4738 55.48C65.3778 55.648 65.3298 55.816 65.3298 55.984C65.3298 56.296 65.4778 56.544 65.7738 56.728C66.0778 56.912 66.4938 57.004 67.0218 57.004ZM73.4066 55.144C73.0146 55.144 72.6466 55.076 72.3026 54.94C71.9666 54.796 71.6706 54.596 71.4146 54.34C71.1666 54.076 70.9706 53.756 70.8266 53.38C70.6826 53.004 70.6106 52.576 70.6106 52.096C70.6106 51.616 70.6826 51.188 70.8266 50.812C70.9786 50.428 71.1746 50.104 71.4146 49.84C71.6626 49.576 71.9426 49.376 72.2546 49.24C72.5666 49.096 72.8906 49.024 73.2266 49.024C73.5946 49.024 73.9226 49.088 74.2106 49.216C74.5066 49.344 74.7506 49.528 74.9426 49.768C75.1426 50.008 75.2946 50.296 75.3986 50.632C75.5026 50.968 75.5546 51.344 75.5546 51.76C75.5546 51.864 75.5506 51.968 75.5426 52.072C75.5426 52.168 75.5346 52.252 75.5186 52.324H71.5826C71.6226 52.948 71.8146 53.444 72.1586 53.812C72.5106 54.172 72.9666 54.352 73.5266 54.352C73.8066 54.352 74.0626 54.312 74.2946 54.232C74.5346 54.144 74.7626 54.032 74.9786 53.896L75.3266 54.544C75.0706 54.704 74.7866 54.844 74.4746 54.964C74.1626 55.084 73.8066 55.144 73.4066 55.144ZM71.5706 51.616H74.6906C74.6906 51.024 74.5626 50.576 74.3066 50.272C74.0586 49.96 73.7066 49.804 73.2506 49.804C73.0426 49.804 72.8426 49.844 72.6506 49.924C72.4666 50.004 72.2986 50.124 72.1466 50.284C71.9946 50.436 71.8666 50.624 71.7626 50.848C71.6666 51.072 71.6026 51.328 71.5706 51.616ZM78.7697 55.144C78.3537 55.144 77.9577 55.068 77.5817 54.916C77.2057 54.764 76.8777 54.572 76.5977 54.34L77.0897 53.68C77.3457 53.888 77.6057 54.056 77.8697 54.184C78.1417 54.312 78.4537 54.376 78.8057 54.376C79.1897 54.376 79.4777 54.288 79.6697 54.112C79.8617 53.936 79.9577 53.72 79.9577 53.464C79.9577 53.312 79.9177 53.18 79.8377 53.068C79.7577 52.956 79.6537 52.86 79.5257 52.78C79.4057 52.692 79.2657 52.616 79.1057 52.552C78.9457 52.488 78.7857 52.424 78.6257 52.36C78.4177 52.288 78.2097 52.208 78.0017 52.12C77.7937 52.024 77.6057 51.912 77.4377 51.784C77.2777 51.648 77.1457 51.492 77.0417 51.316C76.9377 51.14 76.8857 50.928 76.8857 50.68C76.8857 50.448 76.9297 50.232 77.0177 50.032C77.1137 49.824 77.2457 49.648 77.4137 49.504C77.5897 49.352 77.8017 49.236 78.0497 49.156C78.2977 49.068 78.5777 49.024 78.8897 49.024C79.2577 49.024 79.5937 49.088 79.8977 49.216C80.2097 49.344 80.4777 49.5 80.7017 49.684L80.2337 50.308C80.0337 50.156 79.8257 50.032 79.6097 49.936C79.3937 49.84 79.1577 49.792 78.9017 49.792C78.5337 49.792 78.2617 49.876 78.0857 50.044C77.9177 50.212 77.8337 50.408 77.8337 50.632C77.8337 50.768 77.8697 50.888 77.9417 50.992C78.0137 51.088 78.1097 51.176 78.2297 51.256C78.3497 51.328 78.4857 51.396 78.6377 51.46C78.7977 51.516 78.9617 51.576 79.1297 51.64C79.3377 51.72 79.5457 51.804 79.7537 51.892C79.9697 51.98 80.1617 52.092 80.3297 52.228C80.4977 52.356 80.6337 52.516 80.7377 52.708C80.8497 52.9 80.9057 53.132 80.9057 53.404C80.9057 53.644 80.8577 53.868 80.7617 54.076C80.6737 54.284 80.5377 54.468 80.3537 54.628C80.1777 54.788 79.9537 54.912 79.6817 55C79.4177 55.096 79.1137 55.144 78.7697 55.144ZM86.0994 55L84.4794 49.168H85.4874L86.3514 52.54C86.4154 52.82 86.4754 53.092 86.5314 53.356C86.5874 53.62 86.6434 53.888 86.6994 54.16H86.7474C86.8114 53.888 86.8754 53.62 86.9394 53.356C87.0034 53.084 87.0714 52.812 87.1434 52.54L88.0434 49.168H89.0034L89.9154 52.54C89.9874 52.82 90.0554 53.092 90.1194 53.356C90.1914 53.62 90.2594 53.888 90.3234 54.16H90.3714C90.4354 53.888 90.4954 53.62 90.5514 53.356C90.6074 53.092 90.6674 52.82 90.7314 52.54L91.5834 49.168H92.5194L90.9594 55H89.7594L88.9194 51.868C88.8474 51.588 88.7794 51.312 88.7154 51.04C88.6594 50.768 88.5954 50.484 88.5234 50.188H88.4754C88.4114 50.484 88.3474 50.772 88.2834 51.052C88.2194 51.324 88.1474 51.6 88.0674 51.88L87.2514 55H86.0994ZM94.0387 55V49.168H95.0227V55H94.0387ZM94.5427 47.968C94.3507 47.968 94.1867 47.908 94.0507 47.788C93.9227 47.668 93.8587 47.516 93.8587 47.332C93.8587 47.14 93.9227 46.988 94.0507 46.876C94.1867 46.756 94.3507 46.696 94.5427 46.696C94.7347 46.696 94.8947 46.756 95.0227 46.876C95.1587 46.988 95.2267 47.14 95.2267 47.332C95.2267 47.516 95.1587 47.668 95.0227 47.788C94.8947 47.908 94.7347 47.968 94.5427 47.968ZM98.2858 55.144C97.9098 55.144 97.6418 55.032 97.4818 54.808C97.3218 54.584 97.2418 54.256 97.2418 53.824V46.456H98.2258V53.896C98.2258 54.056 98.2538 54.168 98.3098 54.232C98.3658 54.296 98.4298 54.328 98.5018 54.328C98.5338 54.328 98.5618 54.328 98.5858 54.328C98.6178 54.328 98.6618 54.32 98.7178 54.304L98.8498 55.048C98.7858 55.08 98.7098 55.104 98.6218 55.12C98.5338 55.136 98.4218 55.144 98.2858 55.144ZM101.594 55.144C101.218 55.144 100.95 55.032 100.79 54.808C100.63 54.584 100.55 54.256 100.55 53.824V46.456H101.534V53.896C101.534 54.056 101.562 54.168 101.618 54.232C101.674 54.296 101.738 54.328 101.81 54.328C101.842 54.328 101.87 54.328 101.894 54.328C101.926 54.328 101.97 54.32 102.026 54.304L102.158 55.048C102.094 55.08 102.018 55.104 101.93 55.12C101.842 55.136 101.73 55.144 101.594 55.144ZM109.091 55.144C108.819 55.144 108.535 55.08 108.239 54.952C107.951 54.816 107.679 54.632 107.423 54.4H107.387L107.303 55H106.511V46.456H107.495V48.784L107.471 49.84C107.735 49.608 108.023 49.416 108.335 49.264C108.647 49.104 108.967 49.024 109.295 49.024C109.671 49.024 110.003 49.096 110.291 49.24C110.579 49.376 110.819 49.576 111.011 49.84C111.211 50.096 111.359 50.408 111.455 50.776C111.559 51.136 111.611 51.54 111.611 51.988C111.611 52.484 111.543 52.928 111.407 53.32C111.271 53.712 111.087 54.044 110.855 54.316C110.623 54.588 110.355 54.796 110.051 54.94C109.747 55.076 109.427 55.144 109.091 55.144ZM108.923 54.316C109.163 54.316 109.383 54.264 109.583 54.16C109.791 54.048 109.967 53.896 110.111 53.704C110.263 53.504 110.379 53.26 110.459 52.972C110.547 52.684 110.591 52.36 110.591 52C110.591 51.68 110.563 51.388 110.507 51.124C110.451 50.86 110.359 50.636 110.231 50.452C110.111 50.26 109.951 50.112 109.751 50.008C109.559 49.904 109.327 49.852 109.055 49.852C108.583 49.852 108.063 50.116 107.495 50.644V53.704C107.751 53.928 108.003 54.088 108.251 54.184C108.507 54.272 108.731 54.316 108.923 54.316ZM115.758 55.144C115.366 55.144 114.998 55.076 114.654 54.94C114.318 54.796 114.022 54.596 113.766 54.34C113.518 54.076 113.322 53.756 113.178 53.38C113.034 53.004 112.962 52.576 112.962 52.096C112.962 51.616 113.034 51.188 113.178 50.812C113.33 50.428 113.526 50.104 113.766 49.84C114.014 49.576 114.294 49.376 114.606 49.24C114.918 49.096 115.242 49.024 115.578 49.024C115.946 49.024 116.274 49.088 116.562 49.216C116.858 49.344 117.102 49.528 117.294 49.768C117.494 50.008 117.646 50.296 117.75 50.632C117.854 50.968 117.906 51.344 117.906 51.76C117.906 51.864 117.902 51.968 117.894 52.072C117.894 52.168 117.886 52.252 117.87 52.324H113.934C113.974 52.948 114.166 53.444 114.51 53.812C114.862 54.172 115.318 54.352 115.878 54.352C116.158 54.352 116.414 54.312 116.646 54.232C116.886 54.144 117.114 54.032 117.33 53.896L117.678 54.544C117.422 54.704 117.138 54.844 116.826 54.964C116.514 55.084 116.158 55.144 115.758 55.144ZM113.922 51.616H117.042C117.042 51.024 116.914 50.576 116.658 50.272C116.41 49.96 116.058 49.804 115.602 49.804C115.394 49.804 115.194 49.844 115.002 49.924C114.818 50.004 114.65 50.124 114.498 50.284C114.346 50.436 114.218 50.624 114.114 50.848C114.018 51.072 113.954 51.328 113.922 51.616ZM123.594 55.144C123.106 55.144 122.698 55 122.37 54.712C122.05 54.424 121.89 54.016 121.89 53.488C121.89 52.848 122.174 52.36 122.742 52.024C123.31 51.68 124.218 51.44 125.466 51.304C125.466 51.12 125.446 50.94 125.406 50.764C125.374 50.588 125.314 50.432 125.226 50.296C125.138 50.16 125.014 50.052 124.854 49.972C124.702 49.884 124.506 49.84 124.266 49.84C123.93 49.84 123.614 49.904 123.318 50.032C123.022 50.16 122.758 50.304 122.526 50.464L122.142 49.78C122.414 49.604 122.746 49.436 123.138 49.276C123.53 49.108 123.962 49.024 124.434 49.024C125.146 49.024 125.662 49.244 125.982 49.684C126.302 50.116 126.462 50.696 126.462 51.424V55H125.646L125.562 54.304H125.526C125.246 54.536 124.946 54.736 124.626 54.904C124.306 55.064 123.962 55.144 123.594 55.144ZM123.882 54.352C124.162 54.352 124.426 54.288 124.674 54.16C124.922 54.024 125.186 53.828 125.466 53.572V51.952C124.978 52.016 124.566 52.092 124.23 52.18C123.902 52.268 123.634 52.372 123.426 52.492C123.226 52.612 123.078 52.752 122.982 52.912C122.894 53.064 122.85 53.232 122.85 53.416C122.85 53.752 122.95 53.992 123.15 54.136C123.35 54.28 123.594 54.352 123.882 54.352ZM128.547 57.46V49.168H129.363L129.447 49.84H129.483C129.747 49.616 130.035 49.424 130.347 49.264C130.667 49.104 130.999 49.024 131.343 49.024C131.719 49.024 132.051 49.096 132.339 49.24C132.627 49.376 132.867 49.576 133.059 49.84C133.251 50.096 133.395 50.408 133.491 50.776C133.595 51.136 133.647 51.544 133.647 52C133.647 52.496 133.579 52.94 133.443 53.332C133.307 53.716 133.123 54.044 132.891 54.316C132.659 54.588 132.391 54.796 132.087 54.94C131.783 55.076 131.463 55.144 131.127 55.144C130.855 55.144 130.583 55.084 130.311 54.964C130.047 54.844 129.779 54.68 129.507 54.472L129.531 55.492V57.46H128.547ZM130.959 54.316C131.199 54.316 131.419 54.264 131.619 54.16C131.827 54.048 132.003 53.896 132.147 53.704C132.299 53.504 132.415 53.26 132.495 52.972C132.583 52.684 132.627 52.36 132.627 52C132.627 51.68 132.599 51.388 132.543 51.124C132.487 50.86 132.395 50.636 132.267 50.452C132.147 50.26 131.987 50.112 131.787 50.008C131.595 49.904 131.363 49.852 131.09 49.852C130.843 49.852 130.591 49.92 130.335 50.056C130.087 50.192 129.819 50.388 129.531 50.644V53.704C129.795 53.928 130.051 54.088 130.299 54.184C130.547 54.272 130.767 54.316 130.959 54.316ZM135.453 57.46V49.168H136.269L136.353 49.84H136.389C136.653 49.616 136.941 49.424 137.253 49.264C137.573 49.104 137.905 49.024 138.249 49.024C138.625 49.024 138.957 49.096 139.245 49.24C139.533 49.376 139.773 49.576 139.965 49.84C140.157 50.096 140.301 50.408 140.397 50.776C140.501 51.136 140.553 51.544 140.553 52C140.553 52.496 140.485 52.94 140.349 53.332C140.213 53.716 140.029 54.044 139.797 54.316C139.565 54.588 139.297 54.796 138.993 54.94C138.689 55.076 138.369 55.144 138.033 55.144C137.761 55.144 137.489 55.084 137.217 54.964C136.953 54.844 136.685 54.68 136.413 54.472L136.437 55.492V57.46H135.453ZM137.865 54.316C138.105 54.316 138.325 54.264 138.525 54.16C138.733 54.048 138.909 53.896 139.053 53.704C139.205 53.504 139.321 53.26 139.401 52.972C139.489 52.684 139.533 52.36 139.533 52C139.533 51.68 139.505 51.388 139.449 51.124C139.393 50.86 139.301 50.636 139.173 50.452C139.053 50.26 138.893 50.112 138.693 50.008C138.501 49.904 138.269 49.852 137.997 49.852C137.749 49.852 137.497 49.92 137.241 50.056C136.993 50.192 136.725 50.388 136.437 50.644V53.704C136.701 53.928 136.957 54.088 137.205 54.184C137.453 54.272 137.673 54.316 137.865 54.316ZM143.403 55.144C143.027 55.144 142.759 55.032 142.599 54.808C142.439 54.584 142.359 54.256 142.359 53.824V46.456H143.343V53.896C143.343 54.056 143.371 54.168 143.427 54.232C143.483 54.296 143.547 54.328 143.619 54.328C143.651 54.328 143.679 54.328 143.703 54.328C143.735 54.328 143.779 54.32 143.835 54.304L143.967 55.048C143.903 55.08 143.827 55.104 143.739 55.12C143.651 55.136 143.539 55.144 143.403 55.144ZM145.668 55V49.168H146.652V55H145.668ZM146.172 47.968C145.98 47.968 145.816 47.908 145.68 47.788C145.552 47.668 145.488 47.516 145.488 47.332C145.488 47.14 145.552 46.988 145.68 46.876C145.816 46.756 145.98 46.696 146.172 46.696C146.364 46.696 146.524 46.756 146.652 46.876C146.788 46.988 146.856 47.14 146.856 47.332C146.856 47.516 146.788 47.668 146.652 47.788C146.524 47.908 146.364 47.968 146.172 47.968ZM151.235 55.144C150.843 55.144 150.475 55.076 150.131 54.94C149.795 54.796 149.499 54.596 149.243 54.34C148.995 54.076 148.799 53.756 148.655 53.38C148.511 53.004 148.439 52.576 148.439 52.096C148.439 51.616 148.511 51.188 148.655 50.812C148.807 50.428 149.003 50.104 149.243 49.84C149.491 49.576 149.771 49.376 150.083 49.24C150.395 49.096 150.719 49.024 151.055 49.024C151.423 49.024 151.751 49.088 152.039 49.216C152.335 49.344 152.579 49.528 152.771 49.768C152.971 50.008 153.123 50.296 153.227 50.632C153.331 50.968 153.383 51.344 153.383 51.76C153.383 51.864 153.379 51.968 153.371 52.072C153.371 52.168 153.363 52.252 153.347 52.324H149.411C149.451 52.948 149.643 53.444 149.987 53.812C150.339 54.172 150.795 54.352 151.355 54.352C151.635 54.352 151.891 54.312 152.123 54.232C152.363 54.144 152.591 54.032 152.807 53.896L153.155 54.544C152.899 54.704 152.615 54.844 152.303 54.964C151.991 55.084 151.635 55.144 151.235 55.144ZM149.399 51.616H152.519C152.519 51.024 152.391 50.576 152.135 50.272C151.887 49.96 151.535 49.804 151.079 49.804C150.871 49.804 150.671 49.844 150.479 49.924C150.295 50.004 150.127 50.124 149.975 50.284C149.823 50.436 149.695 50.624 149.591 50.848C149.495 51.072 149.431 51.328 149.399 51.616ZM157.066 55.144C156.33 55.144 155.742 54.88 155.302 54.352C154.87 53.824 154.654 53.072 154.654 52.096C154.654 51.624 154.722 51.2 154.858 50.824C155.002 50.44 155.19 50.116 155.422 49.852C155.654 49.588 155.922 49.384 156.226 49.24C156.53 49.096 156.85 49.024 157.186 49.024C157.522 49.024 157.814 49.084 158.062 49.204C158.31 49.324 158.562 49.488 158.818 49.696L158.77 48.7V46.456H159.766V55H158.95L158.866 54.316H158.83C158.598 54.54 158.33 54.736 158.026 54.904C157.73 55.064 157.41 55.144 157.066 55.144ZM157.282 54.316C157.554 54.316 157.81 54.252 158.05 54.124C158.29 53.988 158.53 53.784 158.77 53.512V50.464C158.522 50.24 158.282 50.084 158.05 49.996C157.826 49.9 157.594 49.852 157.354 49.852C157.122 49.852 156.902 49.908 156.694 50.02C156.494 50.124 156.318 50.276 156.166 50.476C156.014 50.668 155.894 50.9 155.806 51.172C155.718 51.444 155.674 51.748 155.674 52.084C155.674 52.788 155.814 53.336 156.094 53.728C156.374 54.12 156.77 54.316 157.282 54.316ZM165.976 55.144C165.488 55.144 165.08 55 164.752 54.712C164.432 54.424 164.272 54.016 164.272 53.488C164.272 52.848 164.556 52.36 165.124 52.024C165.692 51.68 166.6 51.44 167.848 51.304C167.848 51.12 167.828 50.94 167.788 50.764C167.756 50.588 167.696 50.432 167.608 50.296C167.52 50.16 167.396 50.052 167.236 49.972C167.084 49.884 166.888 49.84 166.648 49.84C166.312 49.84 165.996 49.904 165.7 50.032C165.404 50.16 165.14 50.304 164.908 50.464L164.524 49.78C164.796 49.604 165.128 49.436 165.52 49.276C165.912 49.108 166.344 49.024 166.816 49.024C167.528 49.024 168.044 49.244 168.364 49.684C168.684 50.116 168.844 50.696 168.844 51.424V55H168.028L167.944 54.304H167.908C167.628 54.536 167.328 54.736 167.008 54.904C166.688 55.064 166.344 55.144 165.976 55.144ZM166.264 54.352C166.544 54.352 166.808 54.288 167.056 54.16C167.304 54.024 167.568 53.828 167.848 53.572V51.952C167.36 52.016 166.948 52.092 166.612 52.18C166.284 52.268 166.016 52.372 165.808 52.492C165.608 52.612 165.46 52.752 165.364 52.912C165.276 53.064 165.232 53.232 165.232 53.416C165.232 53.752 165.332 53.992 165.532 54.136C165.732 54.28 165.976 54.352 166.264 54.352ZM172.601 55.144C172.289 55.144 172.025 55.096 171.809 55C171.601 54.904 171.429 54.772 171.293 54.604C171.165 54.436 171.073 54.232 171.017 53.992C170.961 53.752 170.933 53.488 170.933 53.2V49.972H170.069V49.228L170.981 49.168L171.101 47.536H171.929V49.168H173.501V49.972H171.929V53.212C171.929 53.572 171.993 53.852 172.121 54.052C172.257 54.244 172.493 54.34 172.829 54.34C172.933 54.34 173.045 54.324 173.165 54.292C173.285 54.26 173.393 54.224 173.489 54.184L173.681 54.928C173.521 54.984 173.345 55.032 173.153 55.072C172.969 55.12 172.785 55.144 172.601 55.144ZM179.558 55.144C179.246 55.144 178.982 55.096 178.766 55C178.558 54.904 178.386 54.772 178.25 54.604C178.122 54.436 178.03 54.232 177.974 53.992C177.918 53.752 177.89 53.488 177.89 53.2V49.972H177.026V49.228L177.938 49.168L178.058 47.536H178.886V49.168H180.458V49.972H178.886V53.212C178.886 53.572 178.95 53.852 179.078 54.052C179.214 54.244 179.45 54.34 179.786 54.34C179.89 54.34 180.002 54.324 180.122 54.292C180.242 54.26 180.35 54.224 180.446 54.184L180.638 54.928C180.478 54.984 180.302 55.032 180.11 55.072C179.926 55.12 179.742 55.144 179.558 55.144ZM184.131 55.144C183.771 55.144 183.427 55.076 183.099 54.94C182.779 54.804 182.495 54.608 182.247 54.352C181.999 54.088 181.799 53.768 181.647 53.392C181.503 53.008 181.431 52.576 181.431 52.096C181.431 51.608 181.503 51.176 181.647 50.8C181.799 50.416 181.999 50.092 182.247 49.828C182.495 49.564 182.779 49.364 183.099 49.228C183.427 49.092 183.771 49.024 184.131 49.024C184.491 49.024 184.831 49.092 185.151 49.228C185.479 49.364 185.767 49.564 186.015 49.828C186.263 50.092 186.459 50.416 186.603 50.8C186.755 51.176 186.831 51.608 186.831 52.096C186.831 52.576 186.755 53.008 186.603 53.392C186.459 53.768 186.263 54.088 186.015 54.352C185.767 54.608 185.479 54.804 185.151 54.94C184.831 55.076 184.491 55.144 184.131 55.144ZM184.131 54.328C184.379 54.328 184.607 54.276 184.815 54.172C185.023 54.06 185.199 53.908 185.343 53.716C185.495 53.516 185.611 53.28 185.691 53.008C185.771 52.736 185.811 52.432 185.811 52.096C185.811 51.76 185.771 51.456 185.691 51.184C185.611 50.904 185.495 50.664 185.343 50.464C185.199 50.264 185.023 50.112 184.815 50.008C184.607 49.896 184.379 49.84 184.131 49.84C183.883 49.84 183.655 49.896 183.447 50.008C183.239 50.112 183.059 50.264 182.907 50.464C182.763 50.664 182.651 50.904 182.571 51.184C182.491 51.456 182.451 51.76 182.451 52.096C182.451 52.432 182.491 52.736 182.571 53.008C182.651 53.28 182.763 53.516 182.907 53.716C183.059 53.908 183.239 54.06 183.447 54.172C183.655 54.276 183.883 54.328 184.131 54.328ZM193.105 55.144C192.793 55.144 192.529 55.096 192.313 55C192.105 54.904 191.933 54.772 191.797 54.604C191.669 54.436 191.577 54.232 191.521 53.992C191.465 53.752 191.437 53.488 191.437 53.2V49.972H190.573V49.228L191.485 49.168L191.605 47.536H192.433V49.168H194.005V49.972H192.433V53.212C192.433 53.572 192.497 53.852 192.625 54.052C192.761 54.244 192.997 54.34 193.333 54.34C193.437 54.34 193.549 54.324 193.669 54.292C193.789 54.26 193.897 54.224 193.993 54.184L194.185 54.928C194.025 54.984 193.849 55.032 193.657 55.072C193.473 55.12 193.289 55.144 193.105 55.144ZM195.574 55V46.456H196.558V48.784L196.522 49.984C196.802 49.72 197.094 49.496 197.398 49.312C197.702 49.12 198.058 49.024 198.466 49.024C199.082 49.024 199.53 49.216 199.81 49.6C200.098 49.984 200.242 50.552 200.242 51.304V55H199.258V51.436C199.258 50.884 199.17 50.488 198.994 50.248C198.818 50 198.538 49.876 198.154 49.876C197.85 49.876 197.582 49.952 197.35 50.104C197.118 50.256 196.854 50.48 196.558 50.776V55H195.574ZM204.715 55.144C204.323 55.144 203.955 55.076 203.611 54.94C203.275 54.796 202.979 54.596 202.723 54.34C202.475 54.076 202.279 53.756 202.135 53.38C201.991 53.004 201.919 52.576 201.919 52.096C201.919 51.616 201.991 51.188 202.135 50.812C202.287 50.428 202.483 50.104 202.723 49.84C202.971 49.576 203.251 49.376 203.563 49.24C203.875 49.096 204.199 49.024 204.535 49.024C204.903 49.024 205.231 49.088 205.519 49.216C205.815 49.344 206.059 49.528 206.251 49.768C206.451 50.008 206.603 50.296 206.707 50.632C206.811 50.968 206.863 51.344 206.863 51.76C206.863 51.864 206.859 51.968 206.851 52.072C206.851 52.168 206.843 52.252 206.827 52.324H202.891C202.931 52.948 203.123 53.444 203.467 53.812C203.819 54.172 204.275 54.352 204.835 54.352C205.115 54.352 205.371 54.312 205.603 54.232C205.843 54.144 206.071 54.032 206.287 53.896L206.635 54.544C206.379 54.704 206.095 54.844 205.783 54.964C205.471 55.084 205.115 55.144 204.715 55.144ZM202.879 51.616H205.999C205.999 51.024 205.871 50.576 205.615 50.272C205.367 49.96 205.015 49.804 204.559 49.804C204.351 49.804 204.151 49.844 203.959 49.924C203.775 50.004 203.607 50.124 203.455 50.284C203.303 50.436 203.175 50.624 203.071 50.848C202.975 51.072 202.911 51.328 202.879 51.616ZM212.731 55.144C212.315 55.144 211.919 55.068 211.543 54.916C211.167 54.764 210.839 54.572 210.559 54.34L211.051 53.68C211.307 53.888 211.567 54.056 211.831 54.184C212.103 54.312 212.415 54.376 212.767 54.376C213.151 54.376 213.439 54.288 213.631 54.112C213.823 53.936 213.919 53.72 213.919 53.464C213.919 53.312 213.879 53.18 213.799 53.068C213.719 52.956 213.615 52.86 213.487 52.78C213.367 52.692 213.227 52.616 213.067 52.552C212.907 52.488 212.747 52.424 212.587 52.36C212.379 52.288 212.171 52.208 211.963 52.12C211.755 52.024 211.567 51.912 211.399 51.784C211.239 51.648 211.107 51.492 211.003 51.316C210.899 51.14 210.847 50.928 210.847 50.68C210.847 50.448 210.891 50.232 210.979 50.032C211.075 49.824 211.207 49.648 211.375 49.504C211.551 49.352 211.763 49.236 212.011 49.156C212.259 49.068 212.539 49.024 212.851 49.024C213.219 49.024 213.555 49.088 213.859 49.216C214.171 49.344 214.439 49.5 214.663 49.684L214.195 50.308C213.995 50.156 213.787 50.032 213.571 49.936C213.355 49.84 213.119 49.792 212.863 49.792C212.495 49.792 212.223 49.876 212.047 50.044C211.879 50.212 211.795 50.408 211.795 50.632C211.795 50.768 211.831 50.888 211.903 50.992C211.975 51.088 212.071 51.176 212.191 51.256C212.311 51.328 212.447 51.396 212.599 51.46C212.759 51.516 212.923 51.576 213.091 51.64C213.299 51.72 213.507 51.804 213.715 51.892C213.931 51.98 214.123 52.092 214.291 52.228C214.459 52.356 214.595 52.516 214.699 52.708C214.811 52.9 214.867 53.132 214.867 53.404C214.867 53.644 214.819 53.868 214.723 54.076C214.635 54.284 214.499 54.468 214.315 54.628C214.139 54.788 213.915 54.912 213.643 55C213.379 55.096 213.075 55.144 212.731 55.144ZM218.788 55.144C218.404 55.144 218.044 55.076 217.708 54.94C217.372 54.804 217.08 54.608 216.832 54.352C216.592 54.088 216.4 53.768 216.256 53.392C216.12 53.008 216.052 52.576 216.052 52.096C216.052 51.608 216.128 51.176 216.28 50.8C216.432 50.416 216.636 50.092 216.892 49.828C217.148 49.564 217.444 49.364 217.78 49.228C218.124 49.092 218.484 49.024 218.86 49.024C219.244 49.024 219.572 49.092 219.844 49.228C220.116 49.364 220.356 49.524 220.564 49.708L220.06 50.356C219.892 50.204 219.712 50.08 219.52 49.984C219.336 49.888 219.128 49.84 218.896 49.84C218.632 49.84 218.388 49.896 218.164 50.008C217.94 50.112 217.748 50.264 217.588 50.464C217.428 50.664 217.3 50.904 217.204 51.184C217.116 51.456 217.072 51.76 217.072 52.096C217.072 52.432 217.116 52.736 217.204 53.008C217.292 53.28 217.412 53.516 217.564 53.716C217.724 53.908 217.916 54.06 218.14 54.172C218.364 54.276 218.608 54.328 218.872 54.328C219.144 54.328 219.392 54.272 219.616 54.16C219.848 54.04 220.056 53.9 220.24 53.74L220.672 54.4C220.408 54.632 220.116 54.816 219.796 54.952C219.476 55.08 219.14 55.144 218.788 55.144ZM222.207 55V49.168H223.023L223.107 50.224H223.143C223.343 49.856 223.583 49.564 223.863 49.348C224.151 49.132 224.463 49.024 224.799 49.024C225.031 49.024 225.239 49.064 225.423 49.144L225.231 50.008C225.135 49.976 225.047 49.952 224.967 49.936C224.887 49.92 224.787 49.912 224.667 49.912C224.419 49.912 224.159 50.012 223.887 50.212C223.623 50.412 223.391 50.76 223.191 51.256V55H222.207ZM228.864 55.144C228.472 55.144 228.104 55.076 227.76 54.94C227.424 54.796 227.128 54.596 226.872 54.34C226.624 54.076 226.428 53.756 226.284 53.38C226.14 53.004 226.068 52.576 226.068 52.096C226.068 51.616 226.14 51.188 226.284 50.812C226.436 50.428 226.632 50.104 226.872 49.84C227.12 49.576 227.4 49.376 227.712 49.24C228.024 49.096 228.348 49.024 228.684 49.024C229.052 49.024 229.38 49.088 229.668 49.216C229.964 49.344 230.208 49.528 230.4 49.768C230.6 50.008 230.752 50.296 230.856 50.632C230.96 50.968 231.012 51.344 231.012 51.76C231.012 51.864 231.008 51.968 231 52.072C231 52.168 230.992 52.252 230.976 52.324H227.04C227.08 52.948 227.272 53.444 227.616 53.812C227.968 54.172 228.424 54.352 228.984 54.352C229.264 54.352 229.52 54.312 229.752 54.232C229.992 54.144 230.22 54.032 230.436 53.896L230.784 54.544C230.528 54.704 230.244 54.844 229.932 54.964C229.62 55.084 229.264 55.144 228.864 55.144ZM227.028 51.616H230.148C230.148 51.024 230.02 50.576 229.764 50.272C229.516 49.96 229.164 49.804 228.708 49.804C228.5 49.804 228.3 49.844 228.108 49.924C227.924 50.004 227.756 50.124 227.604 50.284C227.452 50.436 227.324 50.624 227.22 50.848C227.124 51.072 227.06 51.328 227.028 51.616ZM235.067 55.144C234.675 55.144 234.307 55.076 233.963 54.94C233.627 54.796 233.331 54.596 233.075 54.34C232.827 54.076 232.631 53.756 232.487 53.38C232.343 53.004 232.271 52.576 232.271 52.096C232.271 51.616 232.343 51.188 232.487 50.812C232.639 50.428 232.835 50.104 233.075 49.84C233.323 49.576 233.603 49.376 233.915 49.24C234.227 49.096 234.551 49.024 234.887 49.024C235.255 49.024 235.583 49.088 235.871 49.216C236.167 49.344 236.411 49.528 236.603 49.768C236.803 50.008 236.955 50.296 237.059 50.632C237.163 50.968 237.215 51.344 237.215 51.76C237.215 51.864 237.211 51.968 237.203 52.072C237.203 52.168 237.195 52.252 237.179 52.324H233.243C233.283 52.948 233.475 53.444 233.819 53.812C234.171 54.172 234.627 54.352 235.187 54.352C235.467 54.352 235.723 54.312 235.955 54.232C236.195 54.144 236.423 54.032 236.639 53.896L236.987 54.544C236.731 54.704 236.447 54.844 236.135 54.964C235.823 55.084 235.467 55.144 235.067 55.144ZM233.231 51.616H236.351C236.351 51.024 236.223 50.576 235.967 50.272C235.719 49.96 235.367 49.804 234.911 49.804C234.703 49.804 234.503 49.844 234.311 49.924C234.127 50.004 233.959 50.124 233.807 50.284C233.655 50.436 233.527 50.624 233.423 50.848C233.327 51.072 233.263 51.328 233.231 51.616ZM238.906 55V49.168H239.722L239.806 50.008H239.842C240.122 49.728 240.414 49.496 240.718 49.312C241.03 49.12 241.39 49.024 241.798 49.024C242.414 49.024 242.862 49.216 243.142 49.6C243.43 49.984 243.574 50.552 243.574 51.304V55H242.59V51.436C242.59 50.884 242.502 50.488 242.326 50.248C242.15 50 241.87 49.876 241.486 49.876C241.182 49.876 240.914 49.952 240.682 50.104C240.45 50.256 240.186 50.48 239.89 50.776V55H238.906ZM249.163 55L247.675 49.048H249.427L250.003 51.808C250.051 52.104 250.095 52.396 250.135 52.684C250.175 52.972 250.219 53.268 250.267 53.572H250.315C250.371 53.268 250.423 52.968 250.471 52.672C250.527 52.376 250.591 52.088 250.663 51.808L251.323 49.048H252.847L253.519 51.808C253.591 52.104 253.655 52.396 253.711 52.684C253.767 52.972 253.827 53.268 253.891 53.572H253.939C253.995 53.268 254.039 52.972 254.071 52.684C254.111 52.396 254.159 52.104 254.215 51.808L254.779 49.048H256.411L254.983 55H252.919L252.379 52.624C252.315 52.344 252.259 52.064 252.211 51.784C252.163 51.504 252.111 51.204 252.055 50.884H252.007C251.951 51.204 251.899 51.504 251.851 51.784C251.811 52.064 251.763 52.344 251.707 52.624L251.179 55H249.163ZM257.733 55V49.048H259.497V55H257.733ZM258.609 48.172C258.313 48.172 258.069 48.088 257.877 47.92C257.685 47.744 257.589 47.52 257.589 47.248C257.589 46.976 257.685 46.756 257.877 46.588C258.069 46.42 258.313 46.336 258.609 46.336C258.913 46.336 259.157 46.42 259.341 46.588C259.533 46.756 259.629 46.976 259.629 47.248C259.629 47.52 259.533 47.744 259.341 47.92C259.157 48.088 258.913 48.172 258.609 48.172ZM263.424 55.144C263.056 55.144 262.72 55.072 262.416 54.928C262.12 54.784 261.864 54.58 261.648 54.316C261.44 54.044 261.276 53.716 261.156 53.332C261.044 52.948 260.988 52.512 260.988 52.024C260.988 51.536 261.056 51.1 261.192 50.716C261.336 50.332 261.52 50.008 261.744 49.744C261.976 49.472 262.24 49.264 262.536 49.12C262.84 48.976 263.148 48.904 263.46 48.904C263.796 48.904 264.072 48.96 264.288 49.072C264.504 49.184 264.716 49.336 264.924 49.528L264.852 48.616V46.588H266.616V55H265.176L265.056 54.412H265.008C264.8 54.62 264.556 54.796 264.276 54.94C263.996 55.076 263.712 55.144 263.424 55.144ZM263.88 53.704C264.072 53.704 264.244 53.664 264.396 53.584C264.556 53.504 264.708 53.364 264.852 53.164V50.728C264.692 50.584 264.528 50.484 264.36 50.428C264.192 50.372 264.028 50.344 263.868 50.344C263.588 50.344 263.34 50.48 263.124 50.752C262.908 51.016 262.8 51.432 262.8 52C262.8 52.592 262.892 53.024 263.076 53.296C263.268 53.568 263.536 53.704 263.88 53.704ZM270.72 55.144C270.352 55.144 270.036 55.088 269.772 54.976C269.516 54.864 269.304 54.708 269.136 54.508C268.976 54.308 268.856 54.068 268.776 53.788C268.704 53.5 268.668 53.184 268.668 52.84V50.428H267.852V49.12L268.764 49.048L268.968 47.464H270.432V49.048H271.86V50.428H270.432V52.816C270.432 53.152 270.5 53.396 270.636 53.548C270.78 53.692 270.968 53.764 271.2 53.764C271.296 53.764 271.392 53.752 271.488 53.728C271.592 53.704 271.684 53.676 271.764 53.644L272.04 54.928C271.88 54.976 271.692 55.024 271.476 55.072C271.26 55.12 271.008 55.144 270.72 55.144ZM273.272 55V46.588H275.036V48.652L274.952 49.72C275.176 49.52 275.436 49.336 275.732 49.168C276.028 48.992 276.38 48.904 276.788 48.904C277.436 48.904 277.904 49.116 278.192 49.54C278.488 49.964 278.636 50.552 278.636 51.304V55H276.872V51.532C276.872 51.1 276.812 50.804 276.692 50.644C276.58 50.484 276.396 50.404 276.14 50.404C275.916 50.404 275.724 50.456 275.564 50.56C275.404 50.656 275.228 50.796 275.036 50.98V55H273.272ZM284.65 55.144C284.346 55.144 284.09 55.096 283.882 55C283.674 54.904 283.506 54.772 283.378 54.604C283.258 54.428 283.17 54.22 283.114 53.98C283.058 53.732 283.03 53.456 283.03 53.152V46.588H284.794V53.224C284.794 53.408 284.826 53.536 284.89 53.608C284.962 53.68 285.034 53.716 285.106 53.716C285.146 53.716 285.178 53.716 285.202 53.716C285.234 53.716 285.274 53.708 285.322 53.692L285.538 55C285.442 55.04 285.318 55.072 285.166 55.096C285.022 55.128 284.85 55.144 284.65 55.144ZM289.378 55.144C288.954 55.144 288.558 55.076 288.19 54.94C287.822 54.796 287.502 54.592 287.23 54.328C286.958 54.056 286.746 53.728 286.594 53.344C286.442 52.96 286.366 52.52 286.366 52.024C286.366 51.544 286.446 51.112 286.606 50.728C286.766 50.336 286.974 50.008 287.23 49.744C287.494 49.472 287.794 49.264 288.13 49.12C288.466 48.976 288.814 48.904 289.174 48.904C289.598 48.904 289.966 48.976 290.278 49.12C290.598 49.264 290.862 49.464 291.07 49.72C291.286 49.976 291.446 50.28 291.55 50.632C291.654 50.976 291.706 51.352 291.706 51.76C291.706 51.92 291.698 52.072 291.682 52.216C291.666 52.36 291.65 52.468 291.634 52.54H288.07C288.15 52.972 288.326 53.292 288.598 53.5C288.878 53.7 289.218 53.8 289.618 53.8C290.042 53.8 290.47 53.668 290.902 53.404L291.49 54.472C291.186 54.68 290.846 54.844 290.47 54.964C290.102 55.084 289.738 55.144 289.378 55.144ZM288.058 51.376H290.206C290.206 51.04 290.13 50.768 289.978 50.56C289.826 50.352 289.57 50.248 289.21 50.248C288.93 50.248 288.682 50.34 288.466 50.524C288.258 50.708 288.122 50.992 288.058 51.376ZM294.927 55.144C294.535 55.144 294.131 55.068 293.715 54.916C293.307 54.764 292.951 54.564 292.647 54.316L293.439 53.212C293.711 53.42 293.971 53.576 294.219 53.68C294.467 53.784 294.719 53.836 294.975 53.836C295.239 53.836 295.431 53.792 295.551 53.704C295.671 53.616 295.731 53.492 295.731 53.332C295.731 53.236 295.695 53.152 295.623 53.08C295.559 53 295.467 52.928 295.347 52.864C295.235 52.8 295.107 52.744 294.963 52.696C294.819 52.64 294.671 52.58 294.519 52.516C294.335 52.444 294.151 52.36 293.967 52.264C293.783 52.168 293.615 52.052 293.463 51.916C293.311 51.772 293.187 51.608 293.091 51.424C292.995 51.232 292.947 51.012 292.947 50.764C292.947 50.492 292.999 50.24 293.103 50.008C293.215 49.776 293.371 49.58 293.571 49.42C293.771 49.26 294.011 49.136 294.291 49.048C294.571 48.952 294.883 48.904 295.227 48.904C295.683 48.904 296.083 48.984 296.427 49.144C296.771 49.296 297.071 49.468 297.327 49.66L296.535 50.716C296.319 50.556 296.107 50.432 295.899 50.344C295.691 50.256 295.483 50.212 295.275 50.212C294.827 50.212 294.603 50.368 294.603 50.68C294.603 50.776 294.635 50.86 294.699 50.932C294.763 50.996 294.847 51.056 294.951 51.112C295.063 51.168 295.187 51.224 295.323 51.28C295.467 51.328 295.615 51.38 295.767 51.436C295.959 51.508 296.147 51.592 296.331 51.688C296.523 51.776 296.695 51.888 296.847 52.024C297.007 52.16 297.135 52.328 297.231 52.528C297.327 52.72 297.375 52.952 297.375 53.224C297.375 53.496 297.323 53.748 297.219 53.98C297.115 54.212 296.959 54.416 296.751 54.592C296.543 54.76 296.287 54.896 295.983 55C295.679 55.096 295.327 55.144 294.927 55.144ZM300.497 55.144C300.105 55.144 299.701 55.068 299.285 54.916C298.877 54.764 298.521 54.564 298.217 54.316L299.009 53.212C299.281 53.42 299.541 53.576 299.789 53.68C300.037 53.784 300.289 53.836 300.545 53.836C300.809 53.836 301.001 53.792 301.121 53.704C301.241 53.616 301.301 53.492 301.301 53.332C301.301 53.236 301.265 53.152 301.193 53.08C301.129 53 301.037 52.928 300.917 52.864C300.805 52.8 300.677 52.744 300.533 52.696C300.389 52.64 300.241 52.58 300.089 52.516C299.905 52.444 299.721 52.36 299.537 52.264C299.353 52.168 299.185 52.052 299.033 51.916C298.881 51.772 298.757 51.608 298.661 51.424C298.565 51.232 298.517 51.012 298.517 50.764C298.517 50.492 298.569 50.24 298.673 50.008C298.785 49.776 298.941 49.58 299.141 49.42C299.341 49.26 299.581 49.136 299.861 49.048C300.141 48.952 300.453 48.904 300.797 48.904C301.253 48.904 301.653 48.984 301.997 49.144C302.341 49.296 302.641 49.468 302.897 49.66L302.105 50.716C301.889 50.556 301.677 50.432 301.469 50.344C301.261 50.256 301.053 50.212 300.845 50.212C300.397 50.212 300.173 50.368 300.173 50.68C300.173 50.776 300.205 50.86 300.269 50.932C300.333 50.996 300.417 51.056 300.521 51.112C300.633 51.168 300.757 51.224 300.893 51.28C301.037 51.328 301.185 51.38 301.337 51.436C301.529 51.508 301.717 51.592 301.901 51.688C302.093 51.776 302.265 51.888 302.417 52.024C302.577 52.16 302.705 52.328 302.801 52.528C302.897 52.72 302.945 52.952 302.945 53.224C302.945 53.496 302.893 53.748 302.789 53.98C302.685 54.212 302.529 54.416 302.321 54.592C302.113 54.76 301.857 54.896 301.553 55C301.249 55.096 300.897 55.144 300.497 55.144ZM309.26 55.144C308.892 55.144 308.576 55.088 308.312 54.976C308.056 54.864 307.844 54.708 307.676 54.508C307.516 54.308 307.396 54.068 307.316 53.788C307.244 53.5 307.208 53.184 307.208 52.84V50.428H306.392V49.12L307.304 49.048L307.508 47.464H308.972V49.048H310.4V50.428H308.972V52.816C308.972 53.152 309.04 53.396 309.176 53.548C309.32 53.692 309.508 53.764 309.74 53.764C309.836 53.764 309.932 53.752 310.028 53.728C310.132 53.704 310.224 53.676 310.304 53.644L310.58 54.928C310.42 54.976 310.232 55.024 310.016 55.072C309.8 55.12 309.548 55.144 309.26 55.144ZM311.811 55V46.588H313.575V48.652L313.491 49.72C313.715 49.52 313.975 49.336 314.271 49.168C314.567 48.992 314.919 48.904 315.327 48.904C315.975 48.904 316.443 49.116 316.731 49.54C317.027 49.964 317.175 50.552 317.175 51.304V55H315.411V51.532C315.411 51.1 315.351 50.804 315.231 50.644C315.119 50.484 314.935 50.404 314.679 50.404C314.455 50.404 314.263 50.456 314.103 50.56C313.943 50.656 313.767 50.796 313.575 50.98V55H311.811ZM320.417 55.144C320.145 55.144 319.897 55.096 319.673 55C319.457 54.912 319.273 54.788 319.121 54.628C318.969 54.46 318.849 54.268 318.761 54.052C318.681 53.836 318.641 53.6 318.641 53.344C318.641 52.72 318.905 52.232 319.433 51.88C319.961 51.528 320.813 51.292 321.989 51.172C321.973 50.908 321.893 50.7 321.749 50.548C321.613 50.388 321.381 50.308 321.053 50.308C320.797 50.308 320.541 50.356 320.285 50.452C320.037 50.548 319.769 50.68 319.481 50.848L318.845 49.684C319.229 49.452 319.629 49.264 320.045 49.12C320.469 48.976 320.917 48.904 321.389 48.904C322.157 48.904 322.741 49.124 323.141 49.564C323.549 49.996 323.753 50.672 323.753 51.592V55H322.313L322.193 54.388H322.145C321.889 54.612 321.621 54.796 321.341 54.94C321.061 55.076 320.753 55.144 320.417 55.144ZM321.017 53.776C321.217 53.776 321.389 53.732 321.533 53.644C321.677 53.556 321.829 53.432 321.989 53.272V52.228C321.365 52.316 320.933 52.444 320.693 52.612C320.453 52.78 320.333 52.98 320.333 53.212C320.333 53.404 320.393 53.548 320.513 53.644C320.641 53.732 320.809 53.776 321.017 53.776ZM325.495 55V49.048H326.935L327.055 49.804H327.103C327.359 49.564 327.639 49.356 327.943 49.18C328.247 48.996 328.603 48.904 329.011 48.904C329.659 48.904 330.127 49.116 330.415 49.54C330.711 49.964 330.859 50.552 330.859 51.304V55H329.095V51.532C329.095 51.1 329.035 50.804 328.915 50.644C328.803 50.484 328.619 50.404 328.363 50.404C328.139 50.404 327.947 50.456 327.787 50.56C327.627 50.656 327.451 50.796 327.259 50.98V55H325.495ZM337.82 55.144C337.444 55.144 337.08 55.076 336.728 54.94C336.376 54.796 336.064 54.592 335.792 54.328C335.528 54.064 335.316 53.74 335.156 53.356C334.996 52.964 334.916 52.52 334.916 52.024C334.916 51.528 334.996 51.088 335.156 50.704C335.316 50.312 335.528 49.984 335.792 49.72C336.064 49.456 336.376 49.256 336.728 49.12C337.08 48.976 337.444 48.904 337.82 48.904C338.196 48.904 338.556 48.976 338.9 49.12C339.252 49.256 339.56 49.456 339.824 49.72C340.096 49.984 340.312 50.312 340.472 50.704C340.632 51.088 340.712 51.528 340.712 52.024C340.712 52.52 340.632 52.964 340.472 53.356C340.312 53.74 340.096 54.064 339.824 54.328C339.56 54.592 339.252 54.796 338.9 54.94C338.556 55.076 338.196 55.144 337.82 55.144ZM337.82 53.716C338.18 53.716 338.452 53.564 338.636 53.26C338.82 52.956 338.912 52.544 338.912 52.024C338.912 51.504 338.82 51.092 338.636 50.788C338.452 50.484 338.18 50.332 337.82 50.332C337.452 50.332 337.176 50.484 336.992 50.788C336.816 51.092 336.728 51.504 336.728 52.024C336.728 52.544 336.816 52.956 336.992 53.26C337.176 53.564 337.452 53.716 337.82 53.716ZM342.171 55V49.048H343.611L343.731 50.092H343.779C343.995 49.684 344.255 49.384 344.559 49.192C344.863 49 345.167 48.904 345.471 48.904C345.639 48.904 345.775 48.916 345.879 48.94C345.991 48.956 346.091 48.984 346.179 49.024L345.891 50.548C345.779 50.516 345.675 50.492 345.579 50.476C345.483 50.46 345.371 50.452 345.243 50.452C345.019 50.452 344.783 50.532 344.535 50.692C344.295 50.852 344.095 51.136 343.935 51.544V55H342.171ZM352.518 55.144C352.094 55.144 351.698 55.076 351.33 54.94C350.962 54.796 350.642 54.592 350.37 54.328C350.098 54.056 349.886 53.728 349.734 53.344C349.582 52.96 349.506 52.52 349.506 52.024C349.506 51.544 349.586 51.112 349.746 50.728C349.906 50.336 350.114 50.008 350.37 49.744C350.634 49.472 350.934 49.264 351.27 49.12C351.606 48.976 351.954 48.904 352.314 48.904C352.738 48.904 353.106 48.976 353.418 49.12C353.738 49.264 354.002 49.464 354.21 49.72C354.426 49.976 354.586 50.28 354.69 50.632C354.794 50.976 354.846 51.352 354.846 51.76C354.846 51.92 354.838 52.072 354.822 52.216C354.806 52.36 354.79 52.468 354.774 52.54H351.21C351.29 52.972 351.466 53.292 351.738 53.5C352.018 53.7 352.358 53.8 352.758 53.8C353.182 53.8 353.61 53.668 354.042 53.404L354.63 54.472C354.326 54.68 353.986 54.844 353.61 54.964C353.242 55.084 352.878 55.144 352.518 55.144ZM351.198 51.376H353.346C353.346 51.04 353.27 50.768 353.118 50.56C352.966 50.352 352.71 50.248 352.35 50.248C352.07 50.248 351.822 50.34 351.606 50.524C351.398 50.708 351.262 50.992 351.198 51.376ZM359.867 57.208V55.396L359.939 54.484C359.739 54.676 359.507 54.836 359.243 54.964C358.979 55.084 358.711 55.144 358.439 55.144C358.071 55.144 357.735 55.072 357.431 54.928C357.135 54.784 356.879 54.58 356.663 54.316C356.455 54.044 356.291 53.716 356.171 53.332C356.059 52.948 356.003 52.512 356.003 52.024C356.003 51.536 356.071 51.1 356.207 50.716C356.351 50.332 356.535 50.008 356.759 49.744C356.991 49.472 357.255 49.264 357.551 49.12C357.855 48.976 358.163 48.904 358.475 48.904C358.803 48.904 359.091 48.964 359.339 49.084C359.587 49.196 359.827 49.38 360.059 49.636H360.107L360.251 49.048H361.631V57.208H359.867ZM358.895 53.704C359.087 53.704 359.259 53.664 359.411 53.584C359.571 53.504 359.723 53.364 359.867 53.164V50.728C359.707 50.584 359.543 50.484 359.375 50.428C359.207 50.372 359.043 50.344 358.883 50.344C358.603 50.344 358.355 50.48 358.139 50.752C357.923 51.016 357.815 51.432 357.815 52C357.815 52.592 357.907 53.024 358.091 53.296C358.283 53.568 358.551 53.704 358.895 53.704ZM365.232 55.144C364.584 55.144 364.112 54.932 363.816 54.508C363.528 54.084 363.384 53.496 363.384 52.744V49.048H365.148V52.516C365.148 52.948 365.208 53.244 365.328 53.404C365.448 53.564 365.636 53.644 365.892 53.644C366.116 53.644 366.304 53.592 366.456 53.488C366.608 53.384 366.772 53.216 366.948 52.984V49.048H368.712V55H367.272L367.14 54.172H367.104C366.848 54.476 366.572 54.716 366.276 54.892C365.988 55.06 365.64 55.144 365.232 55.144ZM372.014 55.144C371.742 55.144 371.494 55.096 371.27 55C371.054 54.912 370.87 54.788 370.718 54.628C370.566 54.46 370.446 54.268 370.358 54.052C370.278 53.836 370.238 53.6 370.238 53.344C370.238 52.72 370.502 52.232 371.03 51.88C371.558 51.528 372.41 51.292 373.586 51.172C373.57 50.908 373.49 50.7 373.346 50.548C373.21 50.388 372.978 50.308 372.65 50.308C372.394 50.308 372.138 50.356 371.882 50.452C371.634 50.548 371.366 50.68 371.078 50.848L370.442 49.684C370.826 49.452 371.226 49.264 371.642 49.12C372.066 48.976 372.514 48.904 372.986 48.904C373.754 48.904 374.338 49.124 374.738 49.564C375.146 49.996 375.35 50.672 375.35 51.592V55H373.91L373.79 54.388H373.742C373.486 54.612 373.218 54.796 372.938 54.94C372.658 55.076 372.35 55.144 372.014 55.144ZM372.614 53.776C372.814 53.776 372.986 53.732 373.13 53.644C373.274 53.556 373.426 53.432 373.586 53.272V52.228C372.962 52.316 372.53 52.444 372.29 52.612C372.05 52.78 371.93 52.98 371.93 53.212C371.93 53.404 371.99 53.548 372.11 53.644C372.238 53.732 372.406 53.776 372.614 53.776ZM378.713 55.144C378.409 55.144 378.153 55.096 377.945 55C377.737 54.904 377.569 54.772 377.441 54.604C377.321 54.428 377.233 54.22 377.177 53.98C377.121 53.732 377.093 53.456 377.093 53.152V46.588H378.857V53.224C378.857 53.408 378.889 53.536 378.953 53.608C379.025 53.68 379.097 53.716 379.169 53.716C379.209 53.716 379.241 53.716 379.265 53.716C379.297 53.716 379.337 53.708 379.385 53.692L379.601 55C379.505 55.04 379.381 55.072 379.229 55.096C379.085 55.128 378.913 55.144 378.713 55.144ZM385.72 55.144C385.352 55.144 385.036 55.088 384.772 54.976C384.516 54.864 384.304 54.708 384.136 54.508C383.976 54.308 383.856 54.068 383.776 53.788C383.704 53.5 383.668 53.184 383.668 52.84V50.428H382.852V49.12L383.764 49.048L383.968 47.464H385.432V49.048H386.86V50.428H385.432V52.816C385.432 53.152 385.5 53.396 385.636 53.548C385.78 53.692 385.968 53.764 386.2 53.764C386.296 53.764 386.392 53.752 386.488 53.728C386.592 53.704 386.684 53.676 386.764 53.644L387.04 54.928C386.88 54.976 386.692 55.024 386.476 55.072C386.26 55.12 386.008 55.144 385.72 55.144ZM390.617 55.144C390.241 55.144 389.877 55.076 389.525 54.94C389.173 54.796 388.861 54.592 388.589 54.328C388.325 54.064 388.113 53.74 387.953 53.356C387.793 52.964 387.713 52.52 387.713 52.024C387.713 51.528 387.793 51.088 387.953 50.704C388.113 50.312 388.325 49.984 388.589 49.72C388.861 49.456 389.173 49.256 389.525 49.12C389.877 48.976 390.241 48.904 390.617 48.904C390.993 48.904 391.353 48.976 391.697 49.12C392.049 49.256 392.357 49.456 392.621 49.72C392.893 49.984 393.109 50.312 393.269 50.704C393.429 51.088 393.509 51.528 393.509 52.024C393.509 52.52 393.429 52.964 393.269 53.356C393.109 53.74 392.893 54.064 392.621 54.328C392.357 54.592 392.049 54.796 391.697 54.94C391.353 55.076 390.993 55.144 390.617 55.144ZM390.617 53.716C390.977 53.716 391.249 53.564 391.433 53.26C391.617 52.956 391.709 52.544 391.709 52.024C391.709 51.504 391.617 51.092 391.433 50.788C391.249 50.484 390.977 50.332 390.617 50.332C390.249 50.332 389.973 50.484 389.789 50.788C389.613 51.092 389.525 51.504 389.525 52.024C389.525 52.544 389.613 52.956 389.789 53.26C389.973 53.564 390.249 53.716 390.617 53.716ZM399.864 50.896C400.064 50.896 400.264 50.84 400.464 50.728C400.672 50.608 400.852 50.412 401.004 50.14C400.924 49.54 400.772 49.128 400.548 48.904C400.332 48.672 400.088 48.556 399.816 48.556C399.56 48.556 399.336 48.656 399.144 48.856C398.952 49.048 398.856 49.36 398.856 49.792C398.856 50.2 398.952 50.488 399.144 50.656C399.336 50.816 399.576 50.896 399.864 50.896ZM399.588 55.144C399.084 55.144 398.644 55.052 398.268 54.868C397.9 54.684 397.596 54.472 397.356 54.232L398.292 53.176C398.42 53.32 398.592 53.448 398.808 53.56C399.024 53.664 399.244 53.716 399.468 53.716C399.684 53.716 399.884 53.676 400.068 53.596C400.252 53.516 400.412 53.384 400.548 53.2C400.692 53.008 400.804 52.764 400.884 52.468C400.972 52.164 401.024 51.788 401.04 51.34C400.944 51.468 400.832 51.584 400.704 51.688C400.576 51.784 400.444 51.868 400.308 51.94C400.172 52.004 400.036 52.056 399.9 52.096C399.764 52.128 399.636 52.144 399.516 52.144C399.188 52.144 398.884 52.096 398.604 52C398.332 51.904 398.096 51.76 397.896 51.568C397.696 51.376 397.536 51.132 397.416 50.836C397.304 50.54 397.248 50.192 397.248 49.792C397.248 49.4 397.316 49.048 397.452 48.736C397.588 48.416 397.768 48.144 397.992 47.92C398.224 47.696 398.492 47.528 398.796 47.416C399.108 47.296 399.436 47.236 399.78 47.236C400.148 47.236 400.504 47.308 400.848 47.452C401.2 47.596 401.508 47.82 401.772 48.124C402.044 48.428 402.26 48.82 402.42 49.3C402.588 49.772 402.672 50.344 402.672 51.016C402.672 51.728 402.584 52.344 402.408 52.864C402.24 53.384 402.012 53.812 401.724 54.148C401.444 54.484 401.116 54.736 400.74 54.904C400.372 55.064 399.988 55.144 399.588 55.144ZM406.454 50.896C406.654 50.896 406.854 50.84 407.054 50.728C407.262 50.608 407.442 50.412 407.594 50.14C407.514 49.54 407.362 49.128 407.138 48.904C406.922 48.672 406.678 48.556 406.406 48.556C406.15 48.556 405.926 48.656 405.734 48.856C405.542 49.048 405.446 49.36 405.446 49.792C405.446 50.2 405.542 50.488 405.734 50.656C405.926 50.816 406.166 50.896 406.454 50.896ZM406.178 55.144C405.674 55.144 405.234 55.052 404.858 54.868C404.49 54.684 404.186 54.472 403.946 54.232L404.882 53.176C405.01 53.32 405.182 53.448 405.398 53.56C405.614 53.664 405.834 53.716 406.058 53.716C406.274 53.716 406.474 53.676 406.658 53.596C406.842 53.516 407.002 53.384 407.138 53.2C407.282 53.008 407.394 52.764 407.474 52.468C407.562 52.164 407.614 51.788 407.63 51.34C407.534 51.468 407.422 51.584 407.294 51.688C407.166 51.784 407.034 51.868 406.898 51.94C406.762 52.004 406.626 52.056 406.49 52.096C406.354 52.128 406.226 52.144 406.106 52.144C405.778 52.144 405.474 52.096 405.194 52C404.922 51.904 404.686 51.76 404.486 51.568C404.286 51.376 404.126 51.132 404.006 50.836C403.894 50.54 403.838 50.192 403.838 49.792C403.838 49.4 403.906 49.048 404.042 48.736C404.178 48.416 404.358 48.144 404.582 47.92C404.814 47.696 405.082 47.528 405.386 47.416C405.698 47.296 406.026 47.236 406.37 47.236C406.738 47.236 407.094 47.308 407.438 47.452C407.79 47.596 408.098 47.82 408.362 48.124C408.634 48.428 408.85 48.82 409.01 49.3C409.178 49.772 409.262 50.344 409.262 51.016C409.262 51.728 409.174 52.344 408.998 52.864C408.83 53.384 408.602 53.812 408.314 54.148C408.034 54.484 407.706 54.736 407.33 54.904C406.962 55.064 406.578 55.144 406.178 55.144ZM410.464 55V53.992C410.952 53.536 411.396 53.112 411.796 52.72C412.204 52.32 412.552 51.948 412.84 51.604C413.136 51.252 413.364 50.928 413.524 50.632C413.692 50.328 413.776 50.04 413.776 49.768C413.776 49.392 413.68 49.108 413.488 48.916C413.296 48.716 413.032 48.616 412.696 48.616C412.416 48.616 412.168 48.696 411.952 48.856C411.736 49.008 411.532 49.188 411.34 49.396L410.38 48.448C410.756 48.048 411.14 47.748 411.532 47.548C411.924 47.34 412.392 47.236 412.936 47.236C413.312 47.236 413.652 47.296 413.956 47.416C414.268 47.528 414.536 47.692 414.76 47.908C414.984 48.116 415.156 48.368 415.276 48.664C415.396 48.96 415.456 49.292 415.456 49.66C415.456 49.98 415.388 50.308 415.252 50.644C415.116 50.972 414.932 51.304 414.7 51.64C414.476 51.968 414.216 52.3 413.92 52.636C413.632 52.964 413.332 53.288 413.02 53.608C413.212 53.584 413.424 53.564 413.656 53.548C413.896 53.524 414.108 53.512 414.292 53.512H415.828V55H410.464ZM417.389 57.208V49.048H418.829L418.949 49.636H418.997C419.229 49.428 419.489 49.256 419.777 49.12C420.073 48.976 420.377 48.904 420.689 48.904C421.049 48.904 421.373 48.976 421.661 49.12C421.949 49.264 422.193 49.468 422.393 49.732C422.593 49.996 422.745 50.316 422.849 50.692C422.961 51.06 423.017 51.472 423.017 51.928C423.017 52.44 422.945 52.896 422.801 53.296C422.665 53.688 422.477 54.024 422.237 54.304C422.005 54.576 421.737 54.784 421.433 54.928C421.137 55.072 420.829 55.144 420.509 55.144C420.253 55.144 420.005 55.092 419.765 54.988C419.525 54.876 419.301 54.72 419.093 54.52L419.153 55.468V57.208H417.389ZM420.101 53.704C420.405 53.704 420.665 53.568 420.881 53.296C421.097 53.016 421.205 52.568 421.205 51.952C421.205 50.88 420.861 50.344 420.173 50.344C419.829 50.344 419.489 50.524 419.153 50.884V53.32C419.313 53.464 419.473 53.564 419.633 53.62C419.793 53.676 419.949 53.704 420.101 53.704ZM423.59 55L425.414 51.904L423.698 49.048H425.594L426.122 50.008C426.202 50.176 426.282 50.348 426.362 50.524C426.45 50.692 426.538 50.86 426.626 51.028H426.674C426.738 50.86 426.806 50.692 426.878 50.524C426.95 50.348 427.018 50.176 427.082 50.008L427.49 49.048H429.314L427.586 52.108L429.422 55H427.526L426.95 54.016C426.854 53.848 426.758 53.676 426.662 53.5C426.574 53.324 426.482 53.152 426.386 52.984H426.338C426.266 53.152 426.19 53.324 426.11 53.5C426.03 53.668 425.954 53.84 425.882 54.016L425.414 55H423.59ZM435.056 57.112C434.56 56.312 434.172 55.468 433.892 54.58C433.612 53.692 433.472 52.72 433.472 51.664C433.472 50.608 433.612 49.64 433.892 48.76C434.172 47.872 434.56 47.024 435.056 46.216L435.668 46.504C435.204 47.272 434.856 48.096 434.624 48.976C434.4 49.848 434.288 50.744 434.288 51.664C434.288 52.584 434.4 53.484 434.624 54.364C434.856 55.236 435.204 56.056 435.668 56.824L435.056 57.112ZM439.935 55.144C439.663 55.144 439.379 55.08 439.083 54.952C438.795 54.816 438.523 54.632 438.267 54.4H438.231L438.147 55H437.355V46.456H438.339V48.784L438.315 49.84C438.579 49.608 438.867 49.416 439.179 49.264C439.491 49.104 439.811 49.024 440.139 49.024C440.515 49.024 440.847 49.096 441.135 49.24C441.423 49.376 441.663 49.576 441.855 49.84C442.055 50.096 442.203 50.408 442.299 50.776C442.403 51.136 442.455 51.54 442.455 51.988C442.455 52.484 442.387 52.928 442.251 53.32C442.115 53.712 441.931 54.044 441.699 54.316C441.467 54.588 441.199 54.796 440.895 54.94C440.591 55.076 440.271 55.144 439.935 55.144ZM439.767 54.316C440.007 54.316 440.227 54.264 440.427 54.16C440.635 54.048 440.811 53.896 440.955 53.704C441.107 53.504 441.223 53.26 441.303 52.972C441.391 52.684 441.435 52.36 441.435 52C441.435 51.68 441.407 51.388 441.351 51.124C441.295 50.86 441.203 50.636 441.075 50.452C440.955 50.26 440.795 50.112 440.595 50.008C440.403 49.904 440.171 49.852 439.899 49.852C439.427 49.852 438.907 50.116 438.339 50.644V53.704C438.595 53.928 438.847 54.088 439.095 54.184C439.351 54.272 439.575 54.316 439.767 54.316ZM444.238 55V49.168H445.054L445.138 50.224H445.174C445.374 49.856 445.614 49.564 445.894 49.348C446.182 49.132 446.494 49.024 446.83 49.024C447.062 49.024 447.27 49.064 447.454 49.144L447.262 50.008C447.166 49.976 447.078 49.952 446.998 49.936C446.918 49.92 446.818 49.912 446.698 49.912C446.45 49.912 446.19 50.012 445.918 50.212C445.654 50.412 445.422 50.76 445.222 51.256V55H444.238ZM450.895 55.144C450.503 55.144 450.135 55.076 449.791 54.94C449.455 54.796 449.159 54.596 448.903 54.34C448.655 54.076 448.459 53.756 448.315 53.38C448.171 53.004 448.099 52.576 448.099 52.096C448.099 51.616 448.171 51.188 448.315 50.812C448.467 50.428 448.663 50.104 448.903 49.84C449.151 49.576 449.431 49.376 449.743 49.24C450.055 49.096 450.379 49.024 450.715 49.024C451.083 49.024 451.411 49.088 451.699 49.216C451.995 49.344 452.239 49.528 452.431 49.768C452.631 50.008 452.783 50.296 452.887 50.632C452.991 50.968 453.043 51.344 453.043 51.76C453.043 51.864 453.039 51.968 453.031 52.072C453.031 52.168 453.023 52.252 453.007 52.324H449.071C449.111 52.948 449.303 53.444 449.647 53.812C449.999 54.172 450.455 54.352 451.015 54.352C451.295 54.352 451.551 54.312 451.783 54.232C452.023 54.144 452.251 54.032 452.467 53.896L452.815 54.544C452.559 54.704 452.275 54.844 451.963 54.964C451.651 55.084 451.295 55.144 450.895 55.144ZM449.059 51.616H452.179C452.179 51.024 452.051 50.576 451.795 50.272C451.547 49.96 451.195 49.804 450.739 49.804C450.531 49.804 450.331 49.844 450.139 49.924C449.955 50.004 449.787 50.124 449.635 50.284C449.483 50.436 449.355 50.624 449.251 50.848C449.155 51.072 449.091 51.328 449.059 51.616ZM455.914 55.144C455.426 55.144 455.018 55 454.69 54.712C454.37 54.424 454.21 54.016 454.21 53.488C454.21 52.848 454.494 52.36 455.062 52.024C455.63 51.68 456.538 51.44 457.786 51.304C457.786 51.12 457.766 50.94 457.726 50.764C457.694 50.588 457.634 50.432 457.546 50.296C457.458 50.16 457.334 50.052 457.174 49.972C457.022 49.884 456.826 49.84 456.586 49.84C456.25 49.84 455.934 49.904 455.638 50.032C455.342 50.16 455.078 50.304 454.846 50.464L454.462 49.78C454.734 49.604 455.066 49.436 455.458 49.276C455.85 49.108 456.282 49.024 456.754 49.024C457.466 49.024 457.982 49.244 458.302 49.684C458.622 50.116 458.782 50.696 458.782 51.424V55H457.966L457.882 54.304H457.846C457.566 54.536 457.266 54.736 456.946 54.904C456.626 55.064 456.282 55.144 455.914 55.144ZM456.202 54.352C456.482 54.352 456.746 54.288 456.994 54.16C457.242 54.024 457.506 53.828 457.786 53.572V51.952C457.298 52.016 456.886 52.092 456.55 52.18C456.222 52.268 455.954 52.372 455.746 52.492C455.546 52.612 455.398 52.752 455.302 52.912C455.214 53.064 455.17 53.232 455.17 53.416C455.17 53.752 455.27 53.992 455.47 54.136C455.67 54.28 455.914 54.352 456.202 54.352ZM460.867 55V46.456H461.839V52.24H461.875L464.359 49.168H465.451L463.495 51.508L465.715 55H464.635L462.931 52.192L461.839 53.464V55H460.867ZM467.058 57.46V49.168H467.874L467.958 49.84H467.994C468.258 49.616 468.546 49.424 468.858 49.264C469.178 49.104 469.51 49.024 469.854 49.024C470.23 49.024 470.562 49.096 470.85 49.24C471.138 49.376 471.378 49.576 471.57 49.84C471.762 50.096 471.906 50.408 472.002 50.776C472.106 51.136 472.158 51.544 472.158 52C472.158 52.496 472.09 52.94 471.954 53.332C471.818 53.716 471.634 54.044 471.402 54.316C471.17 54.588 470.902 54.796 470.598 54.94C470.294 55.076 469.974 55.144 469.638 55.144C469.366 55.144 469.094 55.084 468.822 54.964C468.558 54.844 468.29 54.68 468.018 54.472L468.042 55.492V57.46H467.058ZM469.47 54.316C469.71 54.316 469.93 54.264 470.13 54.16C470.338 54.048 470.514 53.896 470.658 53.704C470.81 53.504 470.926 53.26 471.006 52.972C471.094 52.684 471.138 52.36 471.138 52C471.138 51.68 471.11 51.388 471.054 51.124C470.998 50.86 470.906 50.636 470.778 50.452C470.658 50.26 470.498 50.112 470.298 50.008C470.106 49.904 469.874 49.852 469.602 49.852C469.354 49.852 469.102 49.92 468.846 50.056C468.598 50.192 468.33 50.388 468.042 50.644V53.704C468.306 53.928 468.562 54.088 468.81 54.184C469.058 54.272 469.278 54.316 469.47 54.316ZM476.232 55.144C475.872 55.144 475.528 55.076 475.2 54.94C474.88 54.804 474.596 54.608 474.348 54.352C474.1 54.088 473.9 53.768 473.748 53.392C473.604 53.008 473.532 52.576 473.532 52.096C473.532 51.608 473.604 51.176 473.748 50.8C473.9 50.416 474.1 50.092 474.348 49.828C474.596 49.564 474.88 49.364 475.2 49.228C475.528 49.092 475.872 49.024 476.232 49.024C476.592 49.024 476.932 49.092 477.252 49.228C477.58 49.364 477.868 49.564 478.116 49.828C478.364 50.092 478.56 50.416 478.704 50.8C478.856 51.176 478.932 51.608 478.932 52.096C478.932 52.576 478.856 53.008 478.704 53.392C478.56 53.768 478.364 54.088 478.116 54.352C477.868 54.608 477.58 54.804 477.252 54.94C476.932 55.076 476.592 55.144 476.232 55.144ZM476.232 54.328C476.48 54.328 476.708 54.276 476.916 54.172C477.124 54.06 477.3 53.908 477.444 53.716C477.596 53.516 477.712 53.28 477.792 53.008C477.872 52.736 477.912 52.432 477.912 52.096C477.912 51.76 477.872 51.456 477.792 51.184C477.712 50.904 477.596 50.664 477.444 50.464C477.3 50.264 477.124 50.112 476.916 50.008C476.708 49.896 476.48 49.84 476.232 49.84C475.984 49.84 475.756 49.896 475.548 50.008C475.34 50.112 475.16 50.264 475.008 50.464C474.864 50.664 474.752 50.904 474.672 51.184C474.592 51.456 474.552 51.76 474.552 52.096C474.552 52.432 474.592 52.736 474.672 53.008C474.752 53.28 474.864 53.516 475.008 53.716C475.16 53.908 475.34 54.06 475.548 54.172C475.756 54.276 475.984 54.328 476.232 54.328ZM480.718 55V49.168H481.702V55H480.718ZM481.222 47.968C481.03 47.968 480.866 47.908 480.73 47.788C480.602 47.668 480.538 47.516 480.538 47.332C480.538 47.14 480.602 46.988 480.73 46.876C480.866 46.756 481.03 46.696 481.222 46.696C481.414 46.696 481.574 46.756 481.702 46.876C481.838 46.988 481.906 47.14 481.906 47.332C481.906 47.516 481.838 47.668 481.702 47.788C481.574 47.908 481.414 47.968 481.222 47.968ZM483.922 55V49.168H484.738L484.822 50.008H484.858C485.138 49.728 485.43 49.496 485.734 49.312C486.046 49.12 486.406 49.024 486.814 49.024C487.43 49.024 487.878 49.216 488.158 49.6C488.446 49.984 488.59 50.552 488.59 51.304V55H487.606V51.436C487.606 50.884 487.518 50.488 487.342 50.248C487.166 50 486.886 49.876 486.502 49.876C486.198 49.876 485.93 49.952 485.698 50.104C485.466 50.256 485.202 50.48 484.906 50.776V55H483.922ZM492.57 55.144C492.258 55.144 491.994 55.096 491.778 55C491.57 54.904 491.398 54.772 491.262 54.604C491.134 54.436 491.042 54.232 490.986 53.992C490.93 53.752 490.902 53.488 490.902 53.2V49.972H490.038V49.228L490.95 49.168L491.07 47.536H491.898V49.168H493.47V49.972H491.898V53.212C491.898 53.572 491.962 53.852 492.09 54.052C492.226 54.244 492.462 54.34 492.798 54.34C492.902 54.34 493.014 54.324 493.134 54.292C493.254 54.26 493.362 54.224 493.458 54.184L493.65 54.928C493.49 54.984 493.314 55.032 493.122 55.072C492.938 55.12 492.754 55.144 492.57 55.144ZM497.199 52.324V51.64H505.815V52.324H497.199ZM511.607 55.144C511.303 55.144 511.047 55.096 510.839 55C510.631 54.904 510.463 54.772 510.335 54.604C510.215 54.428 510.127 54.22 510.071 53.98C510.015 53.732 509.987 53.456 509.987 53.152V46.588H511.751V53.224C511.751 53.408 511.783 53.536 511.847 53.608C511.919 53.68 511.991 53.716 512.063 53.716C512.103 53.716 512.135 53.716 512.159 53.716C512.191 53.716 512.231 53.708 512.279 53.692L512.495 55C512.399 55.04 512.275 55.072 512.123 55.096C511.979 55.128 511.807 55.144 511.607 55.144ZM515.795 57.532C515.443 57.532 515.115 57.5 514.811 57.436C514.515 57.38 514.251 57.292 514.019 57.172C513.795 57.052 513.619 56.896 513.491 56.704C513.363 56.512 513.299 56.284 513.299 56.02C513.299 55.54 513.583 55.14 514.151 54.82V54.772C513.991 54.668 513.859 54.536 513.755 54.376C513.651 54.216 513.599 54.012 513.599 53.764C513.599 53.548 513.663 53.344 513.791 53.152C513.919 52.952 514.079 52.784 514.271 52.648V52.6C514.063 52.456 513.875 52.252 513.707 51.988C513.547 51.716 513.467 51.404 513.467 51.052C513.467 50.692 513.535 50.38 513.671 50.116C513.807 49.844 513.987 49.62 514.211 49.444C514.443 49.26 514.707 49.124 515.003 49.036C515.299 48.948 515.607 48.904 515.927 48.904C516.279 48.904 516.587 48.952 516.851 49.048H519.023V50.332H518.075C518.131 50.42 518.175 50.532 518.207 50.668C518.247 50.804 518.267 50.952 518.267 51.112C518.267 51.456 518.207 51.756 518.087 52.012C517.967 52.26 517.799 52.468 517.583 52.636C517.375 52.796 517.127 52.916 516.839 52.996C516.559 53.076 516.255 53.116 515.927 53.116C515.695 53.116 515.455 53.076 515.207 52.996C515.127 53.06 515.071 53.124 515.039 53.188C515.007 53.252 514.991 53.336 514.991 53.44C514.991 53.592 515.055 53.704 515.183 53.776C515.319 53.848 515.555 53.884 515.891 53.884H516.851C517.587 53.884 518.147 54.004 518.531 54.244C518.923 54.476 519.119 54.86 519.119 55.396C519.119 55.708 519.039 55.992 518.879 56.248C518.727 56.512 518.507 56.736 518.219 56.92C517.931 57.112 517.583 57.26 517.175 57.364C516.767 57.476 516.307 57.532 515.795 57.532ZM515.927 52.048C516.159 52.048 516.351 51.968 516.503 51.808C516.663 51.64 516.743 51.388 516.743 51.052C516.743 50.74 516.663 50.504 516.503 50.344C516.351 50.176 516.159 50.092 515.927 50.092C515.695 50.092 515.499 50.172 515.339 50.332C515.187 50.492 515.111 50.732 515.111 51.052C515.111 51.388 515.187 51.64 515.339 51.808C515.499 51.968 515.695 52.048 515.927 52.048ZM516.071 56.428C516.471 56.428 516.799 56.356 517.055 56.212C517.311 56.076 517.439 55.904 517.439 55.696C517.439 55.512 517.359 55.388 517.199 55.324C517.047 55.26 516.823 55.228 516.527 55.228H515.915C515.707 55.228 515.539 55.22 515.411 55.204C515.283 55.196 515.171 55.18 515.075 55.156C514.859 55.348 514.751 55.544 514.751 55.744C514.751 55.968 514.871 56.136 515.111 56.248C515.351 56.368 515.671 56.428 516.071 56.428ZM520.619 57.112L520.007 56.824C520.471 56.056 520.815 55.236 521.039 54.364C521.271 53.484 521.387 52.584 521.387 51.664C521.387 50.744 521.271 49.848 521.039 48.976C520.815 48.096 520.471 47.272 520.007 46.504L520.619 46.216C521.115 47.024 521.503 47.872 521.783 48.76C522.063 49.64 522.203 50.608 522.203 51.664C522.203 52.72 522.063 53.692 521.783 54.58C521.503 55.468 521.115 56.312 520.619 57.112Z" fill="#03060C"/>
</svg>
