<svg width="242" height="346" viewBox="0 0 242 346" fill="none" xmlns="http://www.w3.org/2000/svg">
<rect width="242" height="346" rx="4" fill="#22262E"/>
<path d="M17.08 74V66.128H19.324C19.764 66.128 20.164 66.168 20.524 66.248C20.892 66.328 21.204 66.46 21.46 66.644C21.716 66.82 21.916 67.056 22.06 67.352C22.204 67.648 22.276 68.012 22.276 68.444C22.276 68.86 22.204 69.22 22.06 69.524C21.924 69.828 21.728 70.08 21.472 70.28C21.216 70.48 20.908 70.632 20.548 70.736C20.196 70.832 19.804 70.88 19.372 70.88H18.076V74H17.08ZM18.076 70.064H19.252C19.94 70.064 20.448 69.936 20.776 69.68C21.112 69.416 21.28 69.004 21.28 68.444C21.28 67.876 21.104 67.484 20.752 67.268C20.408 67.044 19.892 66.932 19.204 66.932H18.076V70.064ZM24.0309 74V68.168H24.8469L24.9309 69.224H24.9669C25.1669 68.856 25.4069 68.564 25.6869 68.348C25.9749 68.132 26.2869 68.024 26.6229 68.024C26.8549 68.024 27.0629 68.064 27.2469 68.144L27.0549 69.008C26.9589 68.976 26.8709 68.952 26.7909 68.936C26.7109 68.92 26.6109 68.912 26.4909 68.912C26.2429 68.912 25.9829 69.012 25.7109 69.212C25.4469 69.412 25.2149 69.76 25.0149 70.256V74H24.0309ZM30.5918 74.144C30.2318 74.144 29.8878 74.076 29.5598 73.94C29.2398 73.804 28.9558 73.608 28.7078 73.352C28.4598 73.088 28.2598 72.768 28.1078 72.392C27.9638 72.008 27.8918 71.576 27.8918 71.096C27.8918 70.608 27.9638 70.176 28.1078 69.8C28.2598 69.416 28.4598 69.092 28.7078 68.828C28.9558 68.564 29.2398 68.364 29.5598 68.228C29.8878 68.092 30.2318 68.024 30.5918 68.024C30.9518 68.024 31.2918 68.092 31.6118 68.228C31.9398 68.364 32.2278 68.564 32.4758 68.828C32.7238 69.092 32.9198 69.416 33.0638 69.8C33.2158 70.176 33.2918 70.608 33.2918 71.096C33.2918 71.576 33.2158 72.008 33.0638 72.392C32.9198 72.768 32.7238 73.088 32.4758 73.352C32.2278 73.608 31.9398 73.804 31.6118 73.94C31.2918 74.076 30.9518 74.144 30.5918 74.144ZM30.5918 73.328C30.8398 73.328 31.0678 73.276 31.2758 73.172C31.4838 73.06 31.6598 72.908 31.8038 72.716C31.9558 72.516 32.0718 72.28 32.1518 72.008C32.2318 71.736 32.2718 71.432 32.2718 71.096C32.2718 70.76 32.2318 70.456 32.1518 70.184C32.0718 69.904 31.9558 69.664 31.8038 69.464C31.6598 69.264 31.4838 69.112 31.2758 69.008C31.0678 68.896 30.8398 68.84 30.5918 68.84C30.3438 68.84 30.1158 68.896 29.9078 69.008C29.6998 69.112 29.5198 69.264 29.3678 69.464C29.2238 69.664 29.1118 69.904 29.0318 70.184C28.9518 70.456 28.9118 70.76 28.9118 71.096C28.9118 71.432 28.9518 71.736 29.0318 72.008C29.1118 72.28 29.2238 72.516 29.3678 72.716C29.5198 72.908 29.6998 73.06 29.9078 73.172C30.1158 73.276 30.3438 73.328 30.5918 73.328ZM35.0778 76.46V68.168H35.8938L35.9778 68.84H36.0138C36.2778 68.616 36.5658 68.424 36.8778 68.264C37.1978 68.104 37.5298 68.024 37.8738 68.024C38.2498 68.024 38.5818 68.096 38.8698 68.24C39.1578 68.376 39.3978 68.576 39.5898 68.84C39.7818 69.096 39.9258 69.408 40.0218 69.776C40.1258 70.136 40.1778 70.544 40.1778 71C40.1778 71.496 40.1098 71.94 39.9738 72.332C39.8378 72.716 39.6538 73.044 39.4218 73.316C39.1898 73.588 38.9218 73.796 38.6178 73.94C38.3138 74.076 37.9938 74.144 37.6578 74.144C37.3858 74.144 37.1138 74.084 36.8418 73.964C36.5778 73.844 36.3098 73.68 36.0378 73.472L36.0618 74.492V76.46H35.0778ZM37.4898 73.316C37.7298 73.316 37.9498 73.264 38.1498 73.16C38.3578 73.048 38.5338 72.896 38.6778 72.704C38.8298 72.504 38.9458 72.26 39.0258 71.972C39.1138 71.684 39.1578 71.36 39.1578 71C39.1578 70.68 39.1298 70.388 39.0738 70.124C39.0178 69.86 38.9258 69.636 38.7978 69.452C38.6778 69.26 38.5178 69.112 38.3178 69.008C38.1258 68.904 37.8938 68.852 37.6217 68.852C37.3738 68.852 37.1218 68.92 36.8658 69.056C36.6178 69.192 36.3498 69.388 36.0618 69.644V72.704C36.3258 72.928 36.5818 73.088 36.8298 73.184C37.0778 73.272 37.2978 73.316 37.4898 73.316ZM44.348 74.144C43.956 74.144 43.588 74.076 43.244 73.94C42.908 73.796 42.612 73.596 42.356 73.34C42.108 73.076 41.912 72.756 41.768 72.38C41.624 72.004 41.552 71.576 41.552 71.096C41.552 70.616 41.624 70.188 41.768 69.812C41.92 69.428 42.116 69.104 42.356 68.84C42.604 68.576 42.884 68.376 43.196 68.24C43.508 68.096 43.832 68.024 44.168 68.024C44.536 68.024 44.864 68.088 45.152 68.216C45.448 68.344 45.692 68.528 45.884 68.768C46.084 69.008 46.236 69.296 46.34 69.632C46.444 69.968 46.496 70.344 46.496 70.76C46.496 70.864 46.492 70.968 46.484 71.072C46.484 71.168 46.476 71.252 46.46 71.324H42.524C42.564 71.948 42.756 72.444 43.1 72.812C43.452 73.172 43.908 73.352 44.468 73.352C44.748 73.352 45.004 73.312 45.236 73.232C45.476 73.144 45.704 73.032 45.92 72.896L46.268 73.544C46.012 73.704 45.728 73.844 45.416 73.964C45.104 74.084 44.748 74.144 44.348 74.144ZM42.512 70.616H45.632C45.632 70.024 45.504 69.576 45.248 69.272C45 68.96 44.648 68.804 44.192 68.804C43.984 68.804 43.784 68.844 43.592 68.924C43.408 69.004 43.24 69.124 43.088 69.284C42.936 69.436 42.808 69.624 42.704 69.848C42.608 70.072 42.544 70.328 42.512 70.616ZM48.1871 74V68.168H49.0031L49.0871 69.224H49.1231C49.3231 68.856 49.5631 68.564 49.8431 68.348C50.1311 68.132 50.4431 68.024 50.7791 68.024C51.0111 68.024 51.2191 68.064 51.4031 68.144L51.2111 69.008C51.1151 68.976 51.0271 68.952 50.9471 68.936C50.8671 68.92 50.7671 68.912 50.6471 68.912C50.3991 68.912 50.1391 69.012 49.8671 69.212C49.6031 69.412 49.3711 69.76 49.1711 70.256V74H48.1871ZM54.4333 74.144C54.1213 74.144 53.8573 74.096 53.6413 74C53.4333 73.904 53.2613 73.772 53.1253 73.604C52.9973 73.436 52.9053 73.232 52.8493 72.992C52.7933 72.752 52.7653 72.488 52.7653 72.2V68.972H51.9013V68.228L52.8133 68.168L52.9333 66.536H53.7613V68.168H55.3333V68.972H53.7613V72.212C53.7613 72.572 53.8253 72.852 53.9533 73.052C54.0893 73.244 54.3253 73.34 54.6613 73.34C54.7653 73.34 54.8773 73.324 54.9973 73.292C55.1173 73.26 55.2253 73.224 55.3213 73.184L55.5133 73.928C55.3533 73.984 55.1773 74.032 54.9853 74.072C54.8013 74.12 54.6173 74.144 54.4333 74.144ZM56.998 76.508C56.862 76.508 56.738 76.496 56.626 76.472C56.514 76.456 56.41 76.428 56.314 76.388L56.506 75.608C56.57 75.624 56.642 75.64 56.722 75.656C56.802 75.68 56.878 75.692 56.95 75.692C57.286 75.692 57.558 75.572 57.766 75.332C57.982 75.1 58.15 74.804 58.27 74.444L58.402 74.012L56.062 68.168H57.082L58.27 71.396C58.358 71.652 58.45 71.924 58.546 72.212C58.65 72.492 58.746 72.768 58.834 73.04H58.882C58.97 72.776 59.054 72.5 59.134 72.212C59.214 71.924 59.294 71.652 59.374 71.396L60.418 68.168H61.378L59.182 74.48C59.078 74.768 58.962 75.036 58.834 75.284C58.706 75.532 58.554 75.744 58.378 75.92C58.202 76.104 58.002 76.248 57.778 76.352C57.554 76.456 57.294 76.508 56.998 76.508Z" fill="#AFBED1"/>
<path d="M20.752 104.192C20.3893 104.192 20.0107 104.107 19.616 103.936C19.232 103.755 18.8693 103.509 18.528 103.2H18.48L18.368 104H17.312V92.608H18.624V95.712L18.592 97.12C18.944 96.8107 19.328 96.5547 19.744 96.352C20.16 96.1387 20.5867 96.032 21.024 96.032C21.5253 96.032 21.968 96.128 22.352 96.32C22.736 96.5013 23.056 96.768 23.312 97.12C23.5787 97.4613 23.776 97.8773 23.904 98.368C24.0427 98.848 24.112 99.3867 24.112 99.984C24.112 100.645 24.0213 101.237 23.84 101.76C23.6587 102.283 23.4133 102.725 23.104 103.088C22.7947 103.451 22.4373 103.728 22.032 103.92C21.6267 104.101 21.2 104.192 20.752 104.192ZM20.528 103.088C20.848 103.088 21.1413 103.019 21.408 102.88C21.6853 102.731 21.92 102.528 22.112 102.272C22.3147 102.005 22.4693 101.68 22.576 101.296C22.6933 100.912 22.752 100.48 22.752 100C22.752 99.5733 22.7147 99.184 22.64 98.832C22.5653 98.48 22.4427 98.1813 22.272 97.936C22.112 97.68 21.8987 97.4827 21.632 97.344C21.376 97.2053 21.0667 97.136 20.704 97.136C20.0747 97.136 19.3813 97.488 18.624 98.192V102.272C18.9653 102.571 19.3013 102.784 19.632 102.912C19.9733 103.029 20.272 103.088 20.528 103.088ZM27.979 104.192C27.3283 104.192 26.7843 104 26.347 103.616C25.9203 103.232 25.707 102.688 25.707 101.984C25.707 101.131 26.0857 100.48 26.843 100.032C27.6003 99.5733 28.811 99.2533 30.475 99.072C30.475 98.8267 30.4483 98.5867 30.395 98.352C30.3523 98.1173 30.2723 97.9093 30.155 97.728C30.0377 97.5467 29.8723 97.4027 29.659 97.296C29.4563 97.1787 29.195 97.12 28.875 97.12C28.427 97.12 28.0057 97.2053 27.611 97.376C27.2163 97.5467 26.8643 97.7387 26.555 97.952L26.043 97.04C26.4057 96.8053 26.8483 96.5813 27.371 96.368C27.8937 96.144 28.4697 96.032 29.099 96.032C30.0483 96.032 30.7363 96.3253 31.163 96.912C31.5897 97.488 31.803 98.2613 31.803 99.232V104H30.715L30.603 103.072H30.555C30.1817 103.381 29.7817 103.648 29.355 103.872C28.9283 104.085 28.4697 104.192 27.979 104.192ZM28.363 103.136C28.7363 103.136 29.0883 103.051 29.419 102.88C29.7497 102.699 30.1017 102.437 30.475 102.096V99.936C29.8243 100.021 29.275 100.123 28.827 100.24C28.3897 100.357 28.0323 100.496 27.755 100.656C27.4883 100.816 27.291 101.003 27.163 101.216C27.0457 101.419 26.987 101.643 26.987 101.888C26.987 102.336 27.1203 102.656 27.387 102.848C27.6537 103.04 27.979 103.136 28.363 103.136ZM37.5715 104.192C37.0595 104.192 36.5795 104.101 36.1315 103.92C35.6835 103.739 35.2942 103.477 34.9635 103.136C34.6435 102.784 34.3875 102.357 34.1955 101.856C34.0142 101.344 33.9235 100.768 33.9235 100.128C33.9235 99.4773 34.0248 98.9013 34.2275 98.4C34.4302 97.888 34.7022 97.456 35.0435 97.104C35.3848 96.752 35.7795 96.4853 36.2275 96.304C36.6862 96.1227 37.1662 96.032 37.6675 96.032C38.1795 96.032 38.6168 96.1227 38.9795 96.304C39.3422 96.4853 39.6622 96.6987 39.9395 96.944L39.2675 97.808C39.0435 97.6053 38.8035 97.44 38.5475 97.312C38.3022 97.184 38.0248 97.12 37.7155 97.12C37.3635 97.12 37.0382 97.1947 36.7395 97.344C36.4408 97.4827 36.1848 97.6853 35.9715 97.952C35.7582 98.2187 35.5875 98.5387 35.4595 98.912C35.3422 99.2747 35.2835 99.68 35.2835 100.128C35.2835 100.576 35.3422 100.981 35.4595 101.344C35.5768 101.707 35.7368 102.021 35.9395 102.288C36.1528 102.544 36.4088 102.747 36.7075 102.896C37.0062 103.035 37.3315 103.104 37.6835 103.104C38.0462 103.104 38.3768 103.029 38.6755 102.88C38.9848 102.72 39.2622 102.533 39.5075 102.32L40.0835 103.2C39.7315 103.509 39.3422 103.755 38.9155 103.936C38.4888 104.107 38.0408 104.192 37.5715 104.192ZM42.0464 104V92.608H43.3424V100.32H43.3904L46.7024 96.224H48.1584L45.5504 99.344L48.5104 104H47.0704L44.7984 100.256L43.3424 101.952V104H42.0464ZM52.686 107.584C52.206 107.584 51.7687 107.536 51.374 107.44C50.9793 107.355 50.638 107.221 50.35 107.04C50.0727 106.859 49.854 106.64 49.694 106.384C49.5447 106.128 49.47 105.829 49.47 105.488C49.47 105.157 49.5713 104.843 49.774 104.544C49.9767 104.245 50.254 103.973 50.606 103.728V103.664C50.414 103.547 50.2487 103.387 50.11 103.184C49.982 102.971 49.918 102.709 49.918 102.4C49.918 102.069 50.0087 101.781 50.19 101.536C50.3713 101.291 50.5633 101.099 50.766 100.96V100.896C50.51 100.683 50.2753 100.4 50.062 100.048C49.8593 99.6853 49.758 99.2693 49.758 98.8C49.758 98.3733 49.8327 97.9893 49.982 97.648C50.142 97.3067 50.3553 97.0187 50.622 96.784C50.8887 96.5387 51.198 96.352 51.55 96.224C51.9127 96.096 52.2913 96.032 52.686 96.032C52.8993 96.032 53.0967 96.0533 53.278 96.096C53.47 96.128 53.6407 96.1707 53.79 96.224H56.494V97.232H54.894C55.0753 97.4133 55.2247 97.6427 55.342 97.92C55.47 98.1973 55.534 98.5013 55.534 98.832C55.534 99.248 55.4593 99.6267 55.31 99.968C55.1607 100.299 54.958 100.581 54.702 100.816C54.446 101.04 54.142 101.216 53.79 101.344C53.4487 101.472 53.0807 101.536 52.686 101.536C52.494 101.536 52.2967 101.515 52.094 101.472C51.8913 101.419 51.6993 101.349 51.518 101.264C51.3793 101.381 51.262 101.515 51.166 101.664C51.07 101.803 51.022 101.979 51.022 102.192C51.022 102.437 51.118 102.64 51.31 102.8C51.502 102.96 51.8647 103.04 52.398 103.04H53.902C54.8087 103.04 55.486 103.189 55.934 103.488C56.3927 103.776 56.622 104.245 56.622 104.896C56.622 105.259 56.5313 105.6 56.35 105.92C56.1687 106.251 55.9073 106.539 55.566 106.784C55.2247 107.029 54.8087 107.221 54.318 107.36C53.838 107.509 53.294 107.584 52.686 107.584ZM52.686 100.656C52.91 100.656 53.118 100.613 53.31 100.528C53.5127 100.443 53.6887 100.32 53.838 100.16C53.998 100 54.1207 99.808 54.206 99.584C54.2913 99.3493 54.334 99.088 54.334 98.8C54.334 98.224 54.174 97.7813 53.854 97.472C53.534 97.152 53.1447 96.992 52.686 96.992C52.2273 96.992 51.838 97.152 51.518 97.472C51.198 97.7813 51.038 98.224 51.038 98.8C51.038 99.088 51.0807 99.3493 51.166 99.584C51.2513 99.808 51.3687 100 51.518 100.16C51.678 100.32 51.854 100.443 52.046 100.528C52.2487 100.613 52.462 100.656 52.686 100.656ZM52.878 106.672C53.2513 106.672 53.5873 106.624 53.886 106.528C54.1953 106.443 54.4567 106.325 54.67 106.176C54.8833 106.037 55.0487 105.872 55.166 105.68C55.2833 105.488 55.342 105.291 55.342 105.088C55.342 104.725 55.2087 104.475 54.942 104.336C54.6753 104.197 54.286 104.128 53.774 104.128H52.43C52.2807 104.128 52.1153 104.117 51.934 104.096C51.7633 104.085 51.5927 104.053 51.422 104C51.1447 104.203 50.942 104.416 50.814 104.64C50.686 104.864 50.622 105.088 50.622 105.312C50.622 105.728 50.8193 106.059 51.214 106.304C51.6193 106.549 52.174 106.672 52.878 106.672ZM58.3745 104V96.224H59.4625L59.5745 97.632H59.6225C59.8892 97.1413 60.2092 96.752 60.5825 96.464C60.9665 96.176 61.3825 96.032 61.8305 96.032C62.1398 96.032 62.4172 96.0853 62.6625 96.192L62.4065 97.344C62.2785 97.3013 62.1612 97.2693 62.0545 97.248C61.9478 97.2267 61.8145 97.216 61.6545 97.216C61.3238 97.216 60.9772 97.3493 60.6145 97.616C60.2625 97.8827 59.9532 98.3467 59.6865 99.008V104H58.3745ZM67.0391 104.192C66.5591 104.192 66.1005 104.101 65.6631 103.92C65.2365 103.739 64.8578 103.477 64.5271 103.136C64.1965 102.784 63.9298 102.357 63.7271 101.856C63.5351 101.344 63.4391 100.768 63.4391 100.128C63.4391 99.4773 63.5351 98.9013 63.7271 98.4C63.9298 97.888 64.1965 97.456 64.5271 97.104C64.8578 96.752 65.2365 96.4853 65.6631 96.304C66.1005 96.1227 66.5591 96.032 67.0391 96.032C67.5191 96.032 67.9725 96.1227 68.3991 96.304C68.8365 96.4853 69.2205 96.752 69.5511 97.104C69.8818 97.456 70.1431 97.888 70.3351 98.4C70.5378 98.9013 70.6391 99.4773 70.6391 100.128C70.6391 100.768 70.5378 101.344 70.3351 101.856C70.1431 102.357 69.8818 102.784 69.5511 103.136C69.2205 103.477 68.8365 103.739 68.3991 103.92C67.9725 104.101 67.5191 104.192 67.0391 104.192ZM67.0391 103.104C67.3698 103.104 67.6738 103.035 67.9511 102.896C68.2285 102.747 68.4631 102.544 68.6551 102.288C68.8578 102.021 69.0125 101.707 69.1191 101.344C69.2258 100.981 69.2791 100.576 69.2791 100.128C69.2791 99.68 69.2258 99.2747 69.1191 98.912C69.0125 98.5387 68.8578 98.2187 68.6551 97.952C68.4631 97.6853 68.2285 97.4827 67.9511 97.344C67.6738 97.1947 67.3698 97.12 67.0391 97.12C66.7085 97.12 66.4045 97.1947 66.1271 97.344C65.8498 97.4827 65.6098 97.6853 65.4071 97.952C65.2151 98.2187 65.0658 98.5387 64.9591 98.912C64.8525 99.2747 64.7991 99.68 64.7991 100.128C64.7991 100.576 64.8525 100.981 64.9591 101.344C65.0658 101.707 65.2151 102.021 65.4071 102.288C65.6098 102.544 65.8498 102.747 66.1271 102.896C66.4045 103.035 66.7085 103.104 67.0391 103.104ZM75.209 104.192C74.377 104.192 73.769 103.936 73.385 103.424C73.0117 102.912 72.825 102.155 72.825 101.152V96.224H74.153V100.976C74.153 101.712 74.265 102.245 74.489 102.576C74.7237 102.896 75.097 103.056 75.609 103.056C76.0143 103.056 76.3717 102.955 76.681 102.752C76.9903 102.539 77.3317 102.203 77.705 101.744V96.224H79.017V104H77.929L77.817 102.784H77.769C77.4063 103.211 77.0223 103.552 76.617 103.808C76.2223 104.064 75.753 104.192 75.209 104.192ZM81.8901 104V96.224H82.9781L83.0901 97.344H83.1381C83.5115 96.9707 83.9008 96.6613 84.3061 96.416C84.7221 96.16 85.2021 96.032 85.7461 96.032C86.5675 96.032 87.1648 96.288 87.5381 96.8C87.9221 97.312 88.1141 98.0693 88.1141 99.072V104H86.8021V99.248C86.8021 98.512 86.6848 97.984 86.4501 97.664C86.2155 97.3333 85.8421 97.168 85.3301 97.168C84.9248 97.168 84.5675 97.2693 84.2581 97.472C83.9488 97.6747 83.5968 97.9733 83.2021 98.368V104H81.8901ZM93.5461 104.192C92.5648 104.192 91.7808 103.84 91.1941 103.136C90.6181 102.432 90.3301 101.429 90.3301 100.128C90.3301 99.4987 90.4208 98.9333 90.6021 98.432C90.7941 97.92 91.0448 97.488 91.3541 97.136C91.6635 96.784 92.0208 96.512 92.4261 96.32C92.8315 96.128 93.2581 96.032 93.7061 96.032C94.1541 96.032 94.5435 96.112 94.8741 96.272C95.2048 96.432 95.5408 96.6507 95.8821 96.928L95.8181 95.6V92.608H97.1461V104H96.0581L95.9461 103.088H95.8981C95.5888 103.387 95.2315 103.648 94.8261 103.872C94.4315 104.085 94.0048 104.192 93.5461 104.192ZM93.8341 103.088C94.1968 103.088 94.5381 103.003 94.8581 102.832C95.1781 102.651 95.4981 102.379 95.8181 102.016V97.952C95.4875 97.6533 95.1675 97.4453 94.8581 97.328C94.5595 97.2 94.2501 97.136 93.9301 97.136C93.6208 97.136 93.3275 97.2107 93.0501 97.36C92.7835 97.4987 92.5488 97.7013 92.3461 97.968C92.1435 98.224 91.9835 98.5333 91.8661 98.896C91.7488 99.2587 91.6901 99.664 91.6901 100.112C91.6901 101.051 91.8768 101.781 92.2501 102.304C92.6235 102.827 93.1515 103.088 93.8341 103.088Z" fill="#F8FAFF"/>
<path d="M17.08 292V284.128H19.048C20.264 284.128 21.188 284.464 21.82 285.136C22.452 285.808 22.768 286.772 22.768 288.028C22.768 288.652 22.688 289.212 22.528 289.708C22.368 290.196 22.132 290.612 21.82 290.956C21.508 291.292 21.124 291.552 20.668 291.736C20.212 291.912 19.688 292 19.096 292H17.08ZM18.076 291.184H18.976C19.896 291.184 20.584 290.908 21.04 290.356C21.504 289.804 21.736 289.028 21.736 288.028C21.736 287.028 21.504 286.264 21.04 285.736C20.584 285.208 19.896 284.944 18.976 284.944H18.076V291.184ZM26.9808 292.144C26.5888 292.144 26.2208 292.076 25.8768 291.94C25.5408 291.796 25.2448 291.596 24.9888 291.34C24.7408 291.076 24.5448 290.756 24.4008 290.38C24.2568 290.004 24.1848 289.576 24.1848 289.096C24.1848 288.616 24.2568 288.188 24.4008 287.812C24.5528 287.428 24.7488 287.104 24.9888 286.84C25.2368 286.576 25.5168 286.376 25.8288 286.24C26.1408 286.096 26.4648 286.024 26.8008 286.024C27.1688 286.024 27.4968 286.088 27.7848 286.216C28.0808 286.344 28.3248 286.528 28.5168 286.768C28.7168 287.008 28.8688 287.296 28.9728 287.632C29.0768 287.968 29.1288 288.344 29.1288 288.76C29.1288 288.864 29.1248 288.968 29.1168 289.072C29.1168 289.168 29.1088 289.252 29.0928 289.324H25.1568C25.1968 289.948 25.3888 290.444 25.7328 290.812C26.0848 291.172 26.5408 291.352 27.1008 291.352C27.3808 291.352 27.6368 291.312 27.8688 291.232C28.1088 291.144 28.3368 291.032 28.5528 290.896L28.9008 291.544C28.6448 291.704 28.3608 291.844 28.0488 291.964C27.7368 292.084 27.3808 292.144 26.9808 292.144ZM25.1448 288.616H28.2648C28.2648 288.024 28.1368 287.576 27.8808 287.272C27.6328 286.96 27.2808 286.804 26.8248 286.804C26.6168 286.804 26.4168 286.844 26.2248 286.924C26.0408 287.004 25.8728 287.124 25.7208 287.284C25.5688 287.436 25.4408 287.624 25.3368 287.848C25.2408 288.072 25.1768 288.328 25.1448 288.616ZM31.8639 292.144C31.4879 292.144 31.2199 292.032 31.0599 291.808C30.8999 291.584 30.8199 291.256 30.8199 290.824V283.456H31.8039V290.896C31.8039 291.056 31.8319 291.168 31.8879 291.232C31.9439 291.296 32.0079 291.328 32.0799 291.328C32.1119 291.328 32.1399 291.328 32.1639 291.328C32.1959 291.328 32.2399 291.32 32.2959 291.304L32.4279 292.048C32.3639 292.08 32.2879 292.104 32.1999 292.12C32.1119 292.136 31.9999 292.144 31.8639 292.144ZM35.4725 292.144C34.9845 292.144 34.5765 292 34.2485 291.712C33.9285 291.424 33.7685 291.016 33.7685 290.488C33.7685 289.848 34.0525 289.36 34.6205 289.024C35.1885 288.68 36.0965 288.44 37.3445 288.304C37.3445 288.12 37.3245 287.94 37.2845 287.764C37.2525 287.588 37.1925 287.432 37.1045 287.296C37.0165 287.16 36.8925 287.052 36.7325 286.972C36.5805 286.884 36.3845 286.84 36.1445 286.84C35.8085 286.84 35.4925 286.904 35.1965 287.032C34.9005 287.16 34.6365 287.304 34.4045 287.464L34.0205 286.78C34.2925 286.604 34.6245 286.436 35.0165 286.276C35.4085 286.108 35.8405 286.024 36.3125 286.024C37.0245 286.024 37.5405 286.244 37.8605 286.684C38.1805 287.116 38.3405 287.696 38.3405 288.424V292H37.5245L37.4405 291.304H37.4045C37.1245 291.536 36.8245 291.736 36.5045 291.904C36.1845 292.064 35.8405 292.144 35.4725 292.144ZM35.7605 291.352C36.0405 291.352 36.3045 291.288 36.5525 291.16C36.8005 291.024 37.0645 290.828 37.3445 290.572V288.952C36.8565 289.016 36.4445 289.092 36.1085 289.18C35.7805 289.268 35.5125 289.372 35.3045 289.492C35.1045 289.612 34.9565 289.752 34.8605 289.912C34.7725 290.064 34.7285 290.232 34.7285 290.416C34.7285 290.752 34.8285 290.992 35.0285 291.136C35.2285 291.28 35.4725 291.352 35.7605 291.352ZM40.5214 294.508C40.3854 294.508 40.2614 294.496 40.1494 294.472C40.0374 294.456 39.9334 294.428 39.8374 294.388L40.0294 293.608C40.0934 293.624 40.1654 293.64 40.2454 293.656C40.3254 293.68 40.4014 293.692 40.4734 293.692C40.8094 293.692 41.0814 293.572 41.2894 293.332C41.5054 293.1 41.6734 292.804 41.7934 292.444L41.9254 292.012L39.5854 286.168H40.6054L41.7934 289.396C41.8814 289.652 41.9734 289.924 42.0694 290.212C42.1734 290.492 42.2694 290.768 42.3574 291.04H42.4054C42.4934 290.776 42.5774 290.5 42.6574 290.212C42.7374 289.924 42.8174 289.652 42.8974 289.396L43.9414 286.168H44.9014L42.7054 292.48C42.6014 292.768 42.4854 293.036 42.3574 293.284C42.2294 293.532 42.0774 293.744 41.9014 293.92C41.7254 294.104 41.5254 294.248 41.3014 294.352C41.0774 294.456 40.8174 294.508 40.5214 294.508Z" fill="#AFBED1"/>
<path d="M17.08 220V212.128H19.048C20.264 212.128 21.188 212.464 21.82 213.136C22.452 213.808 22.768 214.772 22.768 216.028C22.768 216.652 22.688 217.212 22.528 217.708C22.368 218.196 22.132 218.612 21.82 218.956C21.508 219.292 21.124 219.552 20.668 219.736C20.212 219.912 19.688 220 19.096 220H17.08ZM18.076 219.184H18.976C19.896 219.184 20.584 218.908 21.04 218.356C21.504 217.804 21.736 217.028 21.736 216.028C21.736 215.028 21.504 214.264 21.04 213.736C20.584 213.208 19.896 212.944 18.976 212.944H18.076V219.184ZM26.3208 220.144C25.6968 220.144 25.2408 219.952 24.9528 219.568C24.6728 219.184 24.5328 218.616 24.5328 217.864V214.168H25.5288V217.732C25.5288 218.284 25.6128 218.684 25.7808 218.932C25.9568 219.172 26.2368 219.292 26.6208 219.292C26.9248 219.292 27.1928 219.216 27.4248 219.064C27.6568 218.904 27.9128 218.652 28.1928 218.308V214.168H29.1768V220H28.3608L28.2768 219.088H28.2408C27.9688 219.408 27.6808 219.664 27.3768 219.856C27.0808 220.048 26.7288 220.144 26.3208 220.144ZM31.3942 220V214.168H32.2102L32.2942 215.224H32.3302C32.5302 214.856 32.7702 214.564 33.0502 214.348C33.3382 214.132 33.6502 214.024 33.9862 214.024C34.2182 214.024 34.4262 214.064 34.6102 214.144L34.4182 215.008C34.3222 214.976 34.2342 214.952 34.1542 214.936C34.0742 214.92 33.9742 214.912 33.8542 214.912C33.6062 214.912 33.3462 215.012 33.0742 215.212C32.8102 215.412 32.5782 215.76 32.3782 216.256V220H31.3942ZM36.8553 220.144C36.3673 220.144 35.9593 220 35.6313 219.712C35.3113 219.424 35.1513 219.016 35.1513 218.488C35.1513 217.848 35.4353 217.36 36.0033 217.024C36.5713 216.68 37.4793 216.44 38.7273 216.304C38.7273 216.12 38.7073 215.94 38.6673 215.764C38.6353 215.588 38.5753 215.432 38.4873 215.296C38.3993 215.16 38.2753 215.052 38.1153 214.972C37.9633 214.884 37.7673 214.84 37.5273 214.84C37.1913 214.84 36.8753 214.904 36.5793 215.032C36.2833 215.16 36.0193 215.304 35.7873 215.464L35.4033 214.78C35.6753 214.604 36.0073 214.436 36.3993 214.276C36.7913 214.108 37.2233 214.024 37.6953 214.024C38.4073 214.024 38.9233 214.244 39.2433 214.684C39.5633 215.116 39.7233 215.696 39.7233 216.424V220H38.9073L38.8233 219.304H38.7873C38.5073 219.536 38.2073 219.736 37.8873 219.904C37.5673 220.064 37.2233 220.144 36.8553 220.144ZM37.1433 219.352C37.4233 219.352 37.6873 219.288 37.9353 219.16C38.1833 219.024 38.4473 218.828 38.7273 218.572V216.952C38.2393 217.016 37.8273 217.092 37.4913 217.18C37.1633 217.268 36.8953 217.372 36.6873 217.492C36.4873 217.612 36.3393 217.752 36.2433 217.912C36.1553 218.064 36.1113 218.232 36.1113 218.416C36.1113 218.752 36.2113 218.992 36.4113 219.136C36.6113 219.28 36.8553 219.352 37.1433 219.352ZM43.4802 220.144C43.1682 220.144 42.9042 220.096 42.6882 220C42.4802 219.904 42.3082 219.772 42.1722 219.604C42.0442 219.436 41.9522 219.232 41.8962 218.992C41.8402 218.752 41.8122 218.488 41.8122 218.2V214.972H40.9482V214.228L41.8602 214.168L41.9802 212.536H42.8082V214.168H44.3802V214.972H42.8082V218.212C42.8082 218.572 42.8722 218.852 43.0002 219.052C43.1362 219.244 43.3722 219.34 43.7082 219.34C43.8122 219.34 43.9242 219.324 44.0442 219.292C44.1642 219.26 44.2722 219.224 44.3682 219.184L44.5602 219.928C44.4002 219.984 44.2242 220.032 44.0322 220.072C43.8482 220.12 43.6642 220.144 43.4802 220.144ZM45.9488 220V214.168H46.9328V220H45.9488ZM46.4528 212.968C46.2608 212.968 46.0968 212.908 45.9608 212.788C45.8328 212.668 45.7688 212.516 45.7688 212.332C45.7688 212.14 45.8328 211.988 45.9608 211.876C46.0968 211.756 46.2608 211.696 46.4528 211.696C46.6448 211.696 46.8048 211.756 46.9328 211.876C47.0688 211.988 47.1368 212.14 47.1368 212.332C47.1368 212.516 47.0688 212.668 46.9328 212.788C46.8048 212.908 46.6448 212.968 46.4528 212.968ZM51.42 220.144C51.06 220.144 50.716 220.076 50.388 219.94C50.068 219.804 49.784 219.608 49.536 219.352C49.288 219.088 49.088 218.768 48.936 218.392C48.792 218.008 48.72 217.576 48.72 217.096C48.72 216.608 48.792 216.176 48.936 215.8C49.088 215.416 49.288 215.092 49.536 214.828C49.784 214.564 50.068 214.364 50.388 214.228C50.716 214.092 51.06 214.024 51.42 214.024C51.78 214.024 52.12 214.092 52.44 214.228C52.768 214.364 53.056 214.564 53.304 214.828C53.552 215.092 53.748 215.416 53.892 215.8C54.044 216.176 54.12 216.608 54.12 217.096C54.12 217.576 54.044 218.008 53.892 218.392C53.748 218.768 53.552 219.088 53.304 219.352C53.056 219.608 52.768 219.804 52.44 219.94C52.12 220.076 51.78 220.144 51.42 220.144ZM51.42 219.328C51.668 219.328 51.896 219.276 52.104 219.172C52.312 219.06 52.488 218.908 52.632 218.716C52.784 218.516 52.9 218.28 52.98 218.008C53.06 217.736 53.1 217.432 53.1 217.096C53.1 216.76 53.06 216.456 52.98 216.184C52.9 215.904 52.784 215.664 52.632 215.464C52.488 215.264 52.312 215.112 52.104 215.008C51.896 214.896 51.668 214.84 51.42 214.84C51.172 214.84 50.944 214.896 50.736 215.008C50.528 215.112 50.348 215.264 50.196 215.464C50.052 215.664 49.94 215.904 49.86 216.184C49.78 216.456 49.74 216.76 49.74 217.096C49.74 217.432 49.78 217.736 49.86 218.008C49.94 218.28 50.052 218.516 50.196 218.716C50.348 218.908 50.528 219.06 50.736 219.172C50.944 219.276 51.172 219.328 51.42 219.328ZM55.9059 220V214.168H56.7219L56.8059 215.008H56.8419C57.1219 214.728 57.4139 214.496 57.7179 214.312C58.0299 214.12 58.3899 214.024 58.7979 214.024C59.4139 214.024 59.8619 214.216 60.1419 214.6C60.4299 214.984 60.5739 215.552 60.5739 216.304V220H59.5899V216.436C59.5899 215.884 59.5019 215.488 59.3259 215.248C59.1499 215 58.8699 214.876 58.4859 214.876C58.1819 214.876 57.9139 214.952 57.6819 215.104C57.4499 215.256 57.1859 215.48 56.8899 215.776V220H55.9059Z" fill="#AFBED1"/>
<path d="M18.712 148V140.968H16.336V140.128H22.096V140.968H19.72V148H18.712ZM23.6676 148V142.168H24.6516V148H23.6676ZM24.1716 140.968C23.9796 140.968 23.8156 140.908 23.6796 140.788C23.5516 140.668 23.4876 140.516 23.4876 140.332C23.4876 140.14 23.5516 139.988 23.6796 139.876C23.8156 139.756 23.9796 139.696 24.1716 139.696C24.3636 139.696 24.5236 139.756 24.6516 139.876C24.7876 139.988 24.8556 140.14 24.8556 140.332C24.8556 140.516 24.7876 140.668 24.6516 140.788C24.5236 140.908 24.3636 140.968 24.1716 140.968ZM26.8707 148V142.168H27.6867L27.7707 143.008H27.8067C28.0627 142.728 28.3387 142.496 28.6347 142.312C28.9387 142.12 29.2667 142.024 29.6187 142.024C30.0667 142.024 30.4147 142.124 30.6627 142.324C30.9187 142.516 31.1067 142.788 31.2267 143.14C31.5307 142.804 31.8347 142.536 32.1387 142.336C32.4507 142.128 32.7867 142.024 33.1467 142.024C33.7467 142.024 34.1907 142.216 34.4787 142.6C34.7747 142.984 34.9227 143.552 34.9227 144.304V148H33.9387V144.436C33.9387 143.884 33.8507 143.488 33.6747 143.248C33.4987 143 33.2267 142.876 32.8587 142.876C32.4187 142.876 31.9307 143.176 31.3947 143.776V148H30.4107V144.436C30.4107 143.884 30.3227 143.488 30.1467 143.248C29.9707 143 29.6947 142.876 29.3187 142.876C28.8787 142.876 28.3907 143.176 27.8547 143.776V148H26.8707ZM37.0699 148V142.168H38.0539V148H37.0699ZM37.5739 140.968C37.3819 140.968 37.2179 140.908 37.0819 140.788C36.9539 140.668 36.8899 140.516 36.8899 140.332C36.8899 140.14 36.9539 139.988 37.0819 139.876C37.2179 139.756 37.3819 139.696 37.5739 139.696C37.7659 139.696 37.9259 139.756 38.0539 139.876C38.1899 139.988 38.2579 140.14 38.2579 140.332C38.2579 140.516 38.1899 140.668 38.0539 140.788C37.9259 140.908 37.7659 140.968 37.5739 140.968ZM40.2731 148V142.168H41.0891L41.1731 143.008H41.2091C41.4891 142.728 41.7811 142.496 42.0851 142.312C42.3971 142.12 42.7571 142.024 43.1651 142.024C43.7811 142.024 44.2291 142.216 44.5091 142.6C44.7971 142.984 44.9411 143.552 44.9411 144.304V148H43.9571V144.436C43.9571 143.884 43.8691 143.488 43.6931 143.248C43.5171 143 43.2371 142.876 42.8531 142.876C42.5491 142.876 42.2811 142.952 42.0491 143.104C41.8171 143.256 41.5531 143.48 41.2571 143.776V148H40.2731ZM49.0536 150.688C48.6936 150.688 48.3656 150.652 48.0696 150.58C47.7736 150.516 47.5176 150.416 47.3016 150.28C47.0936 150.144 46.9296 149.98 46.8096 149.788C46.6976 149.596 46.6416 149.372 46.6416 149.116C46.6416 148.868 46.7176 148.632 46.8696 148.408C47.0216 148.184 47.2296 147.98 47.4936 147.796V147.748C47.3496 147.66 47.2256 147.54 47.1216 147.388C47.0256 147.228 46.9776 147.032 46.9776 146.8C46.9776 146.552 47.0456 146.336 47.1816 146.152C47.3176 145.968 47.4616 145.824 47.6136 145.72V145.672C47.4216 145.512 47.2456 145.3 47.0856 145.036C46.9336 144.764 46.8576 144.452 46.8576 144.1C46.8576 143.78 46.9136 143.492 47.0256 143.236C47.1456 142.98 47.3056 142.764 47.5056 142.588C47.7056 142.404 47.9376 142.264 48.2016 142.168C48.4736 142.072 48.7576 142.024 49.0536 142.024C49.2136 142.024 49.3616 142.04 49.4976 142.072C49.6416 142.096 49.7696 142.128 49.8816 142.168H51.9096V142.924H50.7096C50.8456 143.06 50.9576 143.232 51.0456 143.44C51.1416 143.648 51.1896 143.876 51.1896 144.124C51.1896 144.436 51.1336 144.72 51.0216 144.976C50.9096 145.224 50.7576 145.436 50.5656 145.612C50.3736 145.78 50.1456 145.912 49.8816 146.008C49.6256 146.104 49.3496 146.152 49.0536 146.152C48.9096 146.152 48.7616 146.136 48.6096 146.104C48.4576 146.064 48.3136 146.012 48.1776 145.948C48.0736 146.036 47.9856 146.136 47.9136 146.248C47.8416 146.352 47.8056 146.484 47.8056 146.644C47.8056 146.828 47.8776 146.98 48.0216 147.1C48.1656 147.22 48.4376 147.28 48.8376 147.28H49.9656C50.6456 147.28 51.1536 147.392 51.4896 147.616C51.8336 147.832 52.0056 148.184 52.0056 148.672C52.0056 148.944 51.9376 149.2 51.8016 149.44C51.6656 149.688 51.4696 149.904 51.2136 150.088C50.9576 150.272 50.6456 150.416 50.2776 150.52C49.9176 150.632 49.5096 150.688 49.0536 150.688ZM49.0536 145.492C49.2216 145.492 49.3776 145.46 49.5216 145.396C49.6736 145.332 49.8056 145.24 49.9176 145.12C50.0376 145 50.1296 144.856 50.1936 144.688C50.2576 144.512 50.2896 144.316 50.2896 144.1C50.2896 143.668 50.1696 143.336 49.9296 143.104C49.6896 142.864 49.3976 142.744 49.0536 142.744C48.7096 142.744 48.4176 142.864 48.1776 143.104C47.9376 143.336 47.8176 143.668 47.8176 144.1C47.8176 144.316 47.8496 144.512 47.9136 144.688C47.9776 144.856 48.0656 145 48.1776 145.12C48.2976 145.24 48.4296 145.332 48.5736 145.396C48.7256 145.46 48.8856 145.492 49.0536 145.492ZM49.1976 150.004C49.4776 150.004 49.7296 149.968 49.9536 149.896C50.1856 149.832 50.3816 149.744 50.5416 149.632C50.7016 149.528 50.8256 149.404 50.9136 149.26C51.0016 149.116 51.0456 148.968 51.0456 148.816C51.0456 148.544 50.9456 148.356 50.7456 148.252C50.5456 148.148 50.2536 148.096 49.8696 148.096H48.8616C48.7496 148.096 48.6256 148.088 48.4896 148.072C48.3616 148.064 48.2336 148.04 48.1056 148C47.8976 148.152 47.7456 148.312 47.6496 148.48C47.5536 148.648 47.5056 148.816 47.5056 148.984C47.5056 149.296 47.6536 149.544 47.9496 149.728C48.2536 149.912 48.6696 150.004 49.1976 150.004ZM56.2028 148V142.972H55.4108V142.228L56.2028 142.168V141.244C56.2028 140.644 56.3388 140.172 56.6108 139.828C56.8908 139.484 57.3228 139.312 57.9068 139.312C58.0908 139.312 58.2628 139.332 58.4228 139.372C58.5908 139.404 58.7428 139.448 58.8788 139.504L58.6628 140.26C58.4468 140.164 58.2268 140.116 58.0028 140.116C57.4588 140.116 57.1868 140.492 57.1868 141.244V142.168H58.4228V142.972H57.1868V148H56.2028ZM61.4927 148.144C60.8687 148.144 60.4127 147.952 60.1247 147.568C59.8447 147.184 59.7047 146.616 59.7047 145.864V142.168H60.7007V145.732C60.7007 146.284 60.7847 146.684 60.9527 146.932C61.1287 147.172 61.4087 147.292 61.7927 147.292C62.0967 147.292 62.3647 147.216 62.5967 147.064C62.8287 146.904 63.0847 146.652 63.3647 146.308V142.168H64.3487V148H63.5327L63.4487 147.088H63.4127C63.1407 147.408 62.8527 147.664 62.5487 147.856C62.2527 148.048 61.9007 148.144 61.4927 148.144ZM66.566 148V142.168H67.382L67.466 143.008H67.502C67.782 142.728 68.074 142.496 68.378 142.312C68.69 142.12 69.05 142.024 69.458 142.024C70.074 142.024 70.522 142.216 70.802 142.6C71.09 142.984 71.234 143.552 71.234 144.304V148H70.25V144.436C70.25 143.884 70.162 143.488 69.986 143.248C69.81 143 69.53 142.876 69.146 142.876C68.842 142.876 68.574 142.952 68.342 143.104C68.11 143.256 67.846 143.48 67.55 143.776V148H66.566ZM75.6825 148.144C75.2985 148.144 74.9385 148.076 74.6025 147.94C74.2665 147.804 73.9745 147.608 73.7265 147.352C73.4865 147.088 73.2945 146.768 73.1505 146.392C73.0145 146.008 72.9465 145.576 72.9465 145.096C72.9465 144.608 73.0225 144.176 73.1745 143.8C73.3265 143.416 73.5305 143.092 73.7865 142.828C74.0425 142.564 74.3385 142.364 74.6745 142.228C75.0185 142.092 75.3785 142.024 75.7545 142.024C76.1385 142.024 76.4665 142.092 76.7385 142.228C77.0105 142.364 77.2505 142.524 77.4585 142.708L76.9545 143.356C76.7865 143.204 76.6065 143.08 76.4145 142.984C76.2305 142.888 76.0225 142.84 75.7905 142.84C75.5265 142.84 75.2825 142.896 75.0585 143.008C74.8345 143.112 74.6425 143.264 74.4825 143.464C74.3225 143.664 74.1945 143.904 74.0985 144.184C74.0105 144.456 73.9665 144.76 73.9665 145.096C73.9665 145.432 74.0105 145.736 74.0985 146.008C74.1865 146.28 74.3065 146.516 74.4585 146.716C74.6185 146.908 74.8105 147.06 75.0345 147.172C75.2585 147.276 75.5025 147.328 75.7665 147.328C76.0385 147.328 76.2865 147.272 76.5105 147.16C76.7425 147.04 76.9505 146.9 77.1345 146.74L77.5665 147.4C77.3025 147.632 77.0105 147.816 76.6905 147.952C76.3705 148.08 76.0345 148.144 75.6825 148.144ZM80.82 148.144C80.508 148.144 80.244 148.096 80.028 148C79.82 147.904 79.648 147.772 79.512 147.604C79.384 147.436 79.292 147.232 79.236 146.992C79.18 146.752 79.152 146.488 79.152 146.2V142.972H78.288V142.228L79.2 142.168L79.32 140.536H80.148V142.168H81.72V142.972H80.148V146.212C80.148 146.572 80.212 146.852 80.34 147.052C80.476 147.244 80.712 147.34 81.048 147.34C81.152 147.34 81.264 147.324 81.384 147.292C81.504 147.26 81.612 147.224 81.708 147.184L81.9 147.928C81.74 147.984 81.564 148.032 81.372 148.072C81.188 148.12 81.004 148.144 80.82 148.144ZM83.2887 148V142.168H84.2727V148H83.2887ZM83.7927 140.968C83.6007 140.968 83.4367 140.908 83.3007 140.788C83.1727 140.668 83.1087 140.516 83.1087 140.332C83.1087 140.14 83.1727 139.988 83.3007 139.876C83.4367 139.756 83.6007 139.696 83.7927 139.696C83.9847 139.696 84.1447 139.756 84.2727 139.876C84.4087 139.988 84.4767 140.14 84.4767 140.332C84.4767 140.516 84.4087 140.668 84.2727 140.788C84.1447 140.908 83.9847 140.968 83.7927 140.968ZM88.7598 148.144C88.3998 148.144 88.0558 148.076 87.7278 147.94C87.4078 147.804 87.1238 147.608 86.8758 147.352C86.6278 147.088 86.4278 146.768 86.2758 146.392C86.1318 146.008 86.0598 145.576 86.0598 145.096C86.0598 144.608 86.1318 144.176 86.2758 143.8C86.4278 143.416 86.6278 143.092 86.8758 142.828C87.1238 142.564 87.4078 142.364 87.7278 142.228C88.0558 142.092 88.3998 142.024 88.7598 142.024C89.1198 142.024 89.4598 142.092 89.7798 142.228C90.1078 142.364 90.3958 142.564 90.6438 142.828C90.8918 143.092 91.0878 143.416 91.2318 143.8C91.3838 144.176 91.4598 144.608 91.4598 145.096C91.4598 145.576 91.3838 146.008 91.2318 146.392C91.0878 146.768 90.8918 147.088 90.6438 147.352C90.3958 147.608 90.1078 147.804 89.7798 147.94C89.4598 148.076 89.1198 148.144 88.7598 148.144ZM88.7598 147.328C89.0078 147.328 89.2358 147.276 89.4438 147.172C89.6518 147.06 89.8278 146.908 89.9718 146.716C90.1238 146.516 90.2398 146.28 90.3198 146.008C90.3998 145.736 90.4398 145.432 90.4398 145.096C90.4398 144.76 90.3998 144.456 90.3198 144.184C90.2398 143.904 90.1238 143.664 89.9718 143.464C89.8278 143.264 89.6518 143.112 89.4438 143.008C89.2358 142.896 89.0078 142.84 88.7598 142.84C88.5118 142.84 88.2838 142.896 88.0758 143.008C87.8678 143.112 87.6878 143.264 87.5358 143.464C87.3918 143.664 87.2798 143.904 87.1998 144.184C87.1198 144.456 87.0798 144.76 87.0798 145.096C87.0798 145.432 87.1198 145.736 87.1998 146.008C87.2798 146.28 87.3918 146.516 87.5358 146.716C87.6878 146.908 87.8678 147.06 88.0758 147.172C88.2838 147.276 88.5118 147.328 88.7598 147.328ZM93.2457 148V142.168H94.0617L94.1457 143.008H94.1817C94.4617 142.728 94.7537 142.496 95.0577 142.312C95.3697 142.12 95.7297 142.024 96.1377 142.024C96.7537 142.024 97.2017 142.216 97.4817 142.6C97.7697 142.984 97.9137 143.552 97.9137 144.304V148H96.9297V144.436C96.9297 143.884 96.8417 143.488 96.6657 143.248C96.4897 143 96.2097 142.876 95.8257 142.876C95.5217 142.876 95.2537 142.952 95.0217 143.104C94.7897 143.256 94.5257 143.48 94.2297 143.776V148H93.2457Z" fill="#AFBED1"/>
<path d="M19.984 320.192C18.9493 320.192 18.144 319.733 17.568 318.816C16.992 317.899 16.704 316.581 16.704 314.864C16.704 313.147 16.992 311.84 17.568 310.944C18.144 310.048 18.9493 309.6 19.984 309.6C21.008 309.6 21.808 310.048 22.384 310.944C22.96 311.84 23.248 313.147 23.248 314.864C23.248 316.581 22.96 317.899 22.384 318.816C21.808 319.733 21.008 320.192 19.984 320.192ZM19.984 319.136C20.2827 319.136 20.5493 319.056 20.784 318.896C21.0293 318.725 21.2373 318.469 21.408 318.128C21.5893 317.776 21.728 317.333 21.824 316.8C21.92 316.256 21.968 315.611 21.968 314.864C21.968 314.117 21.92 313.477 21.824 312.944C21.728 312.411 21.5893 311.979 21.408 311.648C21.2373 311.307 21.0293 311.056 20.784 310.896C20.5493 310.736 20.2827 310.656 19.984 310.656C19.6853 310.656 19.4133 310.736 19.168 310.896C18.9227 311.056 18.7093 311.307 18.528 311.648C18.3573 311.979 18.224 312.411 18.128 312.944C18.032 313.477 17.984 314.117 17.984 314.864C17.984 316.357 18.1653 317.445 18.528 318.128C18.9013 318.8 19.3867 319.136 19.984 319.136ZM27.5471 320.192C26.9925 320.192 26.4645 320.091 25.9631 319.888C25.4618 319.685 25.0245 319.429 24.6511 319.12L25.3071 318.24C25.6485 318.517 25.9951 318.741 26.3471 318.912C26.7098 319.083 27.1258 319.168 27.5951 319.168C28.1071 319.168 28.4911 319.051 28.7471 318.816C29.0031 318.581 29.1311 318.293 29.1311 317.952C29.1311 317.749 29.0778 317.573 28.9711 317.424C28.8645 317.275 28.7258 317.147 28.5551 317.04C28.3951 316.923 28.2085 316.821 27.9951 316.736C27.7818 316.651 27.5685 316.565 27.3551 316.48C27.0778 316.384 26.8005 316.277 26.5231 316.16C26.2458 316.032 25.9951 315.883 25.7711 315.712C25.5578 315.531 25.3818 315.323 25.2431 315.088C25.1045 314.853 25.0351 314.571 25.0351 314.24C25.0351 313.931 25.0938 313.643 25.2111 313.376C25.3391 313.099 25.5151 312.864 25.7391 312.672C25.9738 312.469 26.2565 312.315 26.5871 312.208C26.9178 312.091 27.2911 312.032 27.7071 312.032C28.1978 312.032 28.6458 312.117 29.0511 312.288C29.4671 312.459 29.8245 312.667 30.1231 312.912L29.4991 313.744C29.2325 313.541 28.9551 313.376 28.6671 313.248C28.3791 313.12 28.0645 313.056 27.7231 313.056C27.2325 313.056 26.8698 313.168 26.6351 313.392C26.4111 313.616 26.2991 313.877 26.2991 314.176C26.2991 314.357 26.3471 314.517 26.4431 314.656C26.5391 314.784 26.6671 314.901 26.8271 315.008C26.9871 315.104 27.1685 315.195 27.3711 315.28C27.5845 315.355 27.8031 315.435 28.0271 315.52C28.3045 315.627 28.5818 315.739 28.8591 315.856C29.1471 315.973 29.4031 316.123 29.6271 316.304C29.8511 316.475 30.0325 316.688 30.1711 316.944C30.3205 317.2 30.3951 317.509 30.3951 317.872C30.3951 318.192 30.3311 318.491 30.2031 318.768C30.0858 319.045 29.9045 319.291 29.6591 319.504C29.4245 319.717 29.1258 319.883 28.7631 320C28.4111 320.128 28.0058 320.192 27.5471 320.192Z" fill="#F8FAFF"/>
<path d="M19.984 248.192C18.9493 248.192 18.144 247.733 17.568 246.816C16.992 245.899 16.704 244.581 16.704 242.864C16.704 241.147 16.992 239.84 17.568 238.944C18.144 238.048 18.9493 237.6 19.984 237.6C21.008 237.6 21.808 238.048 22.384 238.944C22.96 239.84 23.248 241.147 23.248 242.864C23.248 244.581 22.96 245.899 22.384 246.816C21.808 247.733 21.008 248.192 19.984 248.192ZM19.984 247.136C20.2827 247.136 20.5493 247.056 20.784 246.896C21.0293 246.725 21.2373 246.469 21.408 246.128C21.5893 245.776 21.728 245.333 21.824 244.8C21.92 244.256 21.968 243.611 21.968 242.864C21.968 242.117 21.92 241.477 21.824 240.944C21.728 240.411 21.5893 239.979 21.408 239.648C21.2373 239.307 21.0293 239.056 20.784 238.896C20.5493 238.736 20.2827 238.656 19.984 238.656C19.6853 238.656 19.4133 238.736 19.168 238.896C18.9227 239.056 18.7093 239.307 18.528 239.648C18.3573 239.979 18.224 240.411 18.128 240.944C18.032 241.477 17.984 242.117 17.984 242.864C17.984 244.357 18.1653 245.445 18.528 246.128C18.9013 246.8 19.3867 247.136 19.984 247.136ZM26.2031 248.192C25.9365 248.192 25.7071 248.101 25.5151 247.92C25.3338 247.728 25.2431 247.488 25.2431 247.2C25.2431 246.891 25.3338 246.645 25.5151 246.464C25.7071 246.272 25.9365 246.176 26.2031 246.176C26.4591 246.176 26.6778 246.272 26.8591 246.464C27.0511 246.645 27.1471 246.891 27.1471 247.2C27.1471 247.488 27.0511 247.728 26.8591 247.92C26.6778 248.101 26.4591 248.192 26.2031 248.192ZM32.2135 248.192C31.8082 248.192 31.4348 248.149 31.0935 248.064C30.7628 247.989 30.4588 247.888 30.1815 247.76C29.9042 247.621 29.6535 247.467 29.4295 247.296C29.2162 247.125 29.0242 246.944 28.8535 246.752L29.5255 245.888C29.8348 246.208 30.1922 246.491 30.5975 246.736C31.0135 246.981 31.5255 247.104 32.1335 247.104C32.7522 247.104 33.2588 246.939 33.6535 246.608C34.0482 246.267 34.2455 245.808 34.2455 245.232C34.2455 244.933 34.1868 244.661 34.0695 244.416C33.9628 244.16 33.7815 243.941 33.5255 243.76C33.2695 243.579 32.9335 243.44 32.5175 243.344C32.1015 243.248 31.5895 243.2 30.9815 243.2V242.192C31.5255 242.192 31.9788 242.144 32.3415 242.048C32.7148 241.952 33.0135 241.819 33.2375 241.648C33.4722 241.477 33.6375 241.275 33.7335 241.04C33.8295 240.805 33.8775 240.555 33.8775 240.288C33.8775 239.787 33.7175 239.392 33.3975 239.104C33.0882 238.816 32.6615 238.672 32.1175 238.672C31.6908 238.672 31.2962 238.768 30.9335 238.96C30.5815 239.152 30.2508 239.403 29.9415 239.712L29.2375 238.88C29.6322 238.507 30.0642 238.203 30.5335 237.968C31.0135 237.723 31.5575 237.6 32.1655 237.6C32.6135 237.6 33.0242 237.659 33.3975 237.776C33.7708 237.893 34.0908 238.064 34.3575 238.288C34.6348 238.501 34.8482 238.768 34.9975 239.088C35.1468 239.408 35.2215 239.776 35.2215 240.192C35.2215 240.811 35.0508 241.317 34.7095 241.712C34.3682 242.107 33.9202 242.411 33.3655 242.624V242.688C33.6748 242.763 33.9628 242.875 34.2295 243.024C34.4962 243.163 34.7308 243.344 34.9335 243.568C35.1362 243.781 35.2908 244.032 35.3975 244.32C35.5148 244.608 35.5735 244.928 35.5735 245.28C35.5735 245.728 35.4828 246.133 35.3015 246.496C35.1308 246.859 34.8908 247.168 34.5815 247.424C34.2828 247.669 33.9308 247.861 33.5255 248C33.1202 248.128 32.6828 248.192 32.2135 248.192Z" fill="#F8FAFF"/>
<path d="M20.464 176.192C19.9413 176.192 19.4507 176.101 18.992 175.92C18.544 175.728 18.1493 175.461 17.808 175.12C17.4773 174.768 17.216 174.341 17.024 173.84C16.832 173.339 16.736 172.768 16.736 172.128C16.736 171.488 16.832 170.917 17.024 170.416C17.2267 169.904 17.488 169.472 17.808 169.12C18.1387 168.768 18.512 168.501 18.928 168.32C19.344 168.128 19.776 168.032 20.224 168.032C20.7147 168.032 21.152 168.117 21.536 168.288C21.9307 168.459 22.256 168.704 22.512 169.024C22.7787 169.344 22.9813 169.728 23.12 170.176C23.2587 170.624 23.328 171.125 23.328 171.68C23.328 171.819 23.3227 171.957 23.312 172.096C23.312 172.224 23.3013 172.336 23.28 172.432H18.032C18.0853 173.264 18.3413 173.925 18.8 174.416C19.2693 174.896 19.8773 175.136 20.624 175.136C20.9973 175.136 21.3387 175.083 21.648 174.976C21.968 174.859 22.272 174.709 22.56 174.528L23.024 175.392C22.6827 175.605 22.304 175.792 21.888 175.952C21.472 176.112 20.9973 176.192 20.464 176.192ZM18.016 171.488H22.176C22.176 170.699 22.0053 170.101 21.664 169.696C21.3333 169.28 20.864 169.072 20.256 169.072C19.9787 169.072 19.712 169.125 19.456 169.232C19.2107 169.339 18.9867 169.499 18.784 169.712C18.5813 169.915 18.4107 170.165 18.272 170.464C18.144 170.763 18.0587 171.104 18.016 171.488ZM27.0728 176.192C26.4221 176.192 25.8781 176 25.4408 175.616C25.0141 175.232 24.8008 174.688 24.8008 173.984C24.8008 173.131 25.1794 172.48 25.9368 172.032C26.6941 171.573 27.9048 171.253 29.5688 171.072C29.5688 170.827 29.5421 170.587 29.4888 170.352C29.4461 170.117 29.3661 169.909 29.2488 169.728C29.1314 169.547 28.9661 169.403 28.7528 169.296C28.5501 169.179 28.2888 169.12 27.9688 169.12C27.5208 169.12 27.0994 169.205 26.7048 169.376C26.3101 169.547 25.9581 169.739 25.6488 169.952L25.1368 169.04C25.4994 168.805 25.9421 168.581 26.4648 168.368C26.9874 168.144 27.5634 168.032 28.1927 168.032C29.1421 168.032 29.8301 168.325 30.2568 168.912C30.6834 169.488 30.8968 170.261 30.8968 171.232V176H29.8088L29.6968 175.072H29.6488C29.2754 175.381 28.8754 175.648 28.4488 175.872C28.0221 176.085 27.5634 176.192 27.0728 176.192ZM27.4568 175.136C27.8301 175.136 28.1821 175.051 28.5128 174.88C28.8434 174.699 29.1954 174.437 29.5688 174.096V171.936C28.9181 172.021 28.3688 172.123 27.9208 172.24C27.4834 172.357 27.1261 172.496 26.8488 172.656C26.5821 172.816 26.3848 173.003 26.2568 173.216C26.1394 173.419 26.0807 173.643 26.0807 173.888C26.0807 174.336 26.2141 174.656 26.4808 174.848C26.7474 175.04 27.0728 175.136 27.4568 175.136ZM35.6253 176.192C35.0706 176.192 34.5426 176.091 34.0413 175.888C33.5399 175.685 33.1026 175.429 32.7293 175.12L33.3853 174.24C33.7266 174.517 34.0733 174.741 34.4253 174.912C34.7879 175.083 35.2039 175.168 35.6733 175.168C36.1853 175.168 36.5693 175.051 36.8253 174.816C37.0813 174.581 37.2093 174.293 37.2093 173.952C37.2093 173.749 37.1559 173.573 37.0493 173.424C36.9426 173.275 36.8039 173.147 36.6333 173.04C36.4733 172.923 36.2866 172.821 36.0733 172.736C35.8599 172.651 35.6466 172.565 35.4333 172.48C35.1559 172.384 34.8786 172.277 34.6013 172.16C34.3239 172.032 34.0733 171.883 33.8493 171.712C33.6359 171.531 33.4599 171.323 33.3213 171.088C33.1826 170.853 33.1133 170.571 33.1133 170.24C33.1133 169.931 33.1719 169.643 33.2893 169.376C33.4173 169.099 33.5933 168.864 33.8173 168.672C34.0519 168.469 34.3346 168.315 34.6653 168.208C34.9959 168.091 35.3693 168.032 35.7853 168.032C36.2759 168.032 36.7239 168.117 37.1293 168.288C37.5453 168.459 37.9026 168.667 38.2013 168.912L37.5773 169.744C37.3106 169.541 37.0333 169.376 36.7453 169.248C36.4573 169.12 36.1426 169.056 35.8013 169.056C35.3106 169.056 34.9479 169.168 34.7133 169.392C34.4893 169.616 34.3773 169.877 34.3773 170.176C34.3773 170.357 34.4253 170.517 34.5213 170.656C34.6173 170.784 34.7453 170.901 34.9053 171.008C35.0653 171.104 35.2466 171.195 35.4493 171.28C35.6626 171.355 35.8813 171.435 36.1053 171.52C36.3826 171.627 36.6599 171.739 36.9373 171.856C37.2253 171.973 37.4813 172.123 37.7053 172.304C37.9293 172.475 38.1106 172.688 38.2493 172.944C38.3986 173.2 38.4733 173.509 38.4733 173.872C38.4733 174.192 38.4093 174.491 38.2813 174.768C38.1639 175.045 37.9826 175.291 37.7373 175.504C37.5026 175.717 37.2039 175.883 36.8413 176C36.4893 176.128 36.0839 176.192 35.6253 176.192ZM43.6984 176.192C43.1757 176.192 42.685 176.101 42.2264 175.92C41.7784 175.728 41.3837 175.461 41.0424 175.12C40.7117 174.768 40.4504 174.341 40.2584 173.84C40.0664 173.339 39.9704 172.768 39.9704 172.128C39.9704 171.488 40.0664 170.917 40.2584 170.416C40.461 169.904 40.7224 169.472 41.0424 169.12C41.373 168.768 41.7464 168.501 42.1624 168.32C42.5784 168.128 43.0104 168.032 43.4584 168.032C43.949 168.032 44.3864 168.117 44.7704 168.288C45.165 168.459 45.4904 168.704 45.7464 169.024C46.013 169.344 46.2157 169.728 46.3544 170.176C46.493 170.624 46.5624 171.125 46.5624 171.68C46.5624 171.819 46.557 171.957 46.5464 172.096C46.5464 172.224 46.5357 172.336 46.5144 172.432H41.2664C41.3197 173.264 41.5757 173.925 42.0344 174.416C42.5037 174.896 43.1117 175.136 43.8584 175.136C44.2317 175.136 44.573 175.083 44.8824 174.976C45.2024 174.859 45.5064 174.709 45.7944 174.528L46.2584 175.392C45.917 175.605 45.5384 175.792 45.1224 175.952C44.7064 176.112 44.2317 176.192 43.6984 176.192ZM41.2504 171.488H45.4104C45.4104 170.699 45.2397 170.101 44.8984 169.696C44.5677 169.28 44.0984 169.072 43.4904 169.072C43.213 169.072 42.9464 169.125 42.6904 169.232C42.445 169.339 42.221 169.499 42.0184 169.712C41.8157 169.915 41.645 170.165 41.5064 170.464C41.3784 170.763 41.293 171.104 41.2504 171.488Z" fill="#F8FAFF"/>
<path d="M213.942 167.875C211.223 166.597 210.208 165.983 207.486 166C207.216 166.002 207 166.224 207 166.494V174.992C207 175.262 207.215 175.482 207.485 175.496C210.39 175.644 211.49 176.233 213.841 177.888C213.907 177.935 214 177.888 214 177.807V167.966C214 167.927 213.977 167.892 213.942 167.875Z" stroke="#7A869A" stroke-width="1.5"/>
<path d="M214.058 167.875C216.777 166.597 217.792 165.983 220.514 166C220.784 166.002 221 166.224 221 166.494V174.992C221 175.262 220.785 175.482 220.515 175.496C217.61 175.644 216.51 176.233 214.159 177.888C214.093 177.935 214 177.888 214 177.807V167.966C214 167.927 214.023 167.892 214.058 167.875Z" stroke="#7A869A" stroke-width="1.5"/>
<path d="M213.942 238.875C211.223 237.597 210.208 236.983 207.486 237C207.216 237.002 207 237.224 207 237.494V245.992C207 246.262 207.215 246.482 207.485 246.496C210.39 246.644 211.49 247.233 213.841 248.888C213.907 248.935 214 248.888 214 248.807V238.966C214 238.927 213.977 238.892 213.942 238.875Z" stroke="#7A869A" stroke-width="1.5"/>
<path d="M214.058 238.875C216.777 237.597 217.792 236.983 220.514 237C220.784 237.002 221 237.224 221 237.494V245.992C221 246.262 220.785 246.482 220.515 246.496C217.61 246.644 216.51 247.233 214.159 248.888C214.093 248.935 214 248.888 214 248.807V238.966C214 238.927 214.023 238.892 214.058 238.875Z" stroke="#7A869A" stroke-width="1.5"/>
<rect y="45" width="242" height="1" fill="#2C3139"/>
<path d="M19.76 33.192C19.344 33.192 18.992 33.128 18.704 33C18.4267 32.872 18.1973 32.696 18.016 32.472C17.8453 32.248 17.7227 31.976 17.648 31.656C17.5733 31.336 17.536 30.984 17.536 30.6V26.296H16.384V25.304L17.6 25.224L17.76 23.048H18.864V25.224H20.96V26.296H18.864V30.616C18.864 31.096 18.9493 31.4693 19.12 31.736C19.3013 31.992 19.616 32.12 20.064 32.12C20.2027 32.12 20.352 32.0987 20.512 32.056C20.672 32.0133 20.816 31.9653 20.944 31.912L21.2 32.904C20.9867 32.9787 20.752 33.0427 20.496 33.096C20.2507 33.16 20.0053 33.192 19.76 33.192ZM22.9683 33V25.224H24.0563L24.1683 26.632H24.2163C24.4829 26.1413 24.8029 25.752 25.1763 25.464C25.5603 25.176 25.9763 25.032 26.4243 25.032C26.7336 25.032 27.0109 25.0853 27.2563 25.192L27.0003 26.344C26.8723 26.3013 26.7549 26.2693 26.6483 26.248C26.5416 26.2267 26.4083 26.216 26.2483 26.216C25.9176 26.216 25.5709 26.3493 25.2083 26.616C24.8563 26.8827 24.5469 27.3467 24.2803 28.008V33H22.9683ZM30.1665 33.192C29.5158 33.192 28.9718 33 28.5345 32.616C28.1078 32.232 27.8945 31.688 27.8945 30.984C27.8945 30.1307 28.2732 29.48 29.0305 29.032C29.7878 28.5733 30.9985 28.2533 32.6625 28.072C32.6625 27.8267 32.6358 27.5867 32.5825 27.352C32.5398 27.1173 32.4598 26.9093 32.3425 26.728C32.2252 26.5467 32.0598 26.4027 31.8465 26.296C31.6438 26.1787 31.3825 26.12 31.0625 26.12C30.6145 26.12 30.1932 26.2053 29.7985 26.376C29.4038 26.5467 29.0518 26.7387 28.7425 26.952L28.2305 26.04C28.5932 25.8053 29.0358 25.5813 29.5585 25.368C30.0812 25.144 30.6572 25.032 31.2865 25.032C32.2358 25.032 32.9238 25.3253 33.3505 25.912C33.7772 26.488 33.9905 27.2613 33.9905 28.232V33H32.9025L32.7905 32.072H32.7425C32.3692 32.3813 31.9692 32.648 31.5425 32.872C31.1158 33.0853 30.6572 33.192 30.1665 33.192ZM30.5505 32.136C30.9238 32.136 31.2758 32.0507 31.6065 31.88C31.9372 31.6987 32.2892 31.4373 32.6625 31.096V28.936C32.0118 29.0213 31.4625 29.1227 31.0145 29.24C30.5772 29.3573 30.2198 29.496 29.9425 29.656C29.6758 29.816 29.4785 30.0027 29.3505 30.216C29.2332 30.4187 29.1745 30.6427 29.1745 30.888C29.1745 31.336 29.3078 31.656 29.5745 31.848C29.8412 32.04 30.1665 32.136 30.5505 32.136ZM36.687 33V25.224H37.775L37.887 26.344H37.935C38.3083 25.9707 38.6977 25.6613 39.103 25.416C39.519 25.16 39.999 25.032 40.543 25.032C41.3643 25.032 41.9617 25.288 42.335 25.8C42.719 26.312 42.911 27.0693 42.911 28.072V33H41.599V28.248C41.599 27.512 41.4817 26.984 41.247 26.664C41.0123 26.3333 40.639 26.168 40.127 26.168C39.7217 26.168 39.3643 26.2693 39.055 26.472C38.7457 26.6747 38.3937 26.9733 37.999 27.368V33H36.687ZM47.719 33.192C47.1643 33.192 46.6363 33.0907 46.135 32.888C45.6337 32.6853 45.1963 32.4293 44.823 32.12L45.479 31.24C45.8203 31.5173 46.167 31.7413 46.519 31.912C46.8817 32.0827 47.2977 32.168 47.767 32.168C48.279 32.168 48.663 32.0507 48.919 31.816C49.175 31.5813 49.303 31.2933 49.303 30.952C49.303 30.7493 49.2497 30.5733 49.143 30.424C49.0363 30.2747 48.8977 30.1467 48.727 30.04C48.567 29.9227 48.3803 29.8213 48.167 29.736C47.9537 29.6507 47.7403 29.5653 47.527 29.48C47.2497 29.384 46.9723 29.2773 46.695 29.16C46.4177 29.032 46.167 28.8827 45.943 28.712C45.7297 28.5307 45.5537 28.3227 45.415 28.088C45.2763 27.8533 45.207 27.5707 45.207 27.24C45.207 26.9307 45.2657 26.6427 45.383 26.376C45.511 26.0987 45.687 25.864 45.911 25.672C46.1457 25.4693 46.4283 25.3147 46.759 25.208C47.0897 25.0907 47.463 25.032 47.879 25.032C48.3697 25.032 48.8177 25.1173 49.223 25.288C49.639 25.4587 49.9963 25.6667 50.295 25.912L49.671 26.744C49.4043 26.5413 49.127 26.376 48.839 26.248C48.551 26.12 48.2363 26.056 47.895 26.056C47.4043 26.056 47.0417 26.168 46.807 26.392C46.583 26.616 46.471 26.8773 46.471 27.176C46.471 27.3573 46.519 27.5173 46.615 27.656C46.711 27.784 46.839 27.9013 46.999 28.008C47.159 28.104 47.3403 28.1947 47.543 28.28C47.7563 28.3547 47.975 28.4347 48.199 28.52C48.4763 28.6267 48.7537 28.7387 49.031 28.856C49.319 28.9733 49.575 29.1227 49.799 29.304C50.023 29.4747 50.2043 29.688 50.343 29.944C50.4923 30.2 50.567 30.5093 50.567 30.872C50.567 31.192 50.503 31.4907 50.375 31.768C50.2577 32.0453 50.0763 32.2907 49.831 32.504C49.5963 32.7173 49.2977 32.8827 48.935 33C48.583 33.128 48.1777 33.192 47.719 33.192ZM52.6401 33V25.224H53.9521V33H52.6401ZM53.3121 23.624C53.0561 23.624 52.8375 23.544 52.6561 23.384C52.4855 23.224 52.4001 23.0213 52.4001 22.776C52.4001 22.52 52.4855 22.3173 52.6561 22.168C52.8375 22.008 53.0561 21.928 53.3121 21.928C53.5681 21.928 53.7815 22.008 53.9521 22.168C54.1335 22.3173 54.2241 22.52 54.2241 22.776C54.2241 23.0213 54.1335 23.224 53.9521 23.384C53.7815 23.544 53.5681 23.624 53.3121 23.624ZM59.2756 33.192C58.8596 33.192 58.5076 33.128 58.2196 33C57.9423 32.872 57.713 32.696 57.5316 32.472C57.361 32.248 57.2383 31.976 57.1636 31.656C57.089 31.336 57.0516 30.984 57.0516 30.6V26.296H55.8996V25.304L57.1156 25.224L57.2756 23.048H58.3796V25.224H60.4756V26.296H58.3796V30.616C58.3796 31.096 58.465 31.4693 58.6356 31.736C58.817 31.992 59.1316 32.12 59.5796 32.12C59.7183 32.12 59.8676 32.0987 60.0276 32.056C60.1876 32.0133 60.3316 31.9653 60.4596 31.912L60.7156 32.904C60.5023 32.9787 60.2676 33.0427 60.0116 33.096C59.7663 33.16 59.521 33.192 59.2756 33.192ZM62.4839 33V25.224H63.7959V33H62.4839ZM63.1559 23.624C62.8999 23.624 62.6812 23.544 62.4999 23.384C62.3292 23.224 62.2439 23.0213 62.2439 22.776C62.2439 22.52 62.3292 22.3173 62.4999 22.168C62.6812 22.008 62.8999 21.928 63.1559 21.928C63.4119 21.928 63.6252 22.008 63.7959 22.168C63.9772 22.3173 64.0679 22.52 64.0679 22.776C64.0679 23.0213 63.9772 23.224 63.7959 23.384C63.6252 23.544 63.4119 23.624 63.1559 23.624ZM69.6954 33.192C69.2154 33.192 68.7567 33.1013 68.3194 32.92C67.8927 32.7387 67.514 32.4773 67.1834 32.136C66.8527 31.784 66.586 31.3573 66.3834 30.856C66.1914 30.344 66.0954 29.768 66.0954 29.128C66.0954 28.4773 66.1914 27.9013 66.3834 27.4C66.586 26.888 66.8527 26.456 67.1834 26.104C67.514 25.752 67.8927 25.4853 68.3194 25.304C68.7567 25.1227 69.2154 25.032 69.6954 25.032C70.1754 25.032 70.6287 25.1227 71.0554 25.304C71.4927 25.4853 71.8767 25.752 72.2074 26.104C72.538 26.456 72.7994 26.888 72.9914 27.4C73.194 27.9013 73.2954 28.4773 73.2954 29.128C73.2954 29.768 73.194 30.344 72.9914 30.856C72.7994 31.3573 72.538 31.784 72.2074 32.136C71.8767 32.4773 71.4927 32.7387 71.0554 32.92C70.6287 33.1013 70.1754 33.192 69.6954 33.192ZM69.6954 32.104C70.026 32.104 70.33 32.0347 70.6074 31.896C70.8847 31.7467 71.1194 31.544 71.3114 31.288C71.514 31.0213 71.6687 30.7067 71.7754 30.344C71.882 29.9813 71.9354 29.576 71.9354 29.128C71.9354 28.68 71.882 28.2747 71.7754 27.912C71.6687 27.5387 71.514 27.2187 71.3114 26.952C71.1194 26.6853 70.8847 26.4827 70.6074 26.344C70.33 26.1947 70.026 26.12 69.6954 26.12C69.3647 26.12 69.0607 26.1947 68.7834 26.344C68.506 26.4827 68.266 26.6853 68.0634 26.952C67.8714 27.2187 67.722 27.5387 67.6154 27.912C67.5087 28.2747 67.4554 28.68 67.4554 29.128C67.4554 29.576 67.5087 29.9813 67.6154 30.344C67.722 30.7067 67.8714 31.0213 68.0634 31.288C68.266 31.544 68.506 31.7467 68.7834 31.896C69.0607 32.0347 69.3647 32.104 69.6954 32.104ZM75.5933 33V25.224H76.6813L76.7933 26.344H76.8413C77.2146 25.9707 77.6039 25.6613 78.0093 25.416C78.4253 25.16 78.9053 25.032 79.4493 25.032C80.2706 25.032 80.8679 25.288 81.2413 25.8C81.6253 26.312 81.8173 27.0693 81.8173 28.072V33H80.5053V28.248C80.5053 27.512 80.3879 26.984 80.1533 26.664C79.9186 26.3333 79.5453 26.168 79.0333 26.168C78.6279 26.168 78.2706 26.2693 77.9613 26.472C77.6519 26.6747 77.2999 26.9733 76.9053 27.368V33H75.5933Z" fill="#F8FAFF"/>
</svg>
