<svg width="300" height="226" viewBox="0 0 300 226" fill="none" xmlns="http://www.w3.org/2000/svg">
<rect width="300" height="226" fill="#22262E"/>
<rect width="1" height="226" fill="#2C3139"/>
<rect y="108" width="300" height="1" fill="#2C3139"/>
<path d="M20.352 96.192C19.616 96.192 18.9333 96.0533 18.304 95.776C17.6747 95.4987 17.1307 95.12 16.672 94.64L17.472 93.712C17.8453 94.1067 18.2827 94.4267 18.784 94.672C19.296 94.9067 19.824 95.024 20.368 95.024C21.0613 95.024 21.6 94.8693 21.984 94.56C22.368 94.24 22.56 93.824 22.56 93.312C22.56 93.0453 22.512 92.8213 22.416 92.64C22.3307 92.448 22.208 92.288 22.048 92.16C21.8987 92.0213 21.7173 91.8987 21.504 91.792C21.2907 91.6853 21.0613 91.5733 20.816 91.456L19.312 90.8C19.0667 90.6933 18.816 90.5653 18.56 90.416C18.304 90.2667 18.0747 90.0853 17.872 89.872C17.6693 89.6587 17.504 89.408 17.376 89.12C17.248 88.8213 17.184 88.48 17.184 88.096C17.184 87.7013 17.264 87.3333 17.424 86.992C17.5947 86.6507 17.824 86.3573 18.112 86.112C18.4107 85.856 18.7573 85.6587 19.152 85.52C19.5573 85.3813 20 85.312 20.48 85.312C21.1093 85.312 21.6907 85.4347 22.224 85.68C22.7573 85.9147 23.2107 86.224 23.584 86.608L22.864 87.472C22.544 87.1627 22.1867 86.9227 21.792 86.752C21.408 86.5707 20.9707 86.48 20.48 86.48C19.8933 86.48 19.4187 86.6187 19.056 86.896C18.704 87.1627 18.528 87.536 18.528 88.016C18.528 88.272 18.576 88.4907 18.672 88.672C18.7787 88.8427 18.9173 88.9973 19.088 89.136C19.2587 89.264 19.4453 89.3813 19.648 89.488C19.8507 89.584 20.0587 89.6747 20.272 89.76L21.76 90.4C22.0587 90.528 22.3413 90.6773 22.608 90.848C22.8747 91.008 23.104 91.2 23.296 91.424C23.488 91.6373 23.6373 91.8933 23.744 92.192C23.8613 92.48 23.92 92.816 23.92 93.2C23.92 93.616 23.8347 94.0053 23.664 94.368C23.504 94.7307 23.2693 95.0507 22.96 95.328C22.6507 95.5947 22.2773 95.808 21.84 95.968C21.4027 96.1173 20.9067 96.192 20.352 96.192ZM28.1663 96.192C27.7503 96.192 27.3983 96.128 27.1103 96C26.8329 95.872 26.6036 95.696 26.4223 95.472C26.2516 95.248 26.1289 94.976 26.0543 94.656C25.9796 94.336 25.9423 93.984 25.9423 93.6V89.296H24.7903V88.304L26.0063 88.224L26.1663 86.048H27.2703V88.224H29.3663V89.296H27.2703V93.616C27.2703 94.096 27.3556 94.4693 27.5263 94.736C27.7076 94.992 28.0223 95.12 28.4703 95.12C28.6089 95.12 28.7583 95.0987 28.9183 95.056C29.0783 95.0133 29.2223 94.9653 29.3503 94.912L29.6063 95.904C29.3929 95.9787 29.1583 96.0427 28.9023 96.096C28.6569 96.16 28.4116 96.192 28.1663 96.192ZM31.5025 99.344C31.3212 99.344 31.1558 99.328 31.0065 99.296C30.8572 99.2747 30.7185 99.2373 30.5905 99.184L30.8465 98.144C30.9318 98.1653 31.0278 98.1867 31.1345 98.208C31.2412 98.24 31.3425 98.256 31.4385 98.256C31.8865 98.256 32.2492 98.096 32.5265 97.776C32.8145 97.4667 33.0385 97.072 33.1985 96.592L33.3745 96.016L30.2545 88.224H31.6145L33.1985 92.528C33.3158 92.8693 33.4385 93.232 33.5665 93.616C33.7052 93.9893 33.8332 94.3573 33.9505 94.72H34.0145C34.1318 94.368 34.2438 94 34.3505 93.616C34.4572 93.232 34.5638 92.8693 34.6705 92.528L36.0625 88.224H37.3425L34.4145 96.64C34.2758 97.024 34.1212 97.3813 33.9505 97.712C33.7798 98.0427 33.5772 98.3253 33.3425 98.56C33.1078 98.8053 32.8412 98.9973 32.5425 99.136C32.2438 99.2747 31.8972 99.344 31.5025 99.344ZM40.4853 96.192C39.9839 96.192 39.6266 96.0427 39.4133 95.744C39.1999 95.4453 39.0933 95.008 39.0933 94.432V84.608H40.4053V94.528C40.4053 94.7413 40.4426 94.8907 40.5173 94.976C40.5919 95.0613 40.6773 95.104 40.7733 95.104C40.8159 95.104 40.8533 95.104 40.8853 95.104C40.9279 95.104 40.9866 95.0933 41.0613 95.072L41.2373 96.064C41.1519 96.1067 41.0506 96.1387 40.9333 96.16C40.8159 96.1813 40.6666 96.192 40.4853 96.192ZM46.5734 96.192C46.0507 96.192 45.56 96.1013 45.1014 95.92C44.6534 95.728 44.2587 95.4613 43.9174 95.12C43.5867 94.768 43.3254 94.3413 43.1334 93.84C42.9414 93.3387 42.8454 92.768 42.8454 92.128C42.8454 91.488 42.9414 90.9173 43.1334 90.416C43.336 89.904 43.5974 89.472 43.9174 89.12C44.248 88.768 44.6214 88.5013 45.0374 88.32C45.4534 88.128 45.8854 88.032 46.3334 88.032C46.824 88.032 47.2614 88.1173 47.6454 88.288C48.04 88.4587 48.3654 88.704 48.6214 89.024C48.888 89.344 49.0907 89.728 49.2294 90.176C49.368 90.624 49.4374 91.1253 49.4374 91.68C49.4374 91.8187 49.432 91.9573 49.4214 92.096C49.4214 92.224 49.4107 92.336 49.3894 92.432H44.1414C44.1947 93.264 44.4507 93.9253 44.9094 94.416C45.3787 94.896 45.9867 95.136 46.7334 95.136C47.1067 95.136 47.448 95.0827 47.7574 94.976C48.0774 94.8587 48.3814 94.7093 48.6694 94.528L49.1334 95.392C48.792 95.6053 48.4134 95.792 47.9974 95.952C47.5814 96.112 47.1067 96.192 46.5734 96.192ZM44.1254 91.488H48.2854C48.2854 90.6987 48.1147 90.1013 47.7734 89.696C47.4427 89.28 46.9734 89.072 46.3654 89.072C46.088 89.072 45.8214 89.1253 45.5654 89.232C45.32 89.3387 45.096 89.4987 44.8934 89.712C44.6907 89.9147 44.52 90.1653 44.3814 90.464C44.2534 90.7627 44.168 91.104 44.1254 91.488ZM53.6409 96.192C53.0862 96.192 52.5582 96.0907 52.0569 95.888C51.5555 95.6853 51.1182 95.4293 50.7449 95.12L51.4009 94.24C51.7422 94.5173 52.0889 94.7413 52.4409 94.912C52.8035 95.0827 53.2195 95.168 53.6889 95.168C54.2009 95.168 54.5849 95.0507 54.8409 94.816C55.0969 94.5813 55.2249 94.2933 55.2249 93.952C55.2249 93.7493 55.1715 93.5733 55.0649 93.424C54.9582 93.2747 54.8195 93.1467 54.6489 93.04C54.4889 92.9227 54.3022 92.8213 54.0889 92.736C53.8755 92.6507 53.6622 92.5653 53.4489 92.48C53.1715 92.384 52.8942 92.2773 52.6169 92.16C52.3395 92.032 52.0889 91.8827 51.8649 91.712C51.6515 91.5307 51.4755 91.3227 51.3369 91.088C51.1982 90.8533 51.1289 90.5707 51.1289 90.24C51.1289 89.9307 51.1875 89.6427 51.3049 89.376C51.4329 89.0987 51.6089 88.864 51.8329 88.672C52.0675 88.4693 52.3502 88.3147 52.6809 88.208C53.0115 88.0907 53.3849 88.032 53.8009 88.032C54.2915 88.032 54.7395 88.1173 55.1449 88.288C55.5609 88.4587 55.9182 88.6667 56.2169 88.912L55.5929 89.744C55.3262 89.5413 55.0489 89.376 54.7609 89.248C54.4729 89.12 54.1582 89.056 53.8169 89.056C53.3262 89.056 52.9635 89.168 52.7289 89.392C52.5049 89.616 52.3929 89.8773 52.3929 90.176C52.3929 90.3573 52.4409 90.5173 52.5369 90.656C52.6329 90.784 52.7609 90.9013 52.9209 91.008C53.0809 91.104 53.2622 91.1947 53.4649 91.28C53.6782 91.3547 53.8969 91.4347 54.1209 91.52C54.3982 91.6267 54.6755 91.7387 54.9529 91.856C55.2409 91.9733 55.4969 92.1227 55.7209 92.304C55.9449 92.4747 56.1262 92.688 56.2649 92.944C56.4142 93.2 56.4889 93.5093 56.4889 93.872C56.4889 94.192 56.4249 94.4907 56.2969 94.768C56.1795 95.0453 55.9982 95.2907 55.7529 95.504C55.5182 95.7173 55.2195 95.8827 54.8569 96C54.5049 96.128 54.0995 96.192 53.6409 96.192Z" fill="#F8FAFF"/>
<path d="M75.44 96V85.504H78.432C79.0187 85.504 79.552 85.5573 80.032 85.664C80.5227 85.7707 80.9387 85.9467 81.28 86.192C81.6213 86.4267 81.888 86.7413 82.08 87.136C82.272 87.5307 82.368 88.016 82.368 88.592C82.368 89.1467 82.272 89.6267 82.08 90.032C81.8987 90.4373 81.6373 90.7733 81.296 91.04C80.9547 91.3067 80.544 91.5093 80.064 91.648C79.5947 91.776 79.072 91.84 78.496 91.84H76.768V96H75.44ZM76.768 90.752H78.336C79.2533 90.752 79.9307 90.5813 80.368 90.24C80.816 89.888 81.04 89.3387 81.04 88.592C81.04 87.8347 80.8053 87.312 80.336 87.024C79.8773 86.7253 79.1893 86.576 78.272 86.576H76.768V90.752ZM84.6245 96V88.224H85.7125L85.8245 89.632H85.8725C86.1392 89.1413 86.4592 88.752 86.8325 88.464C87.2165 88.176 87.6325 88.032 88.0805 88.032C88.3898 88.032 88.6672 88.0853 88.9125 88.192L88.6565 89.344C88.5285 89.3013 88.4112 89.2693 88.3045 89.248C88.1978 89.2267 88.0645 89.216 87.9045 89.216C87.5738 89.216 87.2272 89.3493 86.8645 89.616C86.5125 89.8827 86.2032 90.3467 85.9365 91.008V96H84.6245ZM93.2891 96.192C92.8091 96.192 92.3505 96.1013 91.9131 95.92C91.4865 95.7387 91.1078 95.4773 90.7771 95.136C90.4465 94.784 90.1798 94.3573 89.9771 93.856C89.7851 93.344 89.6891 92.768 89.6891 92.128C89.6891 91.4773 89.7851 90.9013 89.9771 90.4C90.1798 89.888 90.4465 89.456 90.7771 89.104C91.1078 88.752 91.4865 88.4853 91.9131 88.304C92.3505 88.1227 92.8091 88.032 93.2891 88.032C93.7691 88.032 94.2225 88.1227 94.6491 88.304C95.0865 88.4853 95.4705 88.752 95.8011 89.104C96.1318 89.456 96.3931 89.888 96.5851 90.4C96.7878 90.9013 96.8891 91.4773 96.8891 92.128C96.8891 92.768 96.7878 93.344 96.5851 93.856C96.3931 94.3573 96.1318 94.784 95.8011 95.136C95.4705 95.4773 95.0865 95.7387 94.6491 95.92C94.2225 96.1013 93.7691 96.192 93.2891 96.192ZM93.2891 95.104C93.6198 95.104 93.9238 95.0347 94.2011 94.896C94.4785 94.7467 94.7131 94.544 94.9051 94.288C95.1078 94.0213 95.2625 93.7067 95.3691 93.344C95.4758 92.9813 95.5291 92.576 95.5291 92.128C95.5291 91.68 95.4758 91.2747 95.3691 90.912C95.2625 90.5387 95.1078 90.2187 94.9051 89.952C94.7131 89.6853 94.4785 89.4827 94.2011 89.344C93.9238 89.1947 93.6198 89.12 93.2891 89.12C92.9585 89.12 92.6545 89.1947 92.3771 89.344C92.0998 89.4827 91.8598 89.6853 91.6571 89.952C91.4651 90.2187 91.3158 90.5387 91.2091 90.912C91.1025 91.2747 91.0491 91.68 91.0491 92.128C91.0491 92.576 91.1025 92.9813 91.2091 93.344C91.3158 93.7067 91.4651 94.0213 91.6571 94.288C91.8598 94.544 92.0998 94.7467 92.3771 94.896C92.6545 95.0347 92.9585 95.104 93.2891 95.104ZM99.187 99.28V88.224H100.275L100.387 89.12H100.435C100.787 88.8213 101.171 88.5653 101.587 88.352C102.014 88.1387 102.456 88.032 102.915 88.032C103.416 88.032 103.859 88.128 104.243 88.32C104.627 88.5013 104.947 88.768 105.203 89.12C105.459 89.4613 105.651 89.8773 105.779 90.368C105.918 90.848 105.987 91.392 105.987 92C105.987 92.6613 105.896 93.2533 105.715 93.776C105.534 94.288 105.288 94.7253 104.979 95.088C104.67 95.4507 104.312 95.728 103.907 95.92C103.502 96.1013 103.075 96.192 102.627 96.192C102.264 96.192 101.902 96.112 101.539 95.952C101.187 95.792 100.83 95.5733 100.467 95.296L100.499 96.656V99.28H99.187ZM102.403 95.088C102.723 95.088 103.016 95.0187 103.283 94.88C103.56 94.7307 103.795 94.528 103.987 94.272C104.19 94.0053 104.344 93.68 104.451 93.296C104.568 92.912 104.627 92.48 104.627 92C104.627 91.5733 104.59 91.184 104.515 90.832C104.44 90.48 104.318 90.1813 104.147 89.936C103.987 89.68 103.774 89.4827 103.507 89.344C103.251 89.2053 102.942 89.136 102.579 89.136C102.248 89.136 101.912 89.2267 101.571 89.408C101.24 89.5893 100.883 89.8507 100.499 90.192V94.272C100.851 94.5707 101.192 94.784 101.523 94.912C101.854 95.0293 102.147 95.088 102.403 95.088ZM110.344 96.192C109.789 96.192 109.261 96.0907 108.76 95.888C108.259 95.6853 107.821 95.4293 107.448 95.12L108.104 94.24C108.445 94.5173 108.792 94.7413 109.144 94.912C109.507 95.0827 109.923 95.168 110.392 95.168C110.904 95.168 111.288 95.0507 111.544 94.816C111.8 94.5813 111.928 94.2933 111.928 93.952C111.928 93.7493 111.875 93.5733 111.768 93.424C111.661 93.2747 111.523 93.1467 111.352 93.04C111.192 92.9227 111.005 92.8213 110.792 92.736C110.579 92.6507 110.365 92.5653 110.152 92.48C109.875 92.384 109.597 92.2773 109.32 92.16C109.043 92.032 108.792 91.8827 108.568 91.712C108.355 91.5307 108.179 91.3227 108.04 91.088C107.901 90.8533 107.832 90.5707 107.832 90.24C107.832 89.9307 107.891 89.6427 108.008 89.376C108.136 89.0987 108.312 88.864 108.536 88.672C108.771 88.4693 109.053 88.3147 109.384 88.208C109.715 88.0907 110.088 88.032 110.504 88.032C110.995 88.032 111.443 88.1173 111.848 88.288C112.264 88.4587 112.621 88.6667 112.92 88.912L112.296 89.744C112.029 89.5413 111.752 89.376 111.464 89.248C111.176 89.12 110.861 89.056 110.52 89.056C110.029 89.056 109.667 89.168 109.432 89.392C109.208 89.616 109.096 89.8773 109.096 90.176C109.096 90.3573 109.144 90.5173 109.24 90.656C109.336 90.784 109.464 90.9013 109.624 91.008C109.784 91.104 109.965 91.1947 110.168 91.28C110.381 91.3547 110.6 91.4347 110.824 91.52C111.101 91.6267 111.379 91.7387 111.656 91.856C111.944 91.9733 112.2 92.1227 112.424 92.304C112.648 92.4747 112.829 92.688 112.968 92.944C113.117 93.2 113.192 93.5093 113.192 93.872C113.192 94.192 113.128 94.4907 113 94.768C112.883 95.0453 112.701 95.2907 112.456 95.504C112.221 95.7173 111.923 95.8827 111.56 96C111.208 96.128 110.803 96.192 110.344 96.192Z" fill="#7A869A"/>
<rect x="8" y="108" width="58" height="1" fill="#248DE0"/>
<path d="M19.288 137.144C18.76 137.144 18.248 137.044 17.752 136.844C17.264 136.644 16.832 136.36 16.456 135.992L17.272 135.044C17.552 135.308 17.872 135.524 18.232 135.692C18.592 135.852 18.952 135.932 19.312 135.932C19.76 135.932 20.1 135.84 20.332 135.656C20.564 135.472 20.68 135.228 20.68 134.924C20.68 134.764 20.648 134.628 20.584 134.516C20.528 134.404 20.444 134.308 20.332 134.228C20.228 134.14 20.1 134.06 19.948 133.988C19.804 133.916 19.644 133.844 19.468 133.772L18.388 133.304C18.196 133.224 18.004 133.124 17.812 133.004C17.628 132.884 17.46 132.74 17.308 132.572C17.156 132.404 17.032 132.208 16.936 131.984C16.848 131.76 16.804 131.504 16.804 131.216C16.804 130.904 16.868 130.616 16.996 130.352C17.132 130.08 17.316 129.844 17.548 129.644C17.78 129.444 18.056 129.288 18.376 129.176C18.704 129.064 19.06 129.008 19.444 129.008C19.9 129.008 20.34 129.1 20.764 129.284C21.188 129.46 21.552 129.7 21.856 130.004L21.148 130.892C20.892 130.684 20.628 130.52 20.356 130.4C20.084 130.28 19.78 130.22 19.444 130.22C19.068 130.22 18.768 130.304 18.544 130.472C18.32 130.632 18.208 130.856 18.208 131.144C18.208 131.296 18.24 131.428 18.304 131.54C18.376 131.644 18.468 131.74 18.58 131.828C18.7 131.908 18.836 131.984 18.988 132.056C19.14 132.12 19.296 132.184 19.456 132.248L20.524 132.692C20.756 132.788 20.968 132.9 21.16 133.028C21.352 133.156 21.516 133.304 21.652 133.472C21.796 133.64 21.908 133.836 21.988 134.06C22.068 134.276 22.108 134.528 22.108 134.816C22.108 135.136 22.044 135.436 21.916 135.716C21.788 135.996 21.6 136.244 21.352 136.46C21.112 136.668 20.816 136.836 20.464 136.964C20.12 137.084 19.728 137.144 19.288 137.144ZM25.7247 137V130.328H23.4567V129.152H29.3847V130.328H27.1167V137H25.7247ZM32.659 132.824L32.383 133.784H34.387L34.111 132.824C33.983 132.408 33.859 131.98 33.739 131.54C33.627 131.1 33.515 130.664 33.403 130.232H33.355C33.243 130.672 33.131 131.112 33.019 131.552C32.907 131.984 32.787 132.408 32.659 132.824ZM30.031 137L32.587 129.152H34.219L36.775 137H35.311L34.699 134.876H32.059L31.447 137H30.031ZM39.393 137V130.328H37.125V129.152H43.053V130.328H40.785V137H39.393ZM45.1998 137V129.152H49.9278V130.328H46.5918V132.332H49.4118V133.508H46.5918V135.824H50.0478V137H45.1998Z" fill="#AFBED1"/>
<path d="M132 163C132 161.895 131.105 161 130 161H77V193H130C131.105 193 132 192.105 132 191V163Z" fill="#248DE0"/>
<path d="M25.968 182.192C24.9867 182.192 24.2027 181.84 23.616 181.136C23.04 180.432 22.752 179.429 22.752 178.128C22.752 177.499 22.8427 176.933 23.024 176.432C23.216 175.92 23.4667 175.488 23.776 175.136C24.0853 174.784 24.4427 174.512 24.848 174.32C25.2533 174.128 25.68 174.032 26.128 174.032C26.576 174.032 26.9653 174.112 27.296 174.272C27.6267 174.432 27.9627 174.651 28.304 174.928L28.24 173.6V170.608H29.568V182H28.48L28.368 181.088H28.32C28.0107 181.387 27.6533 181.648 27.248 181.872C26.8533 182.085 26.4267 182.192 25.968 182.192ZM26.256 181.088C26.6187 181.088 26.96 181.003 27.28 180.832C27.6 180.651 27.92 180.379 28.24 180.016V175.952C27.9093 175.653 27.5893 175.445 27.28 175.328C26.9813 175.2 26.672 175.136 26.352 175.136C26.0427 175.136 25.7493 175.211 25.472 175.36C25.2053 175.499 24.9707 175.701 24.768 175.968C24.5653 176.224 24.4053 176.533 24.288 176.896C24.1707 177.259 24.112 177.664 24.112 178.112C24.112 179.051 24.2987 179.781 24.672 180.304C25.0453 180.827 25.5733 181.088 26.256 181.088ZM35.589 182.192C35.0663 182.192 34.5757 182.101 34.117 181.92C33.669 181.728 33.2743 181.461 32.933 181.12C32.6023 180.768 32.341 180.341 32.149 179.84C31.957 179.339 31.861 178.768 31.861 178.128C31.861 177.488 31.957 176.917 32.149 176.416C32.3517 175.904 32.613 175.472 32.933 175.12C33.2637 174.768 33.637 174.501 34.053 174.32C34.469 174.128 34.901 174.032 35.349 174.032C35.8397 174.032 36.277 174.117 36.661 174.288C37.0557 174.459 37.381 174.704 37.637 175.024C37.9037 175.344 38.1063 175.728 38.245 176.176C38.3837 176.624 38.453 177.125 38.453 177.68C38.453 177.819 38.4477 177.957 38.437 178.096C38.437 178.224 38.4263 178.336 38.405 178.432H33.157C33.2103 179.264 33.4663 179.925 33.925 180.416C34.3943 180.896 35.0023 181.136 35.749 181.136C36.1223 181.136 36.4637 181.083 36.773 180.976C37.093 180.859 37.397 180.709 37.685 180.528L38.149 181.392C37.8077 181.605 37.429 181.792 37.013 181.952C36.597 182.112 36.1223 182.192 35.589 182.192ZM33.141 177.488H37.301C37.301 176.699 37.1303 176.101 36.789 175.696C36.4583 175.28 35.989 175.072 35.381 175.072C35.1037 175.072 34.837 175.125 34.581 175.232C34.3357 175.339 34.1117 175.499 33.909 175.712C33.7063 175.915 33.5357 176.165 33.397 176.464C33.269 176.763 33.1837 177.104 33.141 177.488ZM40.8485 182V175.296H39.7925V174.304L40.8485 174.224V172.992C40.8485 172.192 41.0298 171.563 41.3925 171.104C41.7658 170.645 42.3418 170.416 43.1205 170.416C43.3658 170.416 43.5952 170.443 43.8085 170.496C44.0325 170.539 44.2352 170.597 44.4165 170.672L44.1285 171.68C43.8405 171.552 43.5472 171.488 43.2485 171.488C42.5232 171.488 42.1605 171.989 42.1605 172.992V174.224H43.8085V175.296H42.1605V182H40.8485ZM47.0259 182.192C46.3752 182.192 45.8312 182 45.3939 181.616C44.9672 181.232 44.7539 180.688 44.7539 179.984C44.7539 179.131 45.1325 178.48 45.8899 178.032C46.6472 177.573 47.8579 177.253 49.5219 177.072C49.5219 176.827 49.4952 176.587 49.4419 176.352C49.3992 176.117 49.3192 175.909 49.2019 175.728C49.0845 175.547 48.9192 175.403 48.7059 175.296C48.5032 175.179 48.2419 175.12 47.9219 175.12C47.4739 175.12 47.0525 175.205 46.6579 175.376C46.2632 175.547 45.9112 175.739 45.6019 175.952L45.0899 175.04C45.4525 174.805 45.8952 174.581 46.4179 174.368C46.9405 174.144 47.5165 174.032 48.1459 174.032C49.0952 174.032 49.7832 174.325 50.2099 174.912C50.6365 175.488 50.8499 176.261 50.8499 177.232V182H49.7619L49.6499 181.072H49.6019C49.2285 181.381 48.8285 181.648 48.4019 181.872C47.9752 182.085 47.5165 182.192 47.0259 182.192ZM47.4099 181.136C47.7832 181.136 48.1352 181.051 48.4659 180.88C48.7965 180.699 49.1485 180.437 49.5219 180.096V177.936C48.8712 178.021 48.3219 178.123 47.8739 178.24C47.4365 178.357 47.0792 178.496 46.8019 178.656C46.5352 178.816 46.3379 179.003 46.2099 179.216C46.0925 179.419 46.0339 179.643 46.0339 179.888C46.0339 180.336 46.1672 180.656 46.4339 180.848C46.7005 181.04 47.0259 181.136 47.4099 181.136ZM55.8184 182.192C54.9864 182.192 54.3784 181.936 53.9944 181.424C53.621 180.912 53.4344 180.155 53.4344 179.152V174.224H54.7624V178.976C54.7624 179.712 54.8744 180.245 55.0984 180.576C55.333 180.896 55.7064 181.056 56.2184 181.056C56.6237 181.056 56.981 180.955 57.2904 180.752C57.5997 180.539 57.941 180.203 58.3144 179.744V174.224H59.6264V182H58.5384L58.4264 180.784H58.3784C58.0157 181.211 57.6317 181.552 57.2264 181.808C56.8317 182.064 56.3624 182.192 55.8184 182.192ZM63.8915 182.192C63.3902 182.192 63.0328 182.043 62.8195 181.744C62.6062 181.445 62.4995 181.008 62.4995 180.432V170.608H63.8115V180.528C63.8115 180.741 63.8488 180.891 63.9235 180.976C63.9982 181.061 64.0835 181.104 64.1795 181.104C64.2222 181.104 64.2595 181.104 64.2915 181.104C64.3342 181.104 64.3928 181.093 64.4675 181.072L64.6435 182.064C64.5582 182.107 64.4568 182.139 64.3395 182.16C64.2222 182.181 64.0728 182.192 63.8915 182.192ZM69.2756 182.192C68.8596 182.192 68.5076 182.128 68.2196 182C67.9423 181.872 67.713 181.696 67.5316 181.472C67.361 181.248 67.2383 180.976 67.1636 180.656C67.089 180.336 67.0516 179.984 67.0516 179.6V175.296H65.8996V174.304L67.1156 174.224L67.2756 172.048H68.3796V174.224H70.4756V175.296H68.3796V179.616C68.3796 180.096 68.465 180.469 68.6356 180.736C68.817 180.992 69.1316 181.12 69.5796 181.12C69.7183 181.12 69.8676 181.099 70.0276 181.056C70.1876 181.013 70.3316 180.965 70.4596 180.912L70.7156 181.904C70.5023 181.979 70.2676 182.043 70.0116 182.096C69.7663 182.16 69.521 182.192 69.2756 182.192Z" fill="#F8FAFF"/>
<path d="M85.312 182V170.608H86.624V173.712L86.576 175.312C86.9493 174.96 87.3387 174.661 87.744 174.416C88.1493 174.16 88.624 174.032 89.168 174.032C89.9893 174.032 90.5867 174.288 90.96 174.8C91.344 175.312 91.536 176.069 91.536 177.072V182H90.224V177.248C90.224 176.512 90.1067 175.984 89.872 175.664C89.6373 175.333 89.264 175.168 88.752 175.168C88.3467 175.168 87.9893 175.269 87.68 175.472C87.3707 175.675 87.0187 175.973 86.624 176.368V182H85.312ZM97.2891 182.192C96.8091 182.192 96.3505 182.101 95.9131 181.92C95.4865 181.739 95.1078 181.477 94.7771 181.136C94.4465 180.784 94.1798 180.357 93.9771 179.856C93.7851 179.344 93.6891 178.768 93.6891 178.128C93.6891 177.477 93.7851 176.901 93.9771 176.4C94.1798 175.888 94.4465 175.456 94.7771 175.104C95.1078 174.752 95.4865 174.485 95.9131 174.304C96.3505 174.123 96.8091 174.032 97.2891 174.032C97.7691 174.032 98.2225 174.123 98.6491 174.304C99.0865 174.485 99.4705 174.752 99.8011 175.104C100.132 175.456 100.393 175.888 100.585 176.4C100.788 176.901 100.889 177.477 100.889 178.128C100.889 178.768 100.788 179.344 100.585 179.856C100.393 180.357 100.132 180.784 99.8011 181.136C99.4705 181.477 99.0865 181.739 98.6491 181.92C98.2225 182.101 97.7691 182.192 97.2891 182.192ZM97.2891 181.104C97.6198 181.104 97.9238 181.035 98.2011 180.896C98.4785 180.747 98.7131 180.544 98.9051 180.288C99.1078 180.021 99.2625 179.707 99.3691 179.344C99.4758 178.981 99.5291 178.576 99.5291 178.128C99.5291 177.68 99.4758 177.275 99.3691 176.912C99.2625 176.539 99.1078 176.219 98.9051 175.952C98.7131 175.685 98.4785 175.483 98.2011 175.344C97.9238 175.195 97.6198 175.12 97.2891 175.12C96.9585 175.12 96.6545 175.195 96.3771 175.344C96.0998 175.483 95.8598 175.685 95.6571 175.952C95.4651 176.219 95.3158 176.539 95.2091 176.912C95.1025 177.275 95.0491 177.68 95.0491 178.128C95.0491 178.576 95.1025 178.981 95.2091 179.344C95.3158 179.707 95.4651 180.021 95.6571 180.288C95.8598 180.544 96.0998 180.747 96.3771 180.896C96.6545 181.035 96.9585 181.104 97.2891 181.104ZM104.805 182L102.005 174.224H103.365L104.837 178.64C104.954 179.024 105.071 179.408 105.189 179.792C105.317 180.176 105.439 180.555 105.557 180.928H105.621C105.738 180.555 105.855 180.176 105.973 179.792C106.09 179.408 106.207 179.024 106.325 178.64L107.797 174.224H109.093L106.341 182H104.805ZM113.933 182.192C113.41 182.192 112.919 182.101 112.461 181.92C112.013 181.728 111.618 181.461 111.277 181.12C110.946 180.768 110.685 180.341 110.493 179.84C110.301 179.339 110.205 178.768 110.205 178.128C110.205 177.488 110.301 176.917 110.493 176.416C110.695 175.904 110.957 175.472 111.277 175.12C111.607 174.768 111.981 174.501 112.397 174.32C112.813 174.128 113.245 174.032 113.693 174.032C114.183 174.032 114.621 174.117 115.005 174.288C115.399 174.459 115.725 174.704 115.981 175.024C116.247 175.344 116.45 175.728 116.589 176.176C116.727 176.624 116.797 177.125 116.797 177.68C116.797 177.819 116.791 177.957 116.781 178.096C116.781 178.224 116.77 178.336 116.749 178.432H111.501C111.554 179.264 111.81 179.925 112.269 180.416C112.738 180.896 113.346 181.136 114.093 181.136C114.466 181.136 114.807 181.083 115.117 180.976C115.437 180.859 115.741 180.709 116.029 180.528L116.493 181.392C116.151 181.605 115.773 181.792 115.357 181.952C114.941 182.112 114.466 182.192 113.933 182.192ZM111.485 177.488H115.645C115.645 176.699 115.474 176.101 115.133 175.696C114.802 175.28 114.333 175.072 113.725 175.072C113.447 175.072 113.181 175.125 112.925 175.232C112.679 175.339 112.455 175.499 112.253 175.712C112.05 175.915 111.879 176.165 111.741 176.464C111.613 176.763 111.527 177.104 111.485 177.488ZM118.968 182V174.224H120.056L120.168 175.632H120.216C120.483 175.141 120.803 174.752 121.176 174.464C121.56 174.176 121.976 174.032 122.424 174.032C122.734 174.032 123.011 174.085 123.256 174.192L123 175.344C122.872 175.301 122.755 175.269 122.648 175.248C122.542 175.227 122.408 175.216 122.248 175.216C121.918 175.216 121.571 175.349 121.208 175.616C120.856 175.883 120.547 176.347 120.28 177.008V182H118.968Z" fill="#F8FAFF"/>
<path d="M47.148 44H50.312C52.328 44 53.826 43.146 53.826 41.312C53.826 40.08 53.084 39.366 51.768 39.142V39.086C52.846 38.806 53.336 37.966 53.336 37.098C53.336 35.418 51.95 34.844 50.074 34.844H47.148V44ZM48.772 38.638V36.104H49.962C51.152 36.104 51.74 36.454 51.74 37.294C51.74 38.148 51.208 38.638 49.92 38.638H48.772ZM48.772 42.74V39.8H50.144C51.502 39.8 52.23 40.248 52.23 41.2C52.23 42.236 51.488 42.74 50.144 42.74H48.772ZM55.1365 40.57C55.1365 42.852 56.6905 44.168 58.3985 44.168C60.1205 44.168 61.6745 42.852 61.6745 40.57C61.6745 38.274 60.1205 36.958 58.3985 36.958C56.6905 36.958 55.1365 38.274 55.1365 40.57ZM56.7885 40.57C56.7885 39.184 57.3905 38.274 58.3985 38.274C59.4065 38.274 60.0225 39.184 60.0225 40.57C60.0225 41.942 59.4065 42.852 58.3985 42.852C57.3905 42.852 56.7885 41.942 56.7885 40.57ZM62.3776 44H64.0576L64.7856 42.642C64.9816 42.222 65.1916 41.816 65.3876 41.424H65.4436C65.6816 41.816 65.9196 42.236 66.1436 42.642L66.9836 44H68.7196L66.5356 40.598L68.5656 37.126H66.8996L66.2416 38.428C66.0736 38.806 65.8776 39.212 65.7096 39.59H65.6536C65.4436 39.212 65.2196 38.806 65.0236 38.428L64.2536 37.126H62.5176L64.5616 40.416L62.3776 44Z" fill="#F8FAFF"/>
<path d="M33 33H23C22.4477 33 22 33.4477 22 34V44C22 44.5523 22.4477 45 23 45H33C33.5523 45 34 44.5523 34 44V34C34 33.4477 33.5523 33 33 33Z" stroke="#33ADFF" stroke-width="1.5"/>
<circle cx="278" cy="39" r="2" fill="#7F8A9E"/>
<circle cx="272" cy="39" r="2" fill="#7F8A9E"/>
<circle cx="266" cy="39" r="2" fill="#7F8A9E"/>
</svg>
