<svg width="148" height="196" viewBox="0 0 148 196" fill="none" xmlns="http://www.w3.org/2000/svg">
<g clip-path="url(#clip0)">
<rect width="148" height="196" fill="#181C22"/>
<rect width="195" height="20" fill="#2C3139"/>
<rect y="20" width="195" height="24" fill="#22262E"/>
<rect x="16" y="20" width="54" height="24" fill="#2C3139"/>
<path d="M41.3332 25H26.6874C25.7669 25 25.0208 25.7462 25.0208 26.6667L25.0208 34.3188C25.0208 35.2393 25.7669 35.9855 26.6874 35.9855H41.3332C42.2537 35.9855 42.9999 35.2393 42.9999 34.3188L42.9999 26.6667C42.9999 25.7462 42.2537 25 41.3332 25Z" stroke="#F8FAFF" stroke-width="1.5" stroke-linecap="round" stroke-linejoin="round"/>
<path d="M30.6667 39.0312H37.3334" stroke="#F8FAFF" stroke-width="1.5" stroke-linecap="round" stroke-linejoin="round"/>
<path d="M34.0105 36L34.0105 39.0312" stroke="#F8FAFF" stroke-width="1.5" stroke-linecap="round" stroke-linejoin="round"/>
<path d="M56 36L52.5359 30L59.4641 30L56 36Z" fill="#637087"/>
<g filter="url(#filter0_dd)">
<rect x="16" y="48" width="117" height="131" rx="2" fill="#0D1117"/>
</g>
<path d="M26 137.5L28.5 139.5L32.5 134.5" stroke="#F8FAFF" stroke-width="1.5" stroke-linecap="round" stroke-linejoin="round"/>
<rect x="16" y="60" width="117" height="22" fill="#248DE0"/>
<path d="M41.08 75V67.128H43.048C44.264 67.128 45.188 67.464 45.82 68.136C46.452 68.808 46.768 69.772 46.768 71.028C46.768 71.652 46.688 72.212 46.528 72.708C46.368 73.196 46.132 73.612 45.82 73.956C45.508 74.292 45.124 74.552 44.668 74.736C44.212 74.912 43.688 75 43.096 75H41.08ZM42.076 74.184H42.976C43.896 74.184 44.584 73.908 45.04 73.356C45.504 72.804 45.736 72.028 45.736 71.028C45.736 70.028 45.504 69.264 45.04 68.736C44.584 68.208 43.896 67.944 42.976 67.944H42.076V74.184ZM50.7308 75.144C50.3388 75.144 49.9708 75.076 49.6268 74.94C49.2908 74.796 48.9948 74.596 48.7388 74.34C48.4908 74.076 48.2948 73.756 48.1508 73.38C48.0068 73.004 47.9348 72.576 47.9348 72.096C47.9348 71.616 48.0068 71.188 48.1508 70.812C48.3028 70.428 48.4988 70.104 48.7388 69.84C48.9868 69.576 49.2668 69.376 49.5788 69.24C49.8908 69.096 50.2148 69.024 50.5508 69.024C50.9188 69.024 51.2468 69.088 51.5348 69.216C51.8308 69.344 52.0748 69.528 52.2668 69.768C52.4668 70.008 52.6188 70.296 52.7228 70.632C52.8268 70.968 52.8788 71.344 52.8788 71.76C52.8788 71.864 52.8748 71.968 52.8668 72.072C52.8668 72.168 52.8588 72.252 52.8428 72.324H48.9068C48.9468 72.948 49.1388 73.444 49.4828 73.812C49.8348 74.172 50.2908 74.352 50.8508 74.352C51.1308 74.352 51.3868 74.312 51.6188 74.232C51.8588 74.144 52.0868 74.032 52.3028 73.896L52.6508 74.544C52.3948 74.704 52.1108 74.844 51.7988 74.964C51.4868 75.084 51.1308 75.144 50.7308 75.144ZM48.8948 71.616H52.0148C52.0148 71.024 51.8868 70.576 51.6308 70.272C51.3828 69.96 51.0308 69.804 50.5748 69.804C50.3668 69.804 50.1668 69.844 49.9748 69.924C49.7908 70.004 49.6228 70.124 49.4708 70.284C49.3188 70.436 49.1908 70.624 49.0868 70.848C48.9908 71.072 48.9268 71.328 48.8948 71.616ZM54.4879 75V69.972H53.6959V69.228L54.4879 69.168V68.244C54.4879 67.644 54.6239 67.172 54.8959 66.828C55.1759 66.484 55.6079 66.312 56.1919 66.312C56.3759 66.312 56.5479 66.332 56.7079 66.372C56.8759 66.404 57.0279 66.448 57.1639 66.504L56.9479 67.26C56.7319 67.164 56.5119 67.116 56.2879 67.116C55.7439 67.116 55.4719 67.492 55.4719 68.244V69.168H56.7079V69.972H55.4719V75H54.4879ZM58.9335 75.144C58.4455 75.144 58.0375 75 57.7095 74.712C57.3895 74.424 57.2295 74.016 57.2295 73.488C57.2295 72.848 57.5135 72.36 58.0815 72.024C58.6495 71.68 59.5575 71.44 60.8055 71.304C60.8055 71.12 60.7855 70.94 60.7455 70.764C60.7135 70.588 60.6535 70.432 60.5655 70.296C60.4775 70.16 60.3535 70.052 60.1935 69.972C60.0415 69.884 59.8455 69.84 59.6055 69.84C59.2695 69.84 58.9535 69.904 58.6575 70.032C58.3615 70.16 58.0975 70.304 57.8655 70.464L57.4815 69.78C57.7535 69.604 58.0855 69.436 58.4775 69.276C58.8695 69.108 59.3015 69.024 59.7735 69.024C60.4855 69.024 61.0015 69.244 61.3215 69.684C61.6415 70.116 61.8015 70.696 61.8015 71.424V75H60.9855L60.9015 74.304H60.8655C60.5855 74.536 60.2855 74.736 59.9655 74.904C59.6455 75.064 59.3015 75.144 58.9335 75.144ZM59.2215 74.352C59.5015 74.352 59.7655 74.288 60.0135 74.16C60.2615 74.024 60.5255 73.828 60.8055 73.572V71.952C60.3175 72.016 59.9055 72.092 59.5695 72.18C59.2415 72.268 58.9735 72.372 58.7655 72.492C58.5655 72.612 58.4175 72.752 58.3215 72.912C58.2335 73.064 58.1895 73.232 58.1895 73.416C58.1895 73.752 58.2895 73.992 58.4895 74.136C58.6895 74.28 58.9335 74.352 59.2215 74.352ZM65.3403 75.144C64.7163 75.144 64.2603 74.952 63.9723 74.568C63.6923 74.184 63.5523 73.616 63.5523 72.864V69.168H64.5483V72.732C64.5483 73.284 64.6323 73.684 64.8003 73.932C64.9763 74.172 65.2563 74.292 65.6403 74.292C65.9443 74.292 66.2123 74.216 66.4443 74.064C66.6763 73.904 66.9323 73.652 67.2123 73.308V69.168H68.1963V75H67.3803L67.2963 74.088H67.2603C66.9883 74.408 66.7003 74.664 66.3963 74.856C66.1003 75.048 65.7483 75.144 65.3403 75.144ZM71.2077 75.144C70.8317 75.144 70.5637 75.032 70.4037 74.808C70.2437 74.584 70.1637 74.256 70.1637 73.824V66.456H71.1477V73.896C71.1477 74.056 71.1757 74.168 71.2317 74.232C71.2877 74.296 71.3517 74.328 71.4237 74.328C71.4557 74.328 71.4837 74.328 71.5077 74.328C71.5397 74.328 71.5837 74.32 71.6397 74.304L71.7717 75.048C71.7077 75.08 71.6317 75.104 71.5437 75.12C71.4557 75.136 71.3437 75.144 71.2077 75.144ZM75.0583 75.144C74.7463 75.144 74.4823 75.096 74.2663 75C74.0583 74.904 73.8863 74.772 73.7503 74.604C73.6223 74.436 73.5303 74.232 73.4743 73.992C73.4183 73.752 73.3903 73.488 73.3903 73.2V69.972H72.5263V69.228L73.4383 69.168L73.5583 67.536H74.3863V69.168H75.9583V69.972H74.3863V73.212C74.3863 73.572 74.4503 73.852 74.5783 74.052C74.7143 74.244 74.9503 74.34 75.2863 74.34C75.3903 74.34 75.5023 74.324 75.6223 74.292C75.7423 74.26 75.8503 74.224 75.9463 74.184L76.1383 74.928C75.9783 74.984 75.8023 75.032 75.6103 75.072C75.4263 75.12 75.2423 75.144 75.0583 75.144ZM81.2633 77.112C80.7673 76.312 80.3793 75.468 80.0993 74.58C79.8193 73.692 79.6793 72.72 79.6793 71.664C79.6793 70.608 79.8193 69.64 80.0993 68.76C80.3793 67.872 80.7673 67.024 81.2633 66.216L81.8753 66.504C81.4113 67.272 81.0633 68.096 80.8313 68.976C80.6073 69.848 80.4953 70.744 80.4953 71.664C80.4953 72.584 80.6073 73.484 80.8313 74.364C81.0633 75.236 81.4113 76.056 81.8753 76.824L81.2633 77.112ZM83.2761 75V74.184H85.0281V68.544H83.6361V67.908C83.9881 67.844 84.2921 67.768 84.5481 67.68C84.8121 67.584 85.0481 67.472 85.2561 67.344H86.0121V74.184H87.5961V75H83.2761ZM88.773 75V74.412C89.349 73.836 89.861 73.316 90.309 72.852C90.757 72.388 91.133 71.96 91.437 71.568C91.741 71.168 91.973 70.804 92.133 70.476C92.293 70.14 92.373 69.816 92.373 69.504C92.373 69.064 92.253 68.704 92.013 68.424C91.773 68.144 91.409 68.004 90.921 68.004C90.601 68.004 90.305 68.096 90.033 68.28C89.761 68.456 89.513 68.672 89.289 68.928L88.725 68.364C89.045 68.012 89.385 67.732 89.745 67.524C90.105 67.308 90.537 67.2 91.041 67.2C91.753 67.2 92.313 67.408 92.721 67.824C93.129 68.232 93.333 68.776 93.333 69.456C93.333 69.816 93.253 70.18 93.093 70.548C92.941 70.908 92.725 71.284 92.445 71.676C92.173 72.06 91.845 72.464 91.461 72.888C91.085 73.304 90.669 73.748 90.213 74.22C90.421 74.204 90.637 74.188 90.861 74.172C91.085 74.156 91.297 74.148 91.497 74.148H93.717V75H88.773ZM97.2578 75.144C96.8978 75.144 96.5618 75.092 96.2498 74.988C95.9458 74.884 95.6818 74.74 95.4578 74.556C95.2418 74.364 95.0698 74.14 94.9418 73.884C94.8138 73.628 94.7498 73.348 94.7498 73.044C94.7498 72.796 94.7898 72.568 94.8698 72.36C94.9578 72.144 95.0658 71.952 95.1938 71.784C95.3298 71.608 95.4818 71.456 95.6498 71.328C95.8258 71.192 96.0058 71.076 96.1898 70.98V70.932C95.9098 70.732 95.6618 70.492 95.4458 70.212C95.2298 69.924 95.1218 69.576 95.1218 69.168C95.1218 68.872 95.1778 68.604 95.2898 68.364C95.4018 68.124 95.5538 67.92 95.7458 67.752C95.9378 67.576 96.1658 67.44 96.4298 67.344C96.6938 67.248 96.9818 67.2 97.2938 67.2C97.6298 67.2 97.9298 67.252 98.1938 67.356C98.4578 67.452 98.6818 67.592 98.8658 67.776C99.0578 67.952 99.2018 68.168 99.2978 68.424C99.4018 68.672 99.4538 68.944 99.4538 69.24C99.4538 69.44 99.4178 69.632 99.3458 69.816C99.2818 70 99.1978 70.172 99.0938 70.332C98.9978 70.492 98.8858 70.636 98.7578 70.764C98.6378 70.892 98.5178 71 98.3978 71.088V71.136C98.5658 71.232 98.7298 71.344 98.8898 71.472C99.0498 71.592 99.1898 71.732 99.3098 71.892C99.4378 72.044 99.5378 72.22 99.6098 72.42C99.6898 72.62 99.7298 72.848 99.7298 73.104C99.7298 73.392 99.6698 73.66 99.5498 73.908C99.4298 74.156 99.2618 74.372 99.0458 74.556C98.8298 74.74 98.5698 74.884 98.2658 74.988C97.9618 75.092 97.6258 75.144 97.2578 75.144ZM97.7978 70.824C98.0538 70.592 98.2498 70.348 98.3858 70.092C98.5298 69.836 98.6018 69.568 98.6018 69.288C98.6018 68.904 98.4858 68.584 98.2538 68.328C98.0218 68.064 97.6938 67.932 97.2698 67.932C96.9098 67.932 96.6138 68.044 96.3818 68.268C96.1498 68.492 96.0338 68.792 96.0338 69.168C96.0338 69.4 96.0818 69.6 96.1778 69.768C96.2738 69.928 96.4018 70.072 96.5618 70.2C96.7298 70.328 96.9178 70.444 97.1258 70.548C97.3418 70.644 97.5658 70.736 97.7978 70.824ZM97.2818 74.412C97.7298 74.412 98.0898 74.288 98.3618 74.04C98.6418 73.792 98.7818 73.468 98.7818 73.068C98.7818 72.82 98.7258 72.608 98.6138 72.432C98.5018 72.256 98.3498 72.104 98.1578 71.976C97.9658 71.84 97.7418 71.72 97.4858 71.616C97.2378 71.504 96.9778 71.392 96.7058 71.28C96.4018 71.488 96.1458 71.732 95.9378 72.012C95.7378 72.284 95.6378 72.596 95.6378 72.948C95.6378 73.164 95.6778 73.36 95.7578 73.536C95.8458 73.712 95.9618 73.868 96.1058 74.004C96.2578 74.132 96.4338 74.232 96.6338 74.304C96.8338 74.376 97.0498 74.412 97.2818 74.412ZM103.211 75.144C102.435 75.144 101.831 74.8 101.399 74.112C100.967 73.424 100.751 72.436 100.751 71.148C100.751 69.86 100.967 68.88 101.399 68.208C101.831 67.536 102.435 67.2 103.211 67.2C103.979 67.2 104.579 67.536 105.011 68.208C105.443 68.88 105.659 69.86 105.659 71.148C105.659 72.436 105.443 73.424 105.011 74.112C104.579 74.8 103.979 75.144 103.211 75.144ZM103.211 74.352C103.435 74.352 103.635 74.292 103.811 74.172C103.995 74.044 104.151 73.852 104.279 73.596C104.415 73.332 104.519 73 104.591 72.6C104.663 72.192 104.699 71.708 104.699 71.148C104.699 70.588 104.663 70.108 104.591 69.708C104.519 69.308 104.415 68.984 104.279 68.736C104.151 68.48 103.995 68.292 103.811 68.172C103.635 68.052 103.435 67.992 103.211 67.992C102.987 67.992 102.783 68.052 102.599 68.172C102.415 68.292 102.255 68.48 102.119 68.736C101.991 68.984 101.891 69.308 101.819 69.708C101.747 70.108 101.711 70.588 101.711 71.148C101.711 72.268 101.847 73.084 102.119 73.596C102.399 74.1 102.763 74.352 103.211 74.352ZM107.256 77.112L106.644 76.824C107.108 76.056 107.452 75.236 107.676 74.364C107.908 73.484 108.024 72.584 108.024 71.664C108.024 70.744 107.908 69.848 107.676 68.976C107.452 68.096 107.108 67.272 106.644 66.504L107.256 66.216C107.752 67.024 108.14 67.872 108.42 68.76C108.7 69.64 108.84 70.608 108.84 71.664C108.84 72.72 108.7 73.692 108.42 74.58C108.14 75.468 107.752 76.312 107.256 77.112ZM40.408 95.164V94.312L42.928 93.436L44.548 92.908V92.86L42.928 92.332L40.408 91.456V90.604L45.556 92.44V93.328L40.408 95.164ZM40.408 97V96.256H45.556V97H40.408ZM49.3152 97V96.184H51.0672V90.544H49.6752V89.908C50.0272 89.844 50.3312 89.768 50.5872 89.68C50.8512 89.584 51.0872 89.472 51.2952 89.344H52.0512V96.184H53.6352V97H49.3152ZM57.164 97.144C56.86 97.144 56.58 97.112 56.324 97.048C56.076 96.992 55.848 96.916 55.64 96.82C55.432 96.716 55.244 96.6 55.076 96.472C54.916 96.344 54.772 96.208 54.644 96.064L55.148 95.416C55.38 95.656 55.648 95.868 55.952 96.052C56.264 96.236 56.648 96.328 57.104 96.328C57.568 96.328 57.948 96.204 58.244 95.956C58.54 95.7 58.688 95.356 58.688 94.924C58.688 94.7 58.644 94.496 58.556 94.312C58.476 94.12 58.34 93.956 58.148 93.82C57.956 93.684 57.704 93.58 57.392 93.508C57.08 93.436 56.696 93.4 56.24 93.4V92.644C56.648 92.644 56.988 92.608 57.26 92.536C57.54 92.464 57.764 92.364 57.932 92.236C58.108 92.108 58.232 91.956 58.304 91.78C58.376 91.604 58.412 91.416 58.412 91.216C58.412 90.84 58.292 90.544 58.052 90.328C57.82 90.112 57.5 90.004 57.092 90.004C56.772 90.004 56.476 90.076 56.204 90.22C55.94 90.364 55.692 90.552 55.46 90.784L54.932 90.16C55.228 89.88 55.552 89.652 55.904 89.476C56.264 89.292 56.672 89.2 57.128 89.2C57.464 89.2 57.772 89.244 58.052 89.332C58.332 89.42 58.572 89.548 58.772 89.716C58.98 89.876 59.14 90.076 59.252 90.316C59.364 90.556 59.42 90.832 59.42 91.144C59.42 91.608 59.292 91.988 59.036 92.284C58.78 92.58 58.444 92.808 58.028 92.968V93.016C58.26 93.072 58.476 93.156 58.676 93.268C58.876 93.372 59.052 93.508 59.204 93.676C59.356 93.836 59.472 94.024 59.552 94.24C59.64 94.456 59.684 94.696 59.684 94.96C59.684 95.296 59.616 95.6 59.48 95.872C59.352 96.144 59.172 96.376 58.94 96.568C58.716 96.752 58.452 96.896 58.148 97C57.844 97.096 57.516 97.144 57.164 97.144ZM63.5129 97.144C63.1369 97.144 62.7889 97.068 62.4689 96.916C62.1489 96.764 61.8689 96.536 61.6289 96.232C61.3969 95.92 61.2129 95.536 61.0769 95.08C60.9409 94.616 60.8729 94.076 60.8729 93.46C60.8729 92.692 60.9529 92.04 61.1129 91.504C61.2729 90.96 61.4889 90.52 61.7609 90.184C62.0329 89.84 62.3409 89.592 62.6849 89.44C63.0369 89.28 63.4049 89.2 63.7889 89.2C64.2049 89.2 64.5609 89.28 64.8569 89.44C65.1609 89.592 65.4209 89.784 65.6369 90.016L65.0849 90.628C64.9249 90.444 64.7329 90.3 64.5089 90.196C64.2929 90.084 64.0649 90.028 63.8249 90.028C63.5609 90.028 63.3089 90.084 63.0689 90.196C62.8289 90.308 62.6169 90.492 62.4329 90.748C62.2489 91.004 62.1009 91.34 61.9889 91.756C61.8769 92.164 61.8169 92.672 61.8089 93.28C62.0489 92.984 62.3289 92.752 62.6489 92.584C62.9689 92.408 63.2849 92.32 63.5969 92.32C64.2609 92.32 64.7889 92.516 65.1809 92.908C65.5809 93.3 65.7809 93.892 65.7809 94.684C65.7809 95.052 65.7209 95.388 65.6009 95.692C65.4809 95.988 65.3169 96.244 65.1089 96.46C64.9009 96.676 64.6609 96.844 64.3889 96.964C64.1169 97.084 63.8249 97.144 63.5129 97.144ZM63.5129 96.364C63.7049 96.364 63.8809 96.324 64.0409 96.244C64.2009 96.164 64.3409 96.052 64.4609 95.908C64.5809 95.756 64.6729 95.58 64.7369 95.38C64.8089 95.172 64.8449 94.94 64.8449 94.684C64.8449 94.18 64.7289 93.784 64.4969 93.496C64.2649 93.208 63.9089 93.064 63.4289 93.064C63.1809 93.064 62.9129 93.144 62.6249 93.304C62.3369 93.456 62.0729 93.712 61.8329 94.072C61.8969 94.824 62.0689 95.396 62.3489 95.788C62.6369 96.172 63.0249 96.364 63.5129 96.364ZM69.4777 97.144C69.1017 97.144 68.7537 97.068 68.4337 96.916C68.1137 96.764 67.8337 96.536 67.5937 96.232C67.3617 95.92 67.1777 95.536 67.0417 95.08C66.9057 94.616 66.8377 94.076 66.8377 93.46C66.8377 92.692 66.9177 92.04 67.0777 91.504C67.2377 90.96 67.4537 90.52 67.7257 90.184C67.9977 89.84 68.3057 89.592 68.6497 89.44C69.0017 89.28 69.3697 89.2 69.7537 89.2C70.1697 89.2 70.5257 89.28 70.8217 89.44C71.1257 89.592 71.3857 89.784 71.6017 90.016L71.0497 90.628C70.8897 90.444 70.6977 90.3 70.4737 90.196C70.2577 90.084 70.0297 90.028 69.7897 90.028C69.5257 90.028 69.2737 90.084 69.0337 90.196C68.7937 90.308 68.5817 90.492 68.3977 90.748C68.2137 91.004 68.0657 91.34 67.9537 91.756C67.8417 92.164 67.7817 92.672 67.7737 93.28C68.0137 92.984 68.2937 92.752 68.6137 92.584C68.9337 92.408 69.2497 92.32 69.5617 92.32C70.2257 92.32 70.7537 92.516 71.1457 92.908C71.5457 93.3 71.7457 93.892 71.7457 94.684C71.7457 95.052 71.6857 95.388 71.5657 95.692C71.4457 95.988 71.2817 96.244 71.0737 96.46C70.8657 96.676 70.6257 96.844 70.3537 96.964C70.0817 97.084 69.7897 97.144 69.4777 97.144ZM69.4777 96.364C69.6697 96.364 69.8457 96.324 70.0057 96.244C70.1657 96.164 70.3057 96.052 70.4257 95.908C70.5457 95.756 70.6377 95.58 70.7017 95.38C70.7737 95.172 70.8097 94.94 70.8097 94.684C70.8097 94.18 70.6937 93.784 70.4617 93.496C70.2297 93.208 69.8737 93.064 69.3937 93.064C69.1457 93.064 68.8777 93.144 68.5897 93.304C68.3017 93.456 68.0377 93.712 67.7977 94.072C67.8617 94.824 68.0337 95.396 68.3137 95.788C68.6017 96.172 68.9897 96.364 69.4777 96.364ZM75.1209 94.324V93.64H83.7369V94.324H75.1209ZM86.8203 97L88.7283 93.952L86.9643 91.168H88.0323L88.8123 92.452C88.9003 92.612 88.9923 92.776 89.0883 92.944C89.1843 93.104 89.2843 93.264 89.3883 93.424H89.4363C89.5243 93.264 89.6123 93.104 89.7003 92.944C89.7883 92.776 89.8763 92.612 89.9643 92.452L90.6723 91.168H91.7043L89.9403 94.06L91.8363 97H90.7683L89.9163 95.644C89.8123 95.468 89.7083 95.292 89.6043 95.116C89.5003 94.94 89.3923 94.768 89.2803 94.6H89.2323C89.1283 94.768 89.0283 94.94 88.9323 95.116C88.8363 95.284 88.7403 95.46 88.6443 95.644L87.8523 97H86.8203ZM94.0358 97.144C93.6598 97.144 93.3918 97.032 93.2318 96.808C93.0718 96.584 92.9918 96.256 92.9918 95.824V88.456H93.9758V95.896C93.9758 96.056 94.0038 96.168 94.0598 96.232C94.1158 96.296 94.1798 96.328 94.2518 96.328C94.2838 96.328 94.3118 96.328 94.3358 96.328C94.3678 96.328 94.4118 96.32 94.4678 96.304L94.5998 97.048C94.5358 97.08 94.4598 97.104 94.3718 97.12C94.2838 97.136 94.1718 97.144 94.0358 97.144ZM45.556 117.164L40.408 115.328V114.44L45.556 112.604V113.456L43.036 114.332L41.416 114.86V114.908L43.036 115.436L45.556 116.312V117.164ZM40.408 119V118.256H45.556V119H40.408ZM51.1872 115.28C51.4432 115.28 51.7112 115.2 51.9912 115.04C52.2792 114.88 52.5472 114.62 52.7952 114.26C52.7312 113.508 52.5552 112.94 52.2672 112.556C51.9792 112.172 51.5912 111.98 51.1032 111.98C50.9192 111.98 50.7432 112.02 50.5752 112.1C50.4152 112.18 50.2752 112.296 50.1552 112.448C50.0352 112.592 49.9392 112.768 49.8672 112.976C49.8032 113.184 49.7712 113.412 49.7712 113.66C49.7712 114.164 49.8872 114.56 50.1192 114.848C50.3512 115.136 50.7072 115.28 51.1872 115.28ZM50.8272 119.144C50.4192 119.144 50.0592 119.068 49.7472 118.916C49.4432 118.764 49.1872 118.572 48.9792 118.34L49.5312 117.716C49.6912 117.9 49.8792 118.048 50.0952 118.16C50.3192 118.272 50.5512 118.328 50.7912 118.328C51.0632 118.328 51.3192 118.272 51.5592 118.16C51.7992 118.048 52.0112 117.864 52.1952 117.608C52.3792 117.344 52.5272 117.004 52.6392 116.588C52.7512 116.172 52.8112 115.656 52.8192 115.04C52.5792 115.344 52.2992 115.584 51.9792 115.76C51.6592 115.936 51.3392 116.024 51.0192 116.024C50.3552 116.024 49.8272 115.828 49.4352 115.436C49.0432 115.044 48.8472 114.452 48.8472 113.66C48.8472 113.292 48.9072 112.96 49.0272 112.664C49.1472 112.36 49.3072 112.1 49.5072 111.884C49.7152 111.668 49.9552 111.5 50.2272 111.38C50.5072 111.26 50.7992 111.2 51.1032 111.2C51.4792 111.2 51.8272 111.276 52.1472 111.428C52.4752 111.58 52.7552 111.812 52.9872 112.124C53.2272 112.428 53.4112 112.812 53.5392 113.276C53.6752 113.732 53.7432 114.268 53.7432 114.884C53.7432 115.652 53.6632 116.308 53.5032 116.852C53.3432 117.388 53.1272 117.828 52.8552 118.172C52.5832 118.508 52.2712 118.756 51.9192 118.916C51.5752 119.068 51.2112 119.144 50.8272 119.144ZM57.152 115.28C57.408 115.28 57.676 115.2 57.956 115.04C58.244 114.88 58.512 114.62 58.76 114.26C58.696 113.508 58.52 112.94 58.232 112.556C57.944 112.172 57.556 111.98 57.068 111.98C56.884 111.98 56.708 112.02 56.54 112.1C56.38 112.18 56.24 112.296 56.12 112.448C56 112.592 55.904 112.768 55.832 112.976C55.768 113.184 55.736 113.412 55.736 113.66C55.736 114.164 55.852 114.56 56.084 114.848C56.316 115.136 56.672 115.28 57.152 115.28ZM56.792 119.144C56.384 119.144 56.024 119.068 55.712 118.916C55.408 118.764 55.152 118.572 54.944 118.34L55.496 117.716C55.656 117.9 55.844 118.048 56.06 118.16C56.284 118.272 56.516 118.328 56.756 118.328C57.028 118.328 57.284 118.272 57.524 118.16C57.764 118.048 57.976 117.864 58.16 117.608C58.344 117.344 58.492 117.004 58.604 116.588C58.716 116.172 58.776 115.656 58.784 115.04C58.544 115.344 58.264 115.584 57.944 115.76C57.624 115.936 57.304 116.024 56.984 116.024C56.32 116.024 55.792 115.828 55.4 115.436C55.008 115.044 54.812 114.452 54.812 113.66C54.812 113.292 54.872 112.96 54.992 112.664C55.112 112.36 55.272 112.1 55.472 111.884C55.68 111.668 55.92 111.5 56.192 111.38C56.472 111.26 56.764 111.2 57.068 111.2C57.444 111.2 57.792 111.276 58.112 111.428C58.44 111.58 58.72 111.812 58.952 112.124C59.192 112.428 59.376 112.812 59.504 113.276C59.64 113.732 59.708 114.268 59.708 114.884C59.708 115.652 59.628 116.308 59.468 116.852C59.308 117.388 59.092 117.828 58.82 118.172C58.548 118.508 58.236 118.756 57.884 118.916C57.54 119.068 57.176 119.144 56.792 119.144ZM60.7769 119V118.412C61.3529 117.836 61.8649 117.316 62.3129 116.852C62.7609 116.388 63.1369 115.96 63.4409 115.568C63.7449 115.168 63.9769 114.804 64.1369 114.476C64.2969 114.14 64.3769 113.816 64.3769 113.504C64.3769 113.064 64.2569 112.704 64.0169 112.424C63.7769 112.144 63.4129 112.004 62.9249 112.004C62.6049 112.004 62.3089 112.096 62.0369 112.28C61.7649 112.456 61.5169 112.672 61.2929 112.928L60.7289 112.364C61.0489 112.012 61.3889 111.732 61.7489 111.524C62.1089 111.308 62.5409 111.2 63.0449 111.2C63.7569 111.2 64.3169 111.408 64.7249 111.824C65.1329 112.232 65.3369 112.776 65.3369 113.456C65.3369 113.816 65.2569 114.18 65.0969 114.548C64.9449 114.908 64.7289 115.284 64.4489 115.676C64.1769 116.06 63.8489 116.464 63.4649 116.888C63.0889 117.304 62.6729 117.748 62.2169 118.22C62.4249 118.204 62.6409 118.188 62.8649 118.172C63.0889 118.156 63.3009 118.148 63.5009 118.148H65.7209V119H60.7769ZM69.1561 116.324V115.64H77.7721V116.324H69.1561ZM82.7155 119.144C82.3395 119.144 82.0715 119.032 81.9115 118.808C81.7515 118.584 81.6715 118.256 81.6715 117.824V110.456H82.6555V117.896C82.6555 118.056 82.6835 118.168 82.7395 118.232C82.7955 118.296 82.8595 118.328 82.9315 118.328C82.9635 118.328 82.9915 118.328 83.0155 118.328C83.0475 118.328 83.0915 118.32 83.1475 118.304L83.2795 119.048C83.2155 119.08 83.1395 119.104 83.0515 119.12C82.9635 119.136 82.8515 119.144 82.7155 119.144ZM86.6981 121.688C86.3381 121.688 86.0101 121.652 85.7141 121.58C85.4181 121.516 85.1621 121.416 84.9461 121.28C84.7381 121.144 84.5741 120.98 84.4541 120.788C84.3421 120.596 84.2861 120.372 84.2861 120.116C84.2861 119.868 84.3621 119.632 84.5141 119.408C84.6661 119.184 84.8741 118.98 85.1381 118.796V118.748C84.9941 118.66 84.8701 118.54 84.7661 118.388C84.6701 118.228 84.6221 118.032 84.6221 117.8C84.6221 117.552 84.6901 117.336 84.8261 117.152C84.9621 116.968 85.1061 116.824 85.2581 116.72V116.672C85.0661 116.512 84.8901 116.3 84.7301 116.036C84.5781 115.764 84.5021 115.452 84.5021 115.1C84.5021 114.78 84.5581 114.492 84.6701 114.236C84.7901 113.98 84.9501 113.764 85.1501 113.588C85.3501 113.404 85.5821 113.264 85.8461 113.168C86.1181 113.072 86.4021 113.024 86.6981 113.024C86.8581 113.024 87.0061 113.04 87.1421 113.072C87.2861 113.096 87.4141 113.128 87.5261 113.168H89.5541V113.924H88.3541C88.4901 114.06 88.6021 114.232 88.6901 114.44C88.7861 114.648 88.8341 114.876 88.8341 115.124C88.8341 115.436 88.7781 115.72 88.6661 115.976C88.5541 116.224 88.4021 116.436 88.2101 116.612C88.0181 116.78 87.7901 116.912 87.5261 117.008C87.2701 117.104 86.9941 117.152 86.6981 117.152C86.5541 117.152 86.4061 117.136 86.2541 117.104C86.1021 117.064 85.9581 117.012 85.8221 116.948C85.7181 117.036 85.6301 117.136 85.5581 117.248C85.4861 117.352 85.4501 117.484 85.4501 117.644C85.4501 117.828 85.5221 117.98 85.6661 118.1C85.8101 118.22 86.0821 118.28 86.4821 118.28H87.6101C88.2901 118.28 88.7981 118.392 89.1341 118.616C89.4781 118.832 89.6501 119.184 89.6501 119.672C89.6501 119.944 89.5821 120.2 89.4461 120.44C89.3101 120.688 89.1141 120.904 88.8581 121.088C88.6021 121.272 88.2901 121.416 87.9221 121.52C87.5621 121.632 87.1541 121.688 86.6981 121.688ZM86.6981 116.492C86.8661 116.492 87.0221 116.46 87.1661 116.396C87.3181 116.332 87.4501 116.24 87.5621 116.12C87.6821 116 87.7741 115.856 87.8381 115.688C87.9021 115.512 87.9341 115.316 87.9341 115.1C87.9341 114.668 87.8141 114.336 87.5741 114.104C87.3341 113.864 87.0421 113.744 86.6981 113.744C86.3541 113.744 86.0621 113.864 85.8221 114.104C85.5821 114.336 85.4621 114.668 85.4621 115.1C85.4621 115.316 85.4941 115.512 85.5581 115.688C85.6221 115.856 85.7101 116 85.8221 116.12C85.9421 116.24 86.0741 116.332 86.2181 116.396C86.3701 116.46 86.5301 116.492 86.6981 116.492ZM86.8421 121.004C87.1221 121.004 87.3741 120.968 87.5981 120.896C87.8301 120.832 88.0261 120.744 88.1861 120.632C88.3461 120.528 88.4701 120.404 88.5581 120.26C88.6461 120.116 88.6901 119.968 88.6901 119.816C88.6901 119.544 88.5901 119.356 88.3901 119.252C88.1901 119.148 87.8981 119.096 87.5141 119.096H86.5061C86.3941 119.096 86.2701 119.088 86.1341 119.072C86.0061 119.064 85.8781 119.04 85.7501 119C85.5421 119.152 85.3901 119.312 85.2941 119.48C85.1981 119.648 85.1501 119.816 85.1501 119.984C85.1501 120.296 85.2981 120.544 85.5941 120.728C85.8981 120.912 86.3141 121.004 86.8421 121.004ZM45.556 139.164L40.408 137.328V136.44L45.556 134.604V135.456L43.036 136.332L41.416 136.86V136.908L43.036 137.436L45.556 138.312V139.164ZM40.408 141V140.256H45.556V141H40.408ZM50.4912 141C50.5232 140.28 50.5872 139.62 50.6832 139.02C50.7792 138.42 50.9112 137.852 51.0792 137.316C51.2552 136.772 51.4752 136.248 51.7392 135.744C52.0112 135.24 52.3352 134.724 52.7112 134.196H48.8952V133.344H53.8272V133.956C53.3712 134.532 52.9992 135.084 52.7112 135.612C52.4312 136.14 52.2072 136.68 52.0392 137.232C51.8712 137.776 51.7472 138.356 51.6672 138.972C51.5952 139.58 51.5432 140.256 51.5112 141H50.4912ZM57.548 141.144C57.172 141.144 56.824 141.068 56.504 140.916C56.184 140.764 55.904 140.536 55.664 140.232C55.432 139.92 55.248 139.536 55.112 139.08C54.976 138.616 54.908 138.076 54.908 137.46C54.908 136.692 54.988 136.04 55.148 135.504C55.308 134.96 55.524 134.52 55.796 134.184C56.068 133.84 56.376 133.592 56.72 133.44C57.072 133.28 57.44 133.2 57.824 133.2C58.24 133.2 58.596 133.28 58.892 133.44C59.196 133.592 59.456 133.784 59.672 134.016L59.12 134.628C58.96 134.444 58.768 134.3 58.544 134.196C58.328 134.084 58.1 134.028 57.86 134.028C57.596 134.028 57.344 134.084 57.104 134.196C56.864 134.308 56.652 134.492 56.468 134.748C56.284 135.004 56.136 135.34 56.024 135.756C55.912 136.164 55.852 136.672 55.844 137.28C56.084 136.984 56.364 136.752 56.684 136.584C57.004 136.408 57.32 136.32 57.632 136.32C58.296 136.32 58.824 136.516 59.216 136.908C59.616 137.3 59.816 137.892 59.816 138.684C59.816 139.052 59.756 139.388 59.636 139.692C59.516 139.988 59.352 140.244 59.144 140.46C58.936 140.676 58.696 140.844 58.424 140.964C58.152 141.084 57.86 141.144 57.548 141.144ZM57.548 140.364C57.74 140.364 57.916 140.324 58.076 140.244C58.236 140.164 58.376 140.052 58.496 139.908C58.616 139.756 58.708 139.58 58.772 139.38C58.844 139.172 58.88 138.94 58.88 138.684C58.88 138.18 58.764 137.784 58.532 137.496C58.3 137.208 57.944 137.064 57.464 137.064C57.216 137.064 56.948 137.144 56.66 137.304C56.372 137.456 56.108 137.712 55.868 138.072C55.932 138.824 56.104 139.396 56.384 139.788C56.672 140.172 57.06 140.364 57.548 140.364ZM63.2969 141.144C62.9369 141.144 62.6009 141.092 62.2889 140.988C61.9849 140.884 61.7209 140.74 61.4969 140.556C61.2809 140.364 61.1089 140.14 60.9809 139.884C60.8529 139.628 60.7889 139.348 60.7889 139.044C60.7889 138.796 60.8289 138.568 60.9089 138.36C60.9969 138.144 61.1049 137.952 61.2329 137.784C61.3689 137.608 61.5209 137.456 61.6889 137.328C61.8649 137.192 62.0449 137.076 62.2289 136.98V136.932C61.9489 136.732 61.7009 136.492 61.4849 136.212C61.2689 135.924 61.1609 135.576 61.1609 135.168C61.1609 134.872 61.2169 134.604 61.3289 134.364C61.4409 134.124 61.5929 133.92 61.7849 133.752C61.9769 133.576 62.2049 133.44 62.4689 133.344C62.7329 133.248 63.0209 133.2 63.3329 133.2C63.6689 133.2 63.9689 133.252 64.2329 133.356C64.4969 133.452 64.7209 133.592 64.9049 133.776C65.0969 133.952 65.2409 134.168 65.3369 134.424C65.4409 134.672 65.4929 134.944 65.4929 135.24C65.4929 135.44 65.4569 135.632 65.3849 135.816C65.3209 136 65.2369 136.172 65.1329 136.332C65.0369 136.492 64.9249 136.636 64.7969 136.764C64.6769 136.892 64.5569 137 64.4369 137.088V137.136C64.6049 137.232 64.7689 137.344 64.9289 137.472C65.0889 137.592 65.2289 137.732 65.3489 137.892C65.4769 138.044 65.5769 138.22 65.6489 138.42C65.7289 138.62 65.7689 138.848 65.7689 139.104C65.7689 139.392 65.7089 139.66 65.5889 139.908C65.4689 140.156 65.3009 140.372 65.0849 140.556C64.8689 140.74 64.6089 140.884 64.3049 140.988C64.0009 141.092 63.6649 141.144 63.2969 141.144ZM63.8369 136.824C64.0929 136.592 64.2889 136.348 64.4249 136.092C64.5689 135.836 64.6409 135.568 64.6409 135.288C64.6409 134.904 64.5249 134.584 64.2929 134.328C64.0609 134.064 63.7329 133.932 63.3089 133.932C62.9489 133.932 62.6529 134.044 62.4209 134.268C62.1889 134.492 62.0729 134.792 62.0729 135.168C62.0729 135.4 62.1209 135.6 62.2169 135.768C62.3129 135.928 62.4409 136.072 62.6009 136.2C62.7689 136.328 62.9569 136.444 63.1649 136.548C63.3809 136.644 63.6049 136.736 63.8369 136.824ZM63.3209 140.412C63.7689 140.412 64.1289 140.288 64.4009 140.04C64.6809 139.792 64.8209 139.468 64.8209 139.068C64.8209 138.82 64.7649 138.608 64.6529 138.432C64.5409 138.256 64.3889 138.104 64.1969 137.976C64.0049 137.84 63.7809 137.72 63.5249 137.616C63.2769 137.504 63.0169 137.392 62.7449 137.28C62.4409 137.488 62.1849 137.732 61.9769 138.012C61.7769 138.284 61.6769 138.596 61.6769 138.948C61.6769 139.164 61.7169 139.36 61.7969 139.536C61.8849 139.712 62.0009 139.868 62.1449 140.004C62.2969 140.132 62.4729 140.232 62.6729 140.304C62.8729 140.376 63.0889 140.412 63.3209 140.412ZM69.1561 138.324V137.64H77.7721V138.324H69.1561ZM81.6715 141V135.168H82.4875L82.5715 136.008H82.6075C82.8635 135.728 83.1395 135.496 83.4355 135.312C83.7395 135.12 84.0675 135.024 84.4195 135.024C84.8675 135.024 85.2155 135.124 85.4635 135.324C85.7195 135.516 85.9075 135.788 86.0275 136.14C86.3315 135.804 86.6355 135.536 86.9395 135.336C87.2515 135.128 87.5875 135.024 87.9475 135.024C88.5475 135.024 88.9915 135.216 89.2795 135.6C89.5755 135.984 89.7235 136.552 89.7235 137.304V141H88.7395V137.436C88.7395 136.884 88.6515 136.488 88.4755 136.248C88.2995 136 88.0275 135.876 87.6595 135.876C87.2195 135.876 86.7315 136.176 86.1955 136.776V141H85.2115V137.436C85.2115 136.884 85.1235 136.488 84.9475 136.248C84.7715 136 84.4955 135.876 84.1195 135.876C83.6795 135.876 83.1915 136.176 82.6555 136.776V141H81.6715ZM93.6127 141.144C92.8767 141.144 92.2887 140.88 91.8487 140.352C91.4167 139.824 91.2007 139.072 91.2007 138.096C91.2007 137.624 91.2687 137.2 91.4047 136.824C91.5487 136.44 91.7367 136.116 91.9687 135.852C92.2007 135.588 92.4687 135.384 92.7727 135.24C93.0767 135.096 93.3967 135.024 93.7327 135.024C94.0687 135.024 94.3607 135.084 94.6087 135.204C94.8567 135.324 95.1087 135.488 95.3647 135.696L95.3167 134.7V132.456H96.3127V141H95.4967L95.4127 140.316H95.3767C95.1447 140.54 94.8767 140.736 94.5727 140.904C94.2767 141.064 93.9567 141.144 93.6127 141.144ZM93.8287 140.316C94.1007 140.316 94.3567 140.252 94.5967 140.124C94.8367 139.988 95.0767 139.784 95.3167 139.512V136.464C95.0687 136.24 94.8287 136.084 94.5967 135.996C94.3727 135.9 94.1407 135.852 93.9007 135.852C93.6687 135.852 93.4487 135.908 93.2407 136.02C93.0407 136.124 92.8647 136.276 92.7127 136.476C92.5607 136.668 92.4407 136.9 92.3527 137.172C92.2647 137.444 92.2207 137.748 92.2207 138.084C92.2207 138.788 92.3607 139.336 92.6407 139.728C92.9207 140.12 93.3167 140.316 93.8287 140.316ZM45.556 161.164L40.408 159.328V158.44L45.556 156.604V157.456L43.036 158.332L41.416 158.86V158.908L43.036 159.436L45.556 160.312V161.164ZM40.408 163V162.256H45.556V163H40.408ZM51.1752 163.144C50.8712 163.144 50.5912 163.112 50.3352 163.048C50.0872 162.992 49.8592 162.916 49.6512 162.82C49.4512 162.724 49.2672 162.616 49.0992 162.496C48.9392 162.368 48.7952 162.236 48.6672 162.1L49.1472 161.452C49.3712 161.684 49.6352 161.888 49.9392 162.064C50.2512 162.24 50.6312 162.328 51.0792 162.328C51.3112 162.328 51.5272 162.288 51.7272 162.208C51.9352 162.12 52.1152 162 52.2672 161.848C52.4192 161.696 52.5392 161.512 52.6272 161.296C52.7152 161.08 52.7592 160.84 52.7592 160.576C52.7592 160.048 52.6112 159.636 52.3152 159.34C52.0192 159.044 51.6232 158.896 51.1272 158.896C50.8632 158.896 50.6352 158.936 50.4432 159.016C50.2592 159.096 50.0512 159.212 49.8192 159.364L49.2912 159.028L49.5432 155.344H53.3712V156.196H50.4072L50.2032 158.464C50.3872 158.368 50.5712 158.292 50.7552 158.236C50.9392 158.18 51.1472 158.152 51.3792 158.152C51.7072 158.152 52.0152 158.2 52.3032 158.296C52.5912 158.392 52.8432 158.54 53.0592 158.74C53.2752 158.932 53.4432 159.18 53.5632 159.484C53.6912 159.78 53.7552 160.136 53.7552 160.552C53.7552 160.968 53.6832 161.336 53.5392 161.656C53.3952 161.976 53.2032 162.248 52.9632 162.472C52.7232 162.688 52.4472 162.856 52.1352 162.976C51.8312 163.088 51.5112 163.144 51.1752 163.144ZM56.456 163C56.488 162.28 56.552 161.62 56.648 161.02C56.744 160.42 56.876 159.852 57.044 159.316C57.22 158.772 57.44 158.248 57.704 157.744C57.976 157.24 58.3 156.724 58.676 156.196H54.86V155.344H59.792V155.956C59.336 156.532 58.964 157.084 58.676 157.612C58.396 158.14 58.172 158.68 58.004 159.232C57.836 159.776 57.712 160.356 57.632 160.972C57.56 161.58 57.508 162.256 57.476 163H56.456ZM63.5129 163.144C63.1369 163.144 62.7889 163.068 62.4689 162.916C62.1489 162.764 61.8689 162.536 61.6289 162.232C61.3969 161.92 61.2129 161.536 61.0769 161.08C60.9409 160.616 60.8729 160.076 60.8729 159.46C60.8729 158.692 60.9529 158.04 61.1129 157.504C61.2729 156.96 61.4889 156.52 61.7609 156.184C62.0329 155.84 62.3409 155.592 62.6849 155.44C63.0369 155.28 63.4049 155.2 63.7889 155.2C64.2049 155.2 64.5609 155.28 64.8569 155.44C65.1609 155.592 65.4209 155.784 65.6369 156.016L65.0849 156.628C64.9249 156.444 64.7329 156.3 64.5089 156.196C64.2929 156.084 64.0649 156.028 63.8249 156.028C63.5609 156.028 63.3089 156.084 63.0689 156.196C62.8289 156.308 62.6169 156.492 62.4329 156.748C62.2489 157.004 62.1009 157.34 61.9889 157.756C61.8769 158.164 61.8169 158.672 61.8089 159.28C62.0489 158.984 62.3289 158.752 62.6489 158.584C62.9689 158.408 63.2849 158.32 63.5969 158.32C64.2609 158.32 64.7889 158.516 65.1809 158.908C65.5809 159.3 65.7809 159.892 65.7809 160.684C65.7809 161.052 65.7209 161.388 65.6009 161.692C65.4809 161.988 65.3169 162.244 65.1089 162.46C64.9009 162.676 64.6609 162.844 64.3889 162.964C64.1169 163.084 63.8249 163.144 63.5129 163.144ZM63.5129 162.364C63.7049 162.364 63.8809 162.324 64.0409 162.244C64.2009 162.164 64.3409 162.052 64.4609 161.908C64.5809 161.756 64.6729 161.58 64.7369 161.38C64.8089 161.172 64.8449 160.94 64.8449 160.684C64.8449 160.18 64.7289 159.784 64.4969 159.496C64.2649 159.208 63.9089 159.064 63.4289 159.064C63.1809 159.064 62.9129 159.144 62.6249 159.304C62.3369 159.456 62.0729 159.712 61.8329 160.072C61.8969 160.824 62.0689 161.396 62.3489 161.788C62.6369 162.172 63.0249 162.364 63.5129 162.364ZM69.1561 160.324V159.64H77.7721V160.324H69.1561ZM83.1955 163.144C82.7795 163.144 82.3835 163.068 82.0075 162.916C81.6315 162.764 81.3035 162.572 81.0235 162.34L81.5155 161.68C81.7715 161.888 82.0315 162.056 82.2955 162.184C82.5675 162.312 82.8795 162.376 83.2315 162.376C83.6155 162.376 83.9035 162.288 84.0955 162.112C84.2875 161.936 84.3835 161.72 84.3835 161.464C84.3835 161.312 84.3435 161.18 84.2635 161.068C84.1835 160.956 84.0795 160.86 83.9515 160.78C83.8315 160.692 83.6915 160.616 83.5315 160.552C83.3715 160.488 83.2115 160.424 83.0515 160.36C82.8435 160.288 82.6355 160.208 82.4275 160.12C82.2195 160.024 82.0315 159.912 81.8635 159.784C81.7035 159.648 81.5715 159.492 81.4675 159.316C81.3635 159.14 81.3115 158.928 81.3115 158.68C81.3115 158.448 81.3555 158.232 81.4435 158.032C81.5395 157.824 81.6715 157.648 81.8395 157.504C82.0155 157.352 82.2275 157.236 82.4755 157.156C82.7235 157.068 83.0035 157.024 83.3155 157.024C83.6835 157.024 84.0195 157.088 84.3235 157.216C84.6355 157.344 84.9035 157.5 85.1275 157.684L84.6595 158.308C84.4595 158.156 84.2515 158.032 84.0355 157.936C83.8195 157.84 83.5835 157.792 83.3275 157.792C82.9595 157.792 82.6875 157.876 82.5115 158.044C82.3435 158.212 82.2595 158.408 82.2595 158.632C82.2595 158.768 82.2955 158.888 82.3675 158.992C82.4395 159.088 82.5355 159.176 82.6555 159.256C82.7755 159.328 82.9115 159.396 83.0635 159.46C83.2235 159.516 83.3875 159.576 83.5555 159.64C83.7635 159.72 83.9715 159.804 84.1795 159.892C84.3955 159.98 84.5875 160.092 84.7555 160.228C84.9235 160.356 85.0595 160.516 85.1635 160.708C85.2755 160.9 85.3315 161.132 85.3315 161.404C85.3315 161.644 85.2835 161.868 85.1875 162.076C85.0995 162.284 84.9635 162.468 84.7795 162.628C84.6035 162.788 84.3795 162.912 84.1075 163C83.8435 163.096 83.5395 163.144 83.1955 163.144ZM86.6988 163V157.168H87.5148L87.5988 158.008H87.6348C87.8908 157.728 88.1668 157.496 88.4628 157.312C88.7668 157.12 89.0948 157.024 89.4468 157.024C89.8948 157.024 90.2428 157.124 90.4908 157.324C90.7468 157.516 90.9348 157.788 91.0548 158.14C91.3588 157.804 91.6628 157.536 91.9668 157.336C92.2788 157.128 92.6148 157.024 92.9748 157.024C93.5748 157.024 94.0188 157.216 94.3068 157.6C94.6028 157.984 94.7508 158.552 94.7508 159.304V163H93.7668V159.436C93.7668 158.884 93.6788 158.488 93.5028 158.248C93.3268 158 93.0548 157.876 92.6868 157.876C92.2468 157.876 91.7588 158.176 91.2228 158.776V163H90.2388V159.436C90.2388 158.884 90.1508 158.488 89.9748 158.248C89.7988 158 89.5228 157.876 89.1468 157.876C88.7068 157.876 88.2188 158.176 87.6828 158.776V163H86.6988Z" fill="#F8FAFF"/>
<g filter="url(#filter1_d)">
<mask id="path-12-outside-1" maskUnits="userSpaceOnUse" x="77" y="73" width="16" height="19" fill="black">
<rect fill="white" x="77" y="73" width="16" height="19"/>
<path fill-rule="evenodd" clip-rule="evenodd" d="M81.8355 84L80.9489 82.6453C80.3435 81.7203 79.054 81.3829 78.0677 81.89L78.2975 81.7718C78.0527 81.8977 77.9353 82.2114 78.0361 82.4721L79.2634 85.6474C79.458 86.1508 79.9549 86.8627 80.3666 87.2203C80.3666 87.2203 82.8355 89.2639 82.8355 90.03V91H86.8355L87.8355 89L88.8355 91H89.8355V90.03C89.8355 89.2639 91.3444 86.8507 91.3444 86.8507C91.6221 86.3816 91.8536 85.5552 91.8536 85.0066V80.9718C91.8355 80.0785 91.0762 79.3545 90.1393 79.3545C89.6705 79.3545 89.2909 79.7165 89.2909 80.1634V80.4866C89.2909 79.5933 88.5315 78.8693 87.5946 78.8693C87.1258 78.8693 86.7462 79.2313 86.7462 79.6782V80.0013C86.7462 79.108 85.9868 78.3841 85.0499 78.3841C84.5812 78.3841 84.2015 78.7461 84.2015 79.193V79.5161C84.2015 79.3726 84.1862 79.2584 84.1565 79.168L83.8977 75.0012C83.8627 74.4378 83.3878 74 82.8355 74C82.2794 74 81.8355 74.4476 81.8355 74.9998V79V84ZM88.8536 83L89.8536 83V87H88.8536V83V83ZM86.8536 83L87.8536 83V87H86.8536V83V83ZM84.8536 83L85.8536 83V87H84.8536V83V83Z"/>
</mask>
<path fill-rule="evenodd" clip-rule="evenodd" d="M81.8355 84L80.9489 82.6453C80.3435 81.7203 79.054 81.3829 78.0677 81.89L78.2975 81.7718C78.0527 81.8977 77.9353 82.2114 78.0361 82.4721L79.2634 85.6474C79.458 86.1508 79.9549 86.8627 80.3666 87.2203C80.3666 87.2203 82.8355 89.2639 82.8355 90.03V91H86.8355L87.8355 89L88.8355 91H89.8355V90.03C89.8355 89.2639 91.3444 86.8507 91.3444 86.8507C91.6221 86.3816 91.8536 85.5552 91.8536 85.0066V80.9718C91.8355 80.0785 91.0762 79.3545 90.1393 79.3545C89.6705 79.3545 89.2909 79.7165 89.2909 80.1634V80.4866C89.2909 79.5933 88.5315 78.8693 87.5946 78.8693C87.1258 78.8693 86.7462 79.2313 86.7462 79.6782V80.0013C86.7462 79.108 85.9868 78.3841 85.0499 78.3841C84.5812 78.3841 84.2015 78.7461 84.2015 79.193V79.5161C84.2015 79.3726 84.1862 79.2584 84.1565 79.168L83.8977 75.0012C83.8627 74.4378 83.3878 74 82.8355 74C82.2794 74 81.8355 74.4476 81.8355 74.9998V79V84ZM88.8536 83L89.8536 83V87H88.8536V83V83ZM86.8536 83L87.8536 83V87H86.8536V83V83ZM84.8536 83L85.8536 83V87H84.8536V83V83Z" fill="white"/>
<path d="M81.8355 84L80.9988 84.5476L82.8355 87.354V84H81.8355ZM80.9489 82.6453L81.7857 82.0977L81.7857 82.0977L80.9489 82.6453ZM78.0361 82.4721L77.1034 82.8327L77.1034 82.8327L78.0361 82.4721ZM79.2634 85.6474L80.1962 85.2869L80.1962 85.2869L79.2634 85.6474ZM80.3666 87.2203L79.7109 87.9753L79.7198 87.9831L79.729 87.9907L80.3666 87.2203ZM82.8355 91H81.8355V92H82.8355V91ZM86.8355 91V92H87.4536L87.73 91.4472L86.8355 91ZM87.8355 89L88.73 88.5528L87.8355 86.7639L86.9411 88.5528L87.8355 89ZM88.8355 91L87.9411 91.4472L88.2175 92H88.8355V91ZM89.8355 91V92H90.8355V91H89.8355ZM91.3444 86.8507L92.1923 87.3808L92.1987 87.3706L92.2049 87.3602L91.3444 86.8507ZM91.8536 80.9718H92.8536V80.9617L92.8534 80.9516L91.8536 80.9718ZM84.1565 79.168L83.1584 79.23L83.1664 79.3578L83.2063 79.4795L84.1565 79.168ZM83.8977 75.0012L82.8997 75.0632L82.8997 75.0632L83.8977 75.0012ZM81.8355 74.9998H80.8355H81.8355ZM89.8536 83H90.8536V82L89.8536 82L89.8536 83ZM89.8536 87V88H90.8536V87H89.8536ZM88.8536 87H87.8536V88H88.8536V87ZM87.8536 83H88.8536V82L87.8536 82L87.8536 83ZM87.8536 87V88H88.8536V87H87.8536ZM86.8536 87H85.8536V88H86.8536V87ZM85.8536 83H86.8536V82L85.8536 82L85.8536 83ZM85.8536 87V88H86.8536V87H85.8536ZM84.8536 87H83.8536V88H84.8536V87ZM82.6723 83.4524L81.7857 82.0977L80.1122 83.193L80.9988 84.5476L82.6723 83.4524ZM81.7857 82.0977C80.8981 80.7415 79.0489 80.2611 77.6105 81.0006L78.5249 82.7793C79.0592 82.5047 79.789 82.6992 80.1122 83.193L81.7857 82.0977ZM78.5249 82.7793L78.7547 82.6612L77.8403 80.8825L77.6105 81.0006L78.5249 82.7793ZM77.8403 80.8825C77.1311 81.2471 76.8222 82.1052 77.1034 82.8327L78.9689 82.1116C79.0145 82.2295 79.0045 82.3396 78.974 82.4213C78.9436 82.5027 78.8765 82.5986 78.7547 82.6612L77.8403 80.8825ZM77.1034 82.8327L78.3306 86.0079L80.1962 85.2869L78.9689 82.1116L77.1034 82.8327ZM78.3306 86.0079C78.5834 86.6618 79.1747 87.5096 79.7109 87.9753L81.0223 86.4653C80.735 86.2158 80.3326 85.6398 80.1962 85.2869L78.3306 86.0079ZM80.3666 87.2203C79.729 87.9907 79.7289 87.9906 79.7289 87.9906C79.7289 87.9906 79.7288 87.9905 79.7288 87.9905C79.7288 87.9905 79.7288 87.9905 79.7289 87.9906C79.729 87.9907 79.7293 87.9909 79.7297 87.9912C79.7305 87.9919 79.7319 87.993 79.7338 87.9947C79.7377 87.9979 79.7438 88.003 79.752 88.0099C79.7685 88.0237 79.7932 88.0445 79.8251 88.0716C79.8889 88.1259 79.9811 88.205 80.092 88.3025C80.3149 88.4985 80.6089 88.7648 80.9001 89.051C81.1958 89.3416 81.4677 89.6324 81.6587 89.8795C81.7547 90.0037 81.813 90.0948 81.8432 90.1524C81.8837 90.23 81.8355 90.1741 81.8355 90.03H83.8355C83.8355 89.6944 83.7102 89.407 83.6158 89.2262C83.5109 89.0255 83.3763 88.8312 83.2409 88.6561C82.969 88.3045 82.6236 87.9407 82.302 87.6247C81.976 87.3042 81.6528 87.0118 81.4128 86.8007C81.2922 86.6947 81.1915 86.6081 81.1203 86.5476C81.0847 86.5174 81.0564 86.4935 81.0367 86.477C81.0268 86.4687 81.019 86.4623 81.0136 86.4577C81.0109 86.4555 81.0087 86.4537 81.0071 86.4524C81.0064 86.4517 81.0057 86.4512 81.0052 86.4508C81.005 86.4506 81.0048 86.4504 81.0046 86.4503C81.0045 86.4502 81.0044 86.4501 81.0044 86.4501C81.0043 86.45 81.0042 86.45 80.3666 87.2203ZM81.8355 90.03V91H83.8355V90.03H81.8355ZM82.8355 92H86.8355V90H82.8355V92ZM87.73 91.4472L88.73 89.4472L86.9411 88.5528L85.9411 90.5528L87.73 91.4472ZM86.9411 89.4472L87.9411 91.4472L89.73 90.5528L88.73 88.5528L86.9411 89.4472ZM88.8355 92H89.8355V90H88.8355V92ZM90.8355 91V90.03H88.8355V91H90.8355ZM90.8355 90.03C90.8355 90.0658 90.8465 89.9439 90.9921 89.6C91.1161 89.3073 91.2882 88.9649 91.47 88.6279C91.6502 88.2941 91.8315 87.9809 91.9685 87.7503C92.0367 87.6354 92.0934 87.5418 92.1327 87.4775C92.1524 87.4453 92.1677 87.4206 92.1778 87.4041C92.1829 87.3959 92.1867 87.3897 92.1892 87.3858C92.1904 87.3839 92.1913 87.3825 92.1918 87.3816C92.1921 87.3812 92.1922 87.3809 92.1923 87.3808C92.1924 87.3807 92.1924 87.3807 92.1924 87.3807C92.1924 87.3807 92.1924 87.3807 92.1923 87.3807C92.1923 87.3808 92.1923 87.3808 91.3444 86.8507C90.4965 86.3205 90.4964 86.3206 90.4964 86.3207C90.4964 86.3207 90.4963 86.3208 90.4963 86.3209C90.4962 86.321 90.4961 86.3212 90.4959 86.3214C90.4956 86.3219 90.4953 86.3225 90.4948 86.3232C90.4939 86.3247 90.4926 86.3268 90.4909 86.3294C90.4877 86.3347 90.483 86.3422 90.477 86.3518C90.4651 86.3711 90.448 86.3989 90.4264 86.4342C90.3832 86.5049 90.322 86.6059 90.2488 86.7291C90.1029 86.9749 89.907 87.3129 89.7099 87.6782C89.5145 88.0402 89.3094 88.4448 89.1505 88.82C89.0132 89.1441 88.8355 89.6112 88.8355 90.03H90.8355ZM92.2049 87.3602C92.4027 87.0261 92.5593 86.6131 92.6668 86.2258C92.7741 85.839 92.8536 85.4009 92.8536 85.0066H90.8536C90.8536 85.161 90.8175 85.4103 90.7396 85.6912C90.6618 85.9714 90.5639 86.2061 90.4839 86.3412L92.2049 87.3602ZM92.8536 85.0066V80.9718H90.8536V85.0066H92.8536ZM92.8534 80.9516C92.8237 79.4818 91.5879 78.3545 90.1393 78.3545V80.3545C90.5646 80.3545 90.8474 80.6752 90.8538 80.992L92.8534 80.9516ZM90.1393 78.3545C89.1637 78.3545 88.2909 79.1198 88.2909 80.1634H90.2909C90.2909 80.2317 90.2602 80.2858 90.2293 80.3152C90.1994 80.3437 90.1653 80.3545 90.1393 80.3545V78.3545ZM88.2909 80.1634V80.4866H90.2909V80.1634H88.2909ZM90.2909 80.4866C90.2909 78.9966 89.0383 77.8693 87.5946 77.8693V79.8693C88.0247 79.8693 88.2909 80.19 88.2909 80.4866H90.2909ZM87.5946 77.8693C86.6191 77.8693 85.7462 78.6346 85.7462 79.6782H87.7462C87.7462 79.7465 87.7155 79.8005 87.6847 79.8299C87.6547 79.8585 87.6206 79.8693 87.5946 79.8693V77.8693ZM85.7462 79.6782V80.0013H87.7462V79.6782H85.7462ZM87.7462 80.0013C87.7462 78.5113 86.4936 77.3841 85.0499 77.3841V79.3841C85.4801 79.3841 85.7462 79.7047 85.7462 80.0013H87.7462ZM85.0499 77.3841C84.0744 77.3841 83.2015 78.1494 83.2015 79.193H85.2015C85.2015 79.2613 85.1708 79.3153 85.14 79.3447C85.11 79.3733 85.0759 79.3841 85.0499 79.3841V77.3841ZM83.2015 79.193V79.5161H85.2015V79.193H83.2015ZM85.2015 79.5161C85.2015 79.3088 85.1803 79.0809 85.1068 78.8565L83.2063 79.4795C83.1984 79.4555 83.1976 79.4444 83.1985 79.4516C83.1995 79.4587 83.2015 79.4791 83.2015 79.5161H85.2015ZM85.1546 79.106L84.8958 74.9392L82.8997 75.0632L83.1584 79.23L85.1546 79.106ZM84.8958 74.9392C84.8279 73.845 83.9125 73 82.8355 73V75C82.8444 75 82.8602 75.0035 82.8772 75.0193C82.8933 75.0344 82.8988 75.0498 82.8997 75.0632L84.8958 74.9392ZM82.8355 73C81.7248 73 80.8355 73.8977 80.8355 74.9998L82.8355 74.9998V75V73ZM80.8355 74.9998V79H82.8355V74.9998H80.8355ZM80.8355 79V84H82.8355V79H80.8355ZM88.8536 84L89.8536 84L89.8536 82L88.8536 82L88.8536 84ZM88.8536 83V87H90.8536V83H88.8536ZM89.8536 86H88.8536V88H89.8536V86ZM89.8536 87V83H87.8536V87H89.8536ZM86.8536 84L87.8536 84L87.8536 82L86.8536 82L86.8536 84ZM86.8536 83V87H88.8536V83H86.8536ZM87.8536 86H86.8536V88H87.8536V86ZM87.8536 87V83H85.8536V87H87.8536ZM84.8536 84L85.8536 84L85.8536 82L84.8536 82L84.8536 84ZM84.8536 83V87H86.8536V83H84.8536ZM85.8536 86H84.8536V88H85.8536V86ZM85.8536 87V83H83.8536V87H85.8536Z" fill="black" fill-opacity="0.8" mask="url(#path-12-outside-1)"/>
</g>
</g>
<defs>
<filter id="filter0_dd" x="4" y="40" width="141" height="155" filterUnits="userSpaceOnUse" color-interpolation-filters="sRGB">
<feFlood flood-opacity="0" result="BackgroundImageFix"/>
<feColorMatrix in="SourceAlpha" type="matrix" values="0 0 0 0 0 0 0 0 0 0 0 0 0 0 0 0 0 0 127 0"/>
<feOffset dy="4"/>
<feGaussianBlur stdDeviation="6"/>
<feColorMatrix type="matrix" values="0 0 0 0 0 0 0 0 0 0 0 0 0 0 0 0 0 0 0.12 0"/>
<feBlend mode="normal" in2="BackgroundImageFix" result="effect1_dropShadow"/>
<feColorMatrix in="SourceAlpha" type="matrix" values="0 0 0 0 0 0 0 0 0 0 0 0 0 0 0 0 0 0 127 0"/>
<feOffset dy="1"/>
<feGaussianBlur stdDeviation="1"/>
<feColorMatrix type="matrix" values="0 0 0 0 0 0 0 0 0 0 0 0 0 0 0 0 0 0 0.05 0"/>
<feBlend mode="normal" in2="effect1_dropShadow" result="effect2_dropShadow"/>
<feBlend mode="normal" in="SourceGraphic" in2="effect2_dropShadow" result="shape"/>
</filter>
<filter id="filter1_d" x="74.0002" y="71" width="21.8535" height="25" filterUnits="userSpaceOnUse" color-interpolation-filters="sRGB">
<feFlood flood-opacity="0" result="BackgroundImageFix"/>
<feColorMatrix in="SourceAlpha" type="matrix" values="0 0 0 0 0 0 0 0 0 0 0 0 0 0 0 0 0 0 127 0"/>
<feOffset dy="1"/>
<feGaussianBlur stdDeviation="1.5"/>
<feColorMatrix type="matrix" values="0 0 0 0 0 0 0 0 0 0 0 0 0 0 0 0 0 0 0.2 0"/>
<feBlend mode="normal" in2="BackgroundImageFix" result="effect1_dropShadow"/>
<feBlend mode="normal" in="SourceGraphic" in2="effect1_dropShadow" result="shape"/>
</filter>
<clipPath id="clip0">
<rect width="148" height="196" fill="white"/>
</clipPath>
</defs>
</svg>
