<svg width="249" height="73" viewBox="0 0 249 73" fill="none" xmlns="http://www.w3.org/2000/svg">
<rect width="249" height="73" rx="4" fill="#22262E"/>
<path d="M17.08 26V18.128H19.324C19.764 18.128 20.164 18.168 20.524 18.248C20.892 18.328 21.204 18.46 21.46 18.644C21.716 18.82 21.916 19.056 22.06 19.352C22.204 19.648 22.276 20.012 22.276 20.444C22.276 20.86 22.204 21.22 22.06 21.524C21.924 21.828 21.728 22.08 21.472 22.28C21.216 22.48 20.908 22.632 20.548 22.736C20.196 22.832 19.804 22.88 19.372 22.88H18.076V26H17.08ZM18.076 22.064H19.252C19.94 22.064 20.448 21.936 20.776 21.68C21.112 21.416 21.28 21.004 21.28 20.444C21.28 19.876 21.104 19.484 20.752 19.268C20.408 19.044 19.892 18.932 19.204 18.932H18.076V22.064ZM26.0059 26.144C25.6459 26.144 25.3019 26.076 24.9739 25.94C24.6539 25.804 24.3699 25.608 24.1219 25.352C23.8739 25.088 23.6739 24.768 23.5219 24.392C23.3779 24.008 23.3059 23.576 23.3059 23.096C23.3059 22.608 23.3779 22.176 23.5219 21.8C23.6739 21.416 23.8739 21.092 24.1219 20.828C24.3699 20.564 24.6539 20.364 24.9739 20.228C25.3019 20.092 25.6459 20.024 26.0059 20.024C26.3659 20.024 26.7059 20.092 27.0259 20.228C27.3539 20.364 27.6419 20.564 27.8899 20.828C28.1379 21.092 28.3339 21.416 28.4779 21.8C28.6299 22.176 28.7059 22.608 28.7059 23.096C28.7059 23.576 28.6299 24.008 28.4779 24.392C28.3339 24.768 28.1379 25.088 27.8899 25.352C27.6419 25.608 27.3539 25.804 27.0259 25.94C26.7059 26.076 26.3659 26.144 26.0059 26.144ZM26.0059 25.328C26.2539 25.328 26.4819 25.276 26.6899 25.172C26.8979 25.06 27.0739 24.908 27.2179 24.716C27.3699 24.516 27.4859 24.28 27.5659 24.008C27.6459 23.736 27.6859 23.432 27.6859 23.096C27.6859 22.76 27.6459 22.456 27.5659 22.184C27.4859 21.904 27.3699 21.664 27.2179 21.464C27.0739 21.264 26.8979 21.112 26.6899 21.008C26.4819 20.896 26.2539 20.84 26.0059 20.84C25.7579 20.84 25.5299 20.896 25.3219 21.008C25.1139 21.112 24.9339 21.264 24.7819 21.464C24.6379 21.664 24.5259 21.904 24.4459 22.184C24.3659 22.456 24.3259 22.76 24.3259 23.096C24.3259 23.432 24.3659 23.736 24.4459 24.008C24.5259 24.28 24.6379 24.516 24.7819 24.716C24.9339 24.908 25.1139 25.06 25.3219 25.172C25.5299 25.276 25.7579 25.328 26.0059 25.328ZM32.0158 26.144C31.5998 26.144 31.2038 26.068 30.8278 25.916C30.4518 25.764 30.1238 25.572 29.8438 25.34L30.3358 24.68C30.5918 24.888 30.8518 25.056 31.1158 25.184C31.3878 25.312 31.6998 25.376 32.0518 25.376C32.4358 25.376 32.7238 25.288 32.9158 25.112C33.1078 24.936 33.2038 24.72 33.2038 24.464C33.2038 24.312 33.1638 24.18 33.0838 24.068C33.0038 23.956 32.8998 23.86 32.7718 23.78C32.6518 23.692 32.5118 23.616 32.3518 23.552C32.1918 23.488 32.0318 23.424 31.8718 23.36C31.6638 23.288 31.4558 23.208 31.2478 23.12C31.0398 23.024 30.8518 22.912 30.6838 22.784C30.5238 22.648 30.3918 22.492 30.2878 22.316C30.1838 22.14 30.1318 21.928 30.1318 21.68C30.1318 21.448 30.1758 21.232 30.2638 21.032C30.3598 20.824 30.4918 20.648 30.6598 20.504C30.8358 20.352 31.0478 20.236 31.2958 20.156C31.5438 20.068 31.8238 20.024 32.1358 20.024C32.5038 20.024 32.8398 20.088 33.1438 20.216C33.4558 20.344 33.7238 20.5 33.9478 20.684L33.4798 21.308C33.2798 21.156 33.0718 21.032 32.8558 20.936C32.6398 20.84 32.4038 20.792 32.1478 20.792C31.7798 20.792 31.5078 20.876 31.3318 21.044C31.1638 21.212 31.0798 21.408 31.0798 21.632C31.0798 21.768 31.1158 21.888 31.1878 21.992C31.2598 22.088 31.3558 22.176 31.4758 22.256C31.5958 22.328 31.7318 22.396 31.8838 22.46C32.0438 22.516 32.2078 22.576 32.3758 22.64C32.5838 22.72 32.7918 22.804 32.9998 22.892C33.2158 22.98 33.4078 23.092 33.5758 23.228C33.7438 23.356 33.8798 23.516 33.9838 23.708C34.0958 23.9 34.1518 24.132 34.1518 24.404C34.1518 24.644 34.1038 24.868 34.0078 25.076C33.9198 25.284 33.7838 25.468 33.5998 25.628C33.4238 25.788 33.1998 25.912 32.9278 26C32.6638 26.096 32.3598 26.144 32.0158 26.144ZM35.7692 26V20.168H36.7532V26H35.7692ZM36.2732 18.968C36.0812 18.968 35.9172 18.908 35.7812 18.788C35.6532 18.668 35.5892 18.516 35.5892 18.332C35.5892 18.14 35.6532 17.988 35.7812 17.876C35.9172 17.756 36.0812 17.696 36.2732 17.696C36.4652 17.696 36.6252 17.756 36.7532 17.876C36.8892 17.988 36.9572 18.14 36.9572 18.332C36.9572 18.516 36.8892 18.668 36.7532 18.788C36.6252 18.908 36.4652 18.968 36.2732 18.968ZM40.8083 26.144C40.4963 26.144 40.2323 26.096 40.0163 26C39.8083 25.904 39.6363 25.772 39.5003 25.604C39.3723 25.436 39.2803 25.232 39.2243 24.992C39.1683 24.752 39.1403 24.488 39.1403 24.2V20.972H38.2763V20.228L39.1883 20.168L39.3083 18.536H40.1363V20.168H41.7083V20.972H40.1363V24.212C40.1363 24.572 40.2003 24.852 40.3283 25.052C40.4643 25.244 40.7003 25.34 41.0363 25.34C41.1403 25.34 41.2523 25.324 41.3723 25.292C41.4923 25.26 41.6003 25.224 41.6963 25.184L41.8883 25.928C41.7283 25.984 41.5523 26.032 41.3603 26.072C41.1763 26.12 40.9923 26.144 40.8083 26.144ZM43.277 26V20.168H44.261V26H43.277ZM43.781 18.968C43.589 18.968 43.425 18.908 43.289 18.788C43.161 18.668 43.097 18.516 43.097 18.332C43.097 18.14 43.161 17.988 43.289 17.876C43.425 17.756 43.589 17.696 43.781 17.696C43.973 17.696 44.133 17.756 44.261 17.876C44.397 17.988 44.465 18.14 44.465 18.332C44.465 18.516 44.397 18.668 44.261 18.788C44.133 18.908 43.973 18.968 43.781 18.968ZM48.7481 26.144C48.3881 26.144 48.0441 26.076 47.7161 25.94C47.3961 25.804 47.1121 25.608 46.8641 25.352C46.6161 25.088 46.4161 24.768 46.2641 24.392C46.1201 24.008 46.0481 23.576 46.0481 23.096C46.0481 22.608 46.1201 22.176 46.2641 21.8C46.4161 21.416 46.6161 21.092 46.8641 20.828C47.1121 20.564 47.3961 20.364 47.7161 20.228C48.0441 20.092 48.3881 20.024 48.7481 20.024C49.1081 20.024 49.4481 20.092 49.7681 20.228C50.0961 20.364 50.3841 20.564 50.6321 20.828C50.8801 21.092 51.0761 21.416 51.2201 21.8C51.3721 22.176 51.4481 22.608 51.4481 23.096C51.4481 23.576 51.3721 24.008 51.2201 24.392C51.0761 24.768 50.8801 25.088 50.6321 25.352C50.3841 25.608 50.0961 25.804 49.7681 25.94C49.4481 26.076 49.1081 26.144 48.7481 26.144ZM48.7481 25.328C48.9961 25.328 49.2241 25.276 49.4321 25.172C49.6401 25.06 49.8161 24.908 49.9601 24.716C50.1121 24.516 50.2281 24.28 50.3081 24.008C50.3881 23.736 50.4281 23.432 50.4281 23.096C50.4281 22.76 50.3881 22.456 50.3081 22.184C50.2281 21.904 50.1121 21.664 49.9601 21.464C49.8161 21.264 49.6401 21.112 49.4321 21.008C49.2241 20.896 48.9961 20.84 48.7481 20.84C48.5001 20.84 48.2721 20.896 48.0641 21.008C47.8561 21.112 47.6761 21.264 47.5241 21.464C47.3801 21.664 47.2681 21.904 47.1881 22.184C47.1081 22.456 47.0681 22.76 47.0681 23.096C47.0681 23.432 47.1081 23.736 47.1881 24.008C47.2681 24.28 47.3801 24.516 47.5241 24.716C47.6761 24.908 47.8561 25.06 48.0641 25.172C48.2721 25.276 48.5001 25.328 48.7481 25.328ZM53.234 26V20.168H54.05L54.134 21.008H54.17C54.45 20.728 54.742 20.496 55.046 20.312C55.358 20.12 55.718 20.024 56.126 20.024C56.742 20.024 57.19 20.216 57.47 20.6C57.758 20.984 57.902 21.552 57.902 22.304V26H56.918V22.436C56.918 21.884 56.83 21.488 56.654 21.248C56.478 21 56.198 20.876 55.814 20.876C55.51 20.876 55.242 20.952 55.01 21.104C54.778 21.256 54.514 21.48 54.218 21.776V26H53.234Z" fill="#AFBED1"/>
<path d="M17.264 54V52.912H19.6V45.392H17.744V44.544C18.2133 44.4587 18.6187 44.3573 18.96 44.24C19.312 44.112 19.6267 43.9627 19.904 43.792H20.912V52.912H23.024V54H17.264ZM28.1871 54.192C27.1525 54.192 26.3471 53.7333 25.7711 52.816C25.1951 51.8987 24.9071 50.5813 24.9071 48.864C24.9071 47.1467 25.1951 45.84 25.7711 44.944C26.3471 44.048 27.1525 43.6 28.1871 43.6C29.2111 43.6 30.0111 44.048 30.5871 44.944C31.1631 45.84 31.4511 47.1467 31.4511 48.864C31.4511 50.5813 31.1631 51.8987 30.5871 52.816C30.0111 53.7333 29.2111 54.192 28.1871 54.192ZM28.1871 53.136C28.4858 53.136 28.7525 53.056 28.9871 52.896C29.2325 52.7253 29.4405 52.4693 29.6111 52.128C29.7925 51.776 29.9311 51.3333 30.0271 50.8C30.1231 50.256 30.1711 49.6107 30.1711 48.864C30.1711 48.1173 30.1231 47.4773 30.0271 46.944C29.9311 46.4107 29.7925 45.9787 29.6111 45.648C29.4405 45.3067 29.2325 45.056 28.9871 44.896C28.7525 44.736 28.4858 44.656 28.1871 44.656C27.8885 44.656 27.6165 44.736 27.3711 44.896C27.1258 45.056 26.9125 45.3067 26.7311 45.648C26.5605 45.9787 26.4271 46.4107 26.3311 46.944C26.2351 47.4773 26.1871 48.1173 26.1871 48.864C26.1871 50.3573 26.3685 51.4453 26.7311 52.128C27.1045 52.8 27.5898 53.136 28.1871 53.136ZM36.3903 54.192C35.3556 54.192 34.5503 53.7333 33.9743 52.816C33.3983 51.8987 33.1103 50.5813 33.1103 48.864C33.1103 47.1467 33.3983 45.84 33.9743 44.944C34.5503 44.048 35.3556 43.6 36.3903 43.6C37.4143 43.6 38.2143 44.048 38.7903 44.944C39.3663 45.84 39.6543 47.1467 39.6543 48.864C39.6543 50.5813 39.3663 51.8987 38.7903 52.816C38.2143 53.7333 37.4143 54.192 36.3903 54.192ZM36.3903 53.136C36.6889 53.136 36.9556 53.056 37.1903 52.896C37.4356 52.7253 37.6436 52.4693 37.8143 52.128C37.9956 51.776 38.1343 51.3333 38.2303 50.8C38.3263 50.256 38.3743 49.6107 38.3743 48.864C38.3743 48.1173 38.3263 47.4773 38.2303 46.944C38.1343 46.4107 37.9956 45.9787 37.8143 45.648C37.6436 45.3067 37.4356 45.056 37.1903 44.896C36.9556 44.736 36.6889 44.656 36.3903 44.656C36.0916 44.656 35.8196 44.736 35.5743 44.896C35.3289 45.056 35.1156 45.3067 34.9343 45.648C34.7636 45.9787 34.6303 46.4107 34.5343 46.944C34.4383 47.4773 34.3903 48.1173 34.3903 48.864C34.3903 50.3573 34.5716 51.4453 34.9343 52.128C35.3076 52.8 35.7929 53.136 36.3903 53.136ZM43.5534 49.936C42.828 49.936 42.2467 49.648 41.8094 49.072C41.3827 48.496 41.1694 47.6747 41.1694 46.608C41.1694 45.552 41.3827 44.7413 41.8094 44.176C42.2467 43.6 42.828 43.312 43.5534 43.312C44.268 43.312 44.844 43.6 45.2814 44.176C45.7187 44.7413 45.9374 45.552 45.9374 46.608C45.9374 47.6747 45.7187 48.496 45.2814 49.072C44.844 49.648 44.268 49.936 43.5534 49.936ZM43.5534 49.12C43.9587 49.12 44.2894 48.912 44.5454 48.496C44.8014 48.0693 44.9294 47.44 44.9294 46.608C44.9294 45.776 44.8014 45.1573 44.5454 44.752C44.2894 44.336 43.9587 44.128 43.5534 44.128C43.1374 44.128 42.8014 44.336 42.5454 44.752C42.2894 45.1573 42.1614 45.776 42.1614 46.608C42.1614 47.44 42.2894 48.0693 42.5454 48.496C42.8014 48.912 43.1374 49.12 43.5534 49.12ZM43.8414 54.192L49.6334 43.312H50.5294L44.7374 54.192H43.8414ZM50.8654 54.192C50.14 54.192 49.5587 53.904 49.1214 53.328C48.6947 52.752 48.4814 51.9307 48.4814 50.864C48.4814 49.808 48.6947 48.9973 49.1214 48.432C49.5587 47.856 50.14 47.568 50.8654 47.568C51.58 47.568 52.156 47.856 52.5934 48.432C53.0307 48.9973 53.2494 49.808 53.2494 50.864C53.2494 51.9307 53.0307 52.752 52.5934 53.328C52.156 53.904 51.58 54.192 50.8654 54.192ZM50.8654 53.376C51.2707 53.376 51.6014 53.168 51.8574 52.752C52.1134 52.3253 52.2414 51.696 52.2414 50.864C52.2414 50.032 52.1134 49.4133 51.8574 49.008C51.6014 48.592 51.2707 48.384 50.8654 48.384C50.4494 48.384 50.1134 48.592 49.8574 49.008C49.6014 49.4133 49.4734 50.032 49.4734 50.864C49.4734 51.696 49.6014 52.3253 49.8574 52.752C50.1134 53.168 50.4494 53.376 50.8654 53.376ZM61.484 54.192C60.4493 54.192 59.644 53.7333 59.068 52.816C58.492 51.8987 58.204 50.5813 58.204 48.864C58.204 47.1467 58.492 45.84 59.068 44.944C59.644 44.048 60.4493 43.6 61.484 43.6C62.508 43.6 63.308 44.048 63.884 44.944C64.46 45.84 64.748 47.1467 64.748 48.864C64.748 50.5813 64.46 51.8987 63.884 52.816C63.308 53.7333 62.508 54.192 61.484 54.192ZM61.484 53.136C61.7827 53.136 62.0493 53.056 62.284 52.896C62.5293 52.7253 62.7373 52.4693 62.908 52.128C63.0893 51.776 63.228 51.3333 63.324 50.8C63.42 50.256 63.468 49.6107 63.468 48.864C63.468 48.1173 63.42 47.4773 63.324 46.944C63.228 46.4107 63.0893 45.9787 62.908 45.648C62.7373 45.3067 62.5293 45.056 62.284 44.896C62.0493 44.736 61.7827 44.656 61.484 44.656C61.1853 44.656 60.9133 44.736 60.668 44.896C60.4227 45.056 60.2093 45.3067 60.028 45.648C59.8573 45.9787 59.724 46.4107 59.628 46.944C59.532 47.4773 59.484 48.1173 59.484 48.864C59.484 50.3573 59.6653 51.4453 60.028 52.128C60.4013 52.8 60.8867 53.136 61.484 53.136ZM68.6471 49.936C67.9218 49.936 67.3405 49.648 66.9031 49.072C66.4765 48.496 66.2631 47.6747 66.2631 46.608C66.2631 45.552 66.4765 44.7413 66.9031 44.176C67.3405 43.6 67.9218 43.312 68.6471 43.312C69.3618 43.312 69.9378 43.6 70.3751 44.176C70.8125 44.7413 71.0311 45.552 71.0311 46.608C71.0311 47.6747 70.8125 48.496 70.3751 49.072C69.9378 49.648 69.3618 49.936 68.6471 49.936ZM68.6471 49.12C69.0525 49.12 69.3831 48.912 69.6391 48.496C69.8951 48.0693 70.0231 47.44 70.0231 46.608C70.0231 45.776 69.8951 45.1573 69.6391 44.752C69.3831 44.336 69.0525 44.128 68.6471 44.128C68.2311 44.128 67.8951 44.336 67.6391 44.752C67.3831 45.1573 67.2551 45.776 67.2551 46.608C67.2551 47.44 67.3831 48.0693 67.6391 48.496C67.8951 48.912 68.2311 49.12 68.6471 49.12ZM68.9351 54.192L74.7271 43.312H75.6231L69.8311 54.192H68.9351ZM75.9591 54.192C75.2338 54.192 74.6525 53.904 74.2151 53.328C73.7885 52.752 73.5751 51.9307 73.5751 50.864C73.5751 49.808 73.7885 48.9973 74.2151 48.432C74.6525 47.856 75.2338 47.568 75.9591 47.568C76.6738 47.568 77.2498 47.856 77.6871 48.432C78.1245 48.9973 78.3431 49.808 78.3431 50.864C78.3431 51.9307 78.1245 52.752 77.6871 53.328C77.2498 53.904 76.6738 54.192 75.9591 54.192ZM75.9591 53.376C76.3645 53.376 76.6951 53.168 76.9511 52.752C77.2071 52.3253 77.3351 51.696 77.3351 50.864C77.3351 50.032 77.2071 49.4133 76.9511 49.008C76.6951 48.592 76.3645 48.384 75.9591 48.384C75.5431 48.384 75.2071 48.592 74.9511 49.008C74.6951 49.4133 74.5671 50.032 74.5671 50.864C74.5671 51.696 74.6951 52.3253 74.9511 52.752C75.2071 53.168 75.5431 53.376 75.9591 53.376Z" fill="#F8FAFF"/>
</svg>
