<svg width="284" height="76" viewBox="0 0 284 76" fill="none" xmlns="http://www.w3.org/2000/svg">
<path d="M283 0H0V76H283V0Z" fill="#181C22"/>
<path d="M283 0H0V16H283V0Z" fill="#2C3139"/>
<path d="M283 16H0V40H283V16Z" fill="#22262E"/>
<path d="M29.948 32V31.184H31.7V25.544H30.308V24.908C30.66 24.844 30.964 24.768 31.22 24.68C31.484 24.584 31.72 24.472 31.928 24.344H32.684V31.184H34.268V32H29.948ZM38.203 32.144C37.427 32.144 36.823 31.8 36.391 31.112C35.959 30.424 35.743 29.436 35.743 28.148C35.743 26.86 35.959 25.88 36.391 25.208C36.823 24.536 37.427 24.2 38.203 24.2C38.971 24.2 39.571 24.536 40.003 25.208C40.435 25.88 40.651 26.86 40.651 28.148C40.651 29.436 40.435 30.424 40.003 31.112C39.571 31.8 38.971 32.144 38.203 32.144ZM38.203 31.352C38.427 31.352 38.627 31.292 38.803 31.172C38.987 31.044 39.143 30.852 39.271 30.596C39.407 30.332 39.511 30 39.583 29.6C39.655 29.192 39.691 28.708 39.691 28.148C39.691 27.588 39.655 27.108 39.583 26.708C39.511 26.308 39.407 25.984 39.271 25.736C39.143 25.48 38.987 25.292 38.803 25.172C38.627 25.052 38.427 24.992 38.203 24.992C37.979 24.992 37.775 25.052 37.591 25.172C37.407 25.292 37.247 25.48 37.111 25.736C36.983 25.984 36.883 26.308 36.811 26.708C36.739 27.108 36.703 27.588 36.703 28.148C36.703 29.268 36.839 30.084 37.111 30.596C37.391 31.1 37.755 31.352 38.203 31.352ZM44.418 32.144C43.642 32.144 43.038 31.8 42.606 31.112C42.174 30.424 41.958 29.436 41.958 28.148C41.958 26.86 42.174 25.88 42.606 25.208C43.038 24.536 43.642 24.2 44.418 24.2C45.186 24.2 45.786 24.536 46.218 25.208C46.65 25.88 46.866 26.86 46.866 28.148C46.866 29.436 46.65 30.424 46.218 31.112C45.786 31.8 45.186 32.144 44.418 32.144ZM44.418 31.352C44.642 31.352 44.842 31.292 45.018 31.172C45.202 31.044 45.358 30.852 45.486 30.596C45.622 30.332 45.726 30 45.798 29.6C45.87 29.192 45.906 28.708 45.906 28.148C45.906 27.588 45.87 27.108 45.798 26.708C45.726 26.308 45.622 25.984 45.486 25.736C45.358 25.48 45.202 25.292 45.018 25.172C44.842 25.052 44.642 24.992 44.418 24.992C44.194 24.992 43.99 25.052 43.806 25.172C43.622 25.292 43.462 25.48 43.326 25.736C43.198 25.984 43.098 26.308 43.026 26.708C42.954 27.108 42.918 27.588 42.918 28.148C42.918 29.268 43.054 30.084 43.326 30.596C43.606 31.1 43.97 31.352 44.418 31.352ZM49.853 28.952C49.309 28.952 48.873 28.736 48.545 28.304C48.225 27.872 48.065 27.256 48.065 26.456C48.065 25.664 48.225 25.056 48.545 24.632C48.873 24.2 49.309 23.984 49.853 23.984C50.389 23.984 50.821 24.2 51.149 24.632C51.477 25.056 51.641 25.664 51.641 26.456C51.641 27.256 51.477 27.872 51.149 28.304C50.821 28.736 50.389 28.952 49.853 28.952ZM49.853 28.34C50.157 28.34 50.405 28.184 50.597 27.872C50.789 27.552 50.885 27.08 50.885 26.456C50.885 25.832 50.789 25.368 50.597 25.064C50.405 24.752 50.157 24.596 49.853 24.596C49.541 24.596 49.289 24.752 49.097 25.064C48.905 25.368 48.809 25.832 48.809 26.456C48.809 27.08 48.905 27.552 49.097 27.872C49.289 28.184 49.541 28.34 49.853 28.34ZM50.069 32.144L54.413 23.984H55.085L50.741 32.144H50.069ZM55.337 32.144C54.793 32.144 54.357 31.928 54.029 31.496C53.709 31.064 53.549 30.448 53.549 29.648C53.549 28.856 53.709 28.248 54.029 27.824C54.357 27.392 54.793 27.176 55.337 27.176C55.873 27.176 56.305 27.392 56.633 27.824C56.961 28.248 57.125 28.856 57.125 29.648C57.125 30.448 56.961 31.064 56.633 31.496C56.305 31.928 55.873 32.144 55.337 32.144ZM55.337 31.532C55.641 31.532 55.889 31.376 56.081 31.064C56.273 30.744 56.369 30.272 56.369 29.648C56.369 29.024 56.273 28.56 56.081 28.256C55.889 27.944 55.641 27.788 55.337 27.788C55.025 27.788 54.773 27.944 54.581 28.256C54.389 28.56 54.293 29.024 54.293 29.648C54.293 30.272 54.389 30.744 54.581 31.064C54.773 31.376 55.025 31.532 55.337 31.532Z" fill="#F8FAFF"/>
<path d="M66.9999 32L63.5359 26H70.4639L66.9999 32Z" fill="#637087"/>
<path d="M105.124 32C105.156 31.28 105.22 30.62 105.316 30.02C105.412 29.42 105.544 28.852 105.712 28.316C105.888 27.772 106.108 27.248 106.372 26.744C106.644 26.24 106.968 25.724 107.344 25.196H103.528V24.344H108.46V24.956C108.004 25.532 107.632 26.084 107.344 26.612C107.064 27.14 106.84 27.68 106.672 28.232C106.504 28.776 106.38 29.356 106.3 29.972C106.228 30.58 106.176 31.256 106.144 32H105.124ZM111.339 32C111.371 31.28 111.435 30.62 111.531 30.02C111.627 29.42 111.759 28.852 111.927 28.316C112.103 27.772 112.323 27.248 112.587 26.744C112.859 26.24 113.183 25.724 113.559 25.196H109.743V24.344H114.675V24.956C114.219 25.532 113.847 26.084 113.559 26.612C113.279 27.14 113.055 27.68 112.887 28.232C112.719 28.776 112.595 29.356 112.515 29.972C112.443 30.58 112.391 31.256 112.359 32H111.339ZM119.078 32V29.888H115.634V29.24L118.91 24.344H120.014V29.096H121.058V29.888H120.014V32H119.078ZM116.678 29.096H119.078V26.876C119.078 26.668 119.082 26.424 119.09 26.144C119.106 25.856 119.122 25.608 119.138 25.4H119.09C118.994 25.584 118.894 25.764 118.79 25.94C118.686 26.116 118.578 26.296 118.466 26.48L116.678 29.096Z" fill="#F8FAFF"/>
<path d="M145.328 32.144C144.84 32.144 144.432 32 144.104 31.712C143.784 31.424 143.624 31.016 143.624 30.488C143.624 29.848 143.908 29.36 144.476 29.024C145.044 28.68 145.952 28.44 147.2 28.304C147.2 28.12 147.18 27.94 147.14 27.764C147.108 27.588 147.048 27.432 146.96 27.296C146.872 27.16 146.748 27.052 146.588 26.972C146.436 26.884 146.24 26.84 146 26.84C145.664 26.84 145.348 26.904 145.052 27.032C144.756 27.16 144.492 27.304 144.26 27.464L143.876 26.78C144.148 26.604 144.48 26.436 144.872 26.276C145.264 26.108 145.696 26.024 146.168 26.024C146.88 26.024 147.396 26.244 147.716 26.684C148.036 27.116 148.196 27.696 148.196 28.424V32H147.38L147.296 31.304H147.26C146.98 31.536 146.68 31.736 146.36 31.904C146.04 32.064 145.696 32.144 145.328 32.144ZM145.616 31.352C145.896 31.352 146.16 31.288 146.408 31.16C146.656 31.024 146.92 30.828 147.2 30.572V28.952C146.712 29.016 146.3 29.092 145.964 29.18C145.636 29.268 145.368 29.372 145.16 29.492C144.96 29.612 144.812 29.752 144.716 29.912C144.628 30.064 144.584 30.232 144.584 30.416C144.584 30.752 144.684 30.992 144.884 31.136C145.084 31.28 145.328 31.352 145.616 31.352ZM151.985 32.144C151.361 32.144 150.905 31.952 150.617 31.568C150.337 31.184 150.197 30.616 150.197 29.864V26.168H151.193V29.732C151.193 30.284 151.277 30.684 151.445 30.932C151.621 31.172 151.901 31.292 152.285 31.292C152.589 31.292 152.857 31.216 153.089 31.064C153.321 30.904 153.577 30.652 153.857 30.308V26.168H154.841V32H154.025L153.941 31.088H153.905C153.633 31.408 153.345 31.664 153.041 31.856C152.745 32.048 152.393 32.144 151.985 32.144ZM158.894 32.144C158.582 32.144 158.318 32.096 158.102 32C157.894 31.904 157.722 31.772 157.586 31.604C157.458 31.436 157.366 31.232 157.31 30.992C157.254 30.752 157.226 30.488 157.226 30.2V26.972H156.362V26.228L157.274 26.168L157.394 24.536H158.222V26.168H159.794V26.972H158.222V30.212C158.222 30.572 158.286 30.852 158.414 31.052C158.55 31.244 158.786 31.34 159.122 31.34C159.226 31.34 159.338 31.324 159.458 31.292C159.578 31.26 159.686 31.224 159.782 31.184L159.974 31.928C159.814 31.984 159.638 32.032 159.446 32.072C159.262 32.12 159.078 32.144 158.894 32.144ZM163.467 32.144C163.107 32.144 162.763 32.076 162.435 31.94C162.115 31.804 161.831 31.608 161.583 31.352C161.335 31.088 161.135 30.768 160.983 30.392C160.839 30.008 160.767 29.576 160.767 29.096C160.767 28.608 160.839 28.176 160.983 27.8C161.135 27.416 161.335 27.092 161.583 26.828C161.831 26.564 162.115 26.364 162.435 26.228C162.763 26.092 163.107 26.024 163.467 26.024C163.827 26.024 164.167 26.092 164.487 26.228C164.815 26.364 165.103 26.564 165.351 26.828C165.599 27.092 165.795 27.416 165.939 27.8C166.091 28.176 166.167 28.608 166.167 29.096C166.167 29.576 166.091 30.008 165.939 30.392C165.795 30.768 165.599 31.088 165.351 31.352C165.103 31.608 164.815 31.804 164.487 31.94C164.167 32.076 163.827 32.144 163.467 32.144ZM163.467 31.328C163.715 31.328 163.943 31.276 164.151 31.172C164.359 31.06 164.535 30.908 164.679 30.716C164.831 30.516 164.947 30.28 165.027 30.008C165.107 29.736 165.147 29.432 165.147 29.096C165.147 28.76 165.107 28.456 165.027 28.184C164.947 27.904 164.831 27.664 164.679 27.464C164.535 27.264 164.359 27.112 164.151 27.008C163.943 26.896 163.715 26.84 163.467 26.84C163.219 26.84 162.991 26.896 162.783 27.008C162.575 27.112 162.395 27.264 162.243 27.464C162.099 27.664 161.987 27.904 161.907 28.184C161.827 28.456 161.787 28.76 161.787 29.096C161.787 29.432 161.827 29.736 161.907 30.008C161.987 30.28 162.099 30.516 162.243 30.716C162.395 30.908 162.575 31.06 162.783 31.172C162.991 31.276 163.219 31.328 163.467 31.328Z" fill="#F8FAFF"/>
<path d="M133.521 30.488L132.993 29.948L134.853 28.04L132.993 26.144L133.521 25.604L135.381 27.512L137.229 25.604L137.757 26.144L135.897 28.04L137.757 29.948L137.229 30.488L135.381 28.568L133.521 30.488Z" fill="#F8FAFF"/>
<path d="M177 32L173.536 26H180.464L177 32Z" fill="#637087"/>
<path d="M230.438 20.0625H219.625C218.745 20.0625 218.031 20.776 218.031 21.6562V34.4062C218.031 35.2865 218.745 36 219.625 36H230.438C231.318 36 232.031 35.2865 232.031 34.4062V21.6563C232.031 20.776 231.318 20.0625 230.438 20.0625Z" stroke="#66A9FF" stroke-width="1.5" stroke-linecap="round" stroke-linejoin="round"/>
<path d="M224.975 32.8125H224.983" stroke="#66A9FF" stroke-width="1.5" stroke-linecap="round" stroke-linejoin="round"/>
<path d="M247 32L243.536 26H250.464L247 32Z" fill="#637087"/>
<path d="M283 40H0V64H283V40Z" fill="#67A9FE"/>
<path d="M10.376 55V47.968H8V47.128H13.76V47.968H11.384V55H10.376ZM15.3316 55V46.456H16.3156V48.784L16.2796 49.984C16.5596 49.72 16.8516 49.496 17.1556 49.312C17.4596 49.12 17.8156 49.024 18.2236 49.024C18.8396 49.024 19.2876 49.216 19.5676 49.6C19.8556 49.984 19.9996 50.552 19.9996 51.304V55H19.0156V51.436C19.0156 50.884 18.9276 50.488 18.7516 50.248C18.5756 50 18.2956 49.876 17.9116 49.876C17.6076 49.876 17.3396 49.952 17.1076 50.104C16.8756 50.256 16.6116 50.48 16.3156 50.776V55H15.3316ZM24.4729 55.144C24.0809 55.144 23.7129 55.076 23.3689 54.94C23.0329 54.796 22.7369 54.596 22.4809 54.34C22.2329 54.076 22.0369 53.756 21.8929 53.38C21.7489 53.004 21.6769 52.576 21.6769 52.096C21.6769 51.616 21.7489 51.188 21.8929 50.812C22.0449 50.428 22.2409 50.104 22.4809 49.84C22.7289 49.576 23.0089 49.376 23.3209 49.24C23.6329 49.096 23.9569 49.024 24.2929 49.024C24.6609 49.024 24.9889 49.088 25.2769 49.216C25.5729 49.344 25.8169 49.528 26.0089 49.768C26.2089 50.008 26.3609 50.296 26.4649 50.632C26.5689 50.968 26.6209 51.344 26.6209 51.76C26.6209 51.864 26.6169 51.968 26.6089 52.072C26.6089 52.168 26.6009 52.252 26.5849 52.324H22.6489C22.6889 52.948 22.8809 53.444 23.2249 53.812C23.5769 54.172 24.0329 54.352 24.5929 54.352C24.8729 54.352 25.1289 54.312 25.3609 54.232C25.6009 54.144 25.8289 54.032 26.0449 53.896L26.3929 54.544C26.1369 54.704 25.8529 54.844 25.5409 54.964C25.2289 55.084 24.8729 55.144 24.4729 55.144ZM22.6369 51.616H25.7569C25.7569 51.024 25.6289 50.576 25.3729 50.272C25.1249 49.96 24.7729 49.804 24.3169 49.804C24.1089 49.804 23.9089 49.844 23.7169 49.924C23.5329 50.004 23.3649 50.124 23.2129 50.284C23.0609 50.436 22.9329 50.624 22.8289 50.848C22.7329 51.072 22.6689 51.328 22.6369 51.616ZM33.2684 55.144C32.8844 55.144 32.5244 55.076 32.1884 54.94C31.8524 54.804 31.5604 54.608 31.3124 54.352C31.0724 54.088 30.8804 53.768 30.7364 53.392C30.6004 53.008 30.5324 52.576 30.5324 52.096C30.5324 51.608 30.6084 51.176 30.7604 50.8C30.9124 50.416 31.1164 50.092 31.3724 49.828C31.6284 49.564 31.9244 49.364 32.2604 49.228C32.6044 49.092 32.9644 49.024 33.3404 49.024C33.7244 49.024 34.0524 49.092 34.3244 49.228C34.5964 49.364 34.8364 49.524 35.0444 49.708L34.5404 50.356C34.3724 50.204 34.1924 50.08 34.0004 49.984C33.8164 49.888 33.6084 49.84 33.3764 49.84C33.1124 49.84 32.8684 49.896 32.6444 50.008C32.4204 50.112 32.2284 50.264 32.0684 50.464C31.9084 50.664 31.7804 50.904 31.6844 51.184C31.5964 51.456 31.5524 51.76 31.5524 52.096C31.5524 52.432 31.5964 52.736 31.6844 53.008C31.7724 53.28 31.8924 53.516 32.0444 53.716C32.2044 53.908 32.3964 54.06 32.6204 54.172C32.8444 54.276 33.0884 54.328 33.3524 54.328C33.6244 54.328 33.8724 54.272 34.0964 54.16C34.3284 54.04 34.5364 53.9 34.7204 53.74L35.1524 54.4C34.8884 54.632 34.5964 54.816 34.2764 54.952C33.9564 55.08 33.6204 55.144 33.2684 55.144ZM36.6871 55V46.456H37.6711V48.784L37.6351 49.984C37.9151 49.72 38.2071 49.496 38.5111 49.312C38.8151 49.12 39.1711 49.024 39.5791 49.024C40.1951 49.024 40.6431 49.216 40.9231 49.6C41.2111 49.984 41.3551 50.552 41.3551 51.304V55H40.3711V51.436C40.3711 50.884 40.2831 50.488 40.1071 50.248C39.9311 50 39.6511 49.876 39.2671 49.876C38.9631 49.876 38.6951 49.952 38.4631 50.104C38.2311 50.256 37.9671 50.48 37.6711 50.776V55H36.6871ZM44.8084 55.144C44.3204 55.144 43.9124 55 43.5844 54.712C43.2644 54.424 43.1044 54.016 43.1044 53.488C43.1044 52.848 43.3884 52.36 43.9564 52.024C44.5244 51.68 45.4324 51.44 46.6804 51.304C46.6804 51.12 46.6604 50.94 46.6204 50.764C46.5884 50.588 46.5284 50.432 46.4404 50.296C46.3524 50.16 46.2284 50.052 46.0684 49.972C45.9164 49.884 45.7204 49.84 45.4804 49.84C45.1444 49.84 44.8284 49.904 44.5324 50.032C44.2364 50.16 43.9724 50.304 43.7404 50.464L43.3564 49.78C43.6284 49.604 43.9604 49.436 44.3524 49.276C44.7444 49.108 45.1764 49.024 45.6484 49.024C46.3604 49.024 46.8764 49.244 47.1964 49.684C47.5164 50.116 47.6764 50.696 47.6764 51.424V55H46.8604L46.7764 54.304H46.7404C46.4604 54.536 46.1604 54.736 45.8404 54.904C45.5204 55.064 45.1764 55.144 44.8084 55.144ZM45.0964 54.352C45.3764 54.352 45.6404 54.288 45.8884 54.16C46.1364 54.024 46.4004 53.828 46.6804 53.572V51.952C46.1924 52.016 45.7804 52.092 45.4444 52.18C45.1164 52.268 44.8484 52.372 44.6404 52.492C44.4404 52.612 44.2924 52.752 44.1964 52.912C44.1084 53.064 44.0644 53.232 44.0644 53.416C44.0644 53.752 44.1644 53.992 44.3644 54.136C44.5644 54.28 44.8084 54.352 45.0964 54.352ZM49.7613 55V49.168H50.5773L50.6613 50.008H50.6973C50.9773 49.728 51.2693 49.496 51.5733 49.312C51.8853 49.12 52.2453 49.024 52.6533 49.024C53.2693 49.024 53.7173 49.216 53.9973 49.6C54.2853 49.984 54.4293 50.552 54.4293 51.304V55H53.4453V51.436C53.4453 50.884 53.3573 50.488 53.1813 50.248C53.0053 50 52.7253 49.876 52.3413 49.876C52.0373 49.876 51.7693 49.952 51.5373 50.104C51.3053 50.256 51.0413 50.48 50.7453 50.776V55H49.7613ZM58.5418 57.688C58.1818 57.688 57.8538 57.652 57.5578 57.58C57.2618 57.516 57.0058 57.416 56.7898 57.28C56.5818 57.144 56.4178 56.98 56.2978 56.788C56.1858 56.596 56.1298 56.372 56.1298 56.116C56.1298 55.868 56.2058 55.632 56.3578 55.408C56.5098 55.184 56.7178 54.98 56.9818 54.796V54.748C56.8378 54.66 56.7138 54.54 56.6098 54.388C56.5138 54.228 56.4658 54.032 56.4658 53.8C56.4658 53.552 56.5338 53.336 56.6698 53.152C56.8058 52.968 56.9498 52.824 57.1018 52.72V52.672C56.9098 52.512 56.7338 52.3 56.5738 52.036C56.4218 51.764 56.3458 51.452 56.3458 51.1C56.3458 50.78 56.4018 50.492 56.5138 50.236C56.6338 49.98 56.7938 49.764 56.9938 49.588C57.1938 49.404 57.4258 49.264 57.6898 49.168C57.9618 49.072 58.2458 49.024 58.5418 49.024C58.7018 49.024 58.8498 49.04 58.9858 49.072C59.1298 49.096 59.2578 49.128 59.3698 49.168H61.3978V49.924H60.1978C60.3338 50.06 60.4458 50.232 60.5338 50.44C60.6298 50.648 60.6778 50.876 60.6778 51.124C60.6778 51.436 60.6218 51.72 60.5098 51.976C60.3978 52.224 60.2458 52.436 60.0538 52.612C59.8618 52.78 59.6338 52.912 59.3698 53.008C59.1138 53.104 58.8378 53.152 58.5418 53.152C58.3978 53.152 58.2498 53.136 58.0978 53.104C57.9458 53.064 57.8018 53.012 57.6658 52.948C57.5618 53.036 57.4738 53.136 57.4018 53.248C57.3298 53.352 57.2938 53.484 57.2938 53.644C57.2938 53.828 57.3658 53.98 57.5098 54.1C57.6538 54.22 57.9258 54.28 58.3258 54.28H59.4538C60.1338 54.28 60.6418 54.392 60.9778 54.616C61.3218 54.832 61.4938 55.184 61.4938 55.672C61.4938 55.944 61.4258 56.2 61.2898 56.44C61.1538 56.688 60.9578 56.904 60.7018 57.088C60.4458 57.272 60.1338 57.416 59.7658 57.52C59.4058 57.632 58.9978 57.688 58.5418 57.688ZM58.5418 52.492C58.7098 52.492 58.8658 52.46 59.0098 52.396C59.1618 52.332 59.2938 52.24 59.4058 52.12C59.5258 52 59.6178 51.856 59.6818 51.688C59.7458 51.512 59.7778 51.316 59.7778 51.1C59.7778 50.668 59.6578 50.336 59.4178 50.104C59.1778 49.864 58.8858 49.744 58.5418 49.744C58.1978 49.744 57.9058 49.864 57.6658 50.104C57.4258 50.336 57.3058 50.668 57.3058 51.1C57.3058 51.316 57.3378 51.512 57.4018 51.688C57.4658 51.856 57.5538 52 57.6658 52.12C57.7858 52.24 57.9178 52.332 58.0618 52.396C58.2138 52.46 58.3738 52.492 58.5418 52.492ZM58.6858 57.004C58.9658 57.004 59.2178 56.968 59.4418 56.896C59.6738 56.832 59.8698 56.744 60.0298 56.632C60.1898 56.528 60.3138 56.404 60.4018 56.26C60.4898 56.116 60.5338 55.968 60.5338 55.816C60.5338 55.544 60.4338 55.356 60.2338 55.252C60.0338 55.148 59.7418 55.096 59.3578 55.096H58.3498C58.2378 55.096 58.1138 55.088 57.9778 55.072C57.8498 55.064 57.7218 55.04 57.5938 55C57.3858 55.152 57.2338 55.312 57.1378 55.48C57.0418 55.648 56.9938 55.816 56.9938 55.984C56.9938 56.296 57.1418 56.544 57.4378 56.728C57.7418 56.912 58.1578 57.004 58.6858 57.004ZM65.0706 55.144C64.6786 55.144 64.3106 55.076 63.9666 54.94C63.6306 54.796 63.3346 54.596 63.0786 54.34C62.8306 54.076 62.6346 53.756 62.4906 53.38C62.3466 53.004 62.2746 52.576 62.2746 52.096C62.2746 51.616 62.3466 51.188 62.4906 50.812C62.6426 50.428 62.8386 50.104 63.0786 49.84C63.3266 49.576 63.6066 49.376 63.9186 49.24C64.2306 49.096 64.5546 49.024 64.8906 49.024C65.2586 49.024 65.5866 49.088 65.8746 49.216C66.1706 49.344 66.4146 49.528 66.6066 49.768C66.8066 50.008 66.9586 50.296 67.0626 50.632C67.1666 50.968 67.2186 51.344 67.2186 51.76C67.2186 51.864 67.2146 51.968 67.2066 52.072C67.2066 52.168 67.1986 52.252 67.1826 52.324H63.2466C63.2866 52.948 63.4786 53.444 63.8226 53.812C64.1746 54.172 64.6306 54.352 65.1906 54.352C65.4706 54.352 65.7266 54.312 65.9586 54.232C66.1986 54.144 66.4266 54.032 66.6426 53.896L66.9906 54.544C66.7346 54.704 66.4506 54.844 66.1386 54.964C65.8266 55.084 65.4706 55.144 65.0706 55.144ZM63.2346 51.616H66.3546C66.3546 51.024 66.2266 50.576 65.9706 50.272C65.7226 49.96 65.3706 49.804 64.9146 49.804C64.7066 49.804 64.5066 49.844 64.3146 49.924C64.1306 50.004 63.9626 50.124 63.8106 50.284C63.6586 50.436 63.5306 50.624 63.4266 50.848C63.3306 51.072 63.2666 51.328 63.2346 51.616ZM70.4337 55.144C70.0177 55.144 69.6217 55.068 69.2457 54.916C68.8697 54.764 68.5417 54.572 68.2617 54.34L68.7537 53.68C69.0097 53.888 69.2697 54.056 69.5337 54.184C69.8057 54.312 70.1177 54.376 70.4697 54.376C70.8537 54.376 71.1417 54.288 71.3337 54.112C71.5257 53.936 71.6217 53.72 71.6217 53.464C71.6217 53.312 71.5817 53.18 71.5017 53.068C71.4217 52.956 71.3177 52.86 71.1897 52.78C71.0697 52.692 70.9297 52.616 70.7697 52.552C70.6097 52.488 70.4497 52.424 70.2897 52.36C70.0817 52.288 69.8737 52.208 69.6657 52.12C69.4577 52.024 69.2697 51.912 69.1017 51.784C68.9417 51.648 68.8097 51.492 68.7057 51.316C68.6017 51.14 68.5497 50.928 68.5497 50.68C68.5497 50.448 68.5937 50.232 68.6817 50.032C68.7777 49.824 68.9097 49.648 69.0777 49.504C69.2537 49.352 69.4657 49.236 69.7137 49.156C69.9617 49.068 70.2417 49.024 70.5537 49.024C70.9217 49.024 71.2577 49.088 71.5617 49.216C71.8737 49.344 72.1417 49.5 72.3657 49.684L71.8977 50.308C71.6977 50.156 71.4897 50.032 71.2737 49.936C71.0577 49.84 70.8217 49.792 70.5657 49.792C70.1977 49.792 69.9257 49.876 69.7497 50.044C69.5817 50.212 69.4977 50.408 69.4977 50.632C69.4977 50.768 69.5337 50.888 69.6057 50.992C69.6777 51.088 69.7737 51.176 69.8937 51.256C70.0137 51.328 70.1497 51.396 70.3017 51.46C70.4617 51.516 70.6257 51.576 70.7937 51.64C71.0017 51.72 71.2097 51.804 71.4177 51.892C71.6337 51.98 71.8257 52.092 71.9937 52.228C72.1617 52.356 72.2977 52.516 72.4017 52.708C72.5137 52.9 72.5697 53.132 72.5697 53.404C72.5697 53.644 72.5217 53.868 72.4257 54.076C72.3377 54.284 72.2017 54.468 72.0177 54.628C71.8417 54.788 71.6177 54.912 71.3457 55C71.0817 55.096 70.7777 55.144 70.4337 55.144ZM77.7634 55L76.1434 49.168H77.1514L78.0154 52.54C78.0794 52.82 78.1394 53.092 78.1954 53.356C78.2514 53.62 78.3074 53.888 78.3634 54.16H78.4114C78.4754 53.888 78.5394 53.62 78.6034 53.356C78.6674 53.084 78.7354 52.812 78.8074 52.54L79.7074 49.168H80.6674L81.5794 52.54C81.6514 52.82 81.7194 53.092 81.7834 53.356C81.8554 53.62 81.9234 53.888 81.9874 54.16H82.0354C82.0994 53.888 82.1594 53.62 82.2154 53.356C82.2714 53.092 82.3314 52.82 82.3954 52.54L83.2474 49.168H84.1834L82.6234 55H81.4234L80.5834 51.868C80.5114 51.588 80.4434 51.312 80.3794 51.04C80.3234 50.768 80.2594 50.484 80.1874 50.188H80.1394C80.0754 50.484 80.0114 50.772 79.9474 51.052C79.8834 51.324 79.8114 51.6 79.7314 51.88L78.9154 55H77.7634ZM85.7027 55V49.168H86.6867V55H85.7027ZM86.2067 47.968C86.0147 47.968 85.8507 47.908 85.7147 47.788C85.5867 47.668 85.5227 47.516 85.5227 47.332C85.5227 47.14 85.5867 46.988 85.7147 46.876C85.8507 46.756 86.0147 46.696 86.2067 46.696C86.3987 46.696 86.5587 46.756 86.6867 46.876C86.8227 46.988 86.8907 47.14 86.8907 47.332C86.8907 47.516 86.8227 47.668 86.6867 47.788C86.5587 47.908 86.3987 47.968 86.2067 47.968ZM89.9498 55.144C89.5738 55.144 89.3058 55.032 89.1458 54.808C88.9858 54.584 88.9058 54.256 88.9058 53.824V46.456H89.8898V53.896C89.8898 54.056 89.9178 54.168 89.9738 54.232C90.0298 54.296 90.0938 54.328 90.1658 54.328C90.1978 54.328 90.2258 54.328 90.2498 54.328C90.2818 54.328 90.3258 54.32 90.3818 54.304L90.5138 55.048C90.4498 55.08 90.3738 55.104 90.2858 55.12C90.1978 55.136 90.0858 55.144 89.9498 55.144ZM93.258 55.144C92.882 55.144 92.614 55.032 92.454 54.808C92.294 54.584 92.214 54.256 92.214 53.824V46.456H93.198V53.896C93.198 54.056 93.226 54.168 93.282 54.232C93.338 54.296 93.402 54.328 93.474 54.328C93.506 54.328 93.534 54.328 93.558 54.328C93.59 54.328 93.634 54.32 93.69 54.304L93.822 55.048C93.758 55.08 93.682 55.104 93.594 55.12C93.506 55.136 93.394 55.144 93.258 55.144ZM100.755 55.144C100.483 55.144 100.199 55.08 99.903 54.952C99.615 54.816 99.343 54.632 99.087 54.4H99.051L98.967 55H98.175V46.456H99.159V48.784L99.135 49.84C99.399 49.608 99.687 49.416 99.999 49.264C100.311 49.104 100.631 49.024 100.959 49.024C101.335 49.024 101.667 49.096 101.955 49.24C102.243 49.376 102.483 49.576 102.675 49.84C102.875 50.096 103.023 50.408 103.119 50.776C103.223 51.136 103.275 51.54 103.275 51.988C103.275 52.484 103.207 52.928 103.071 53.32C102.935 53.712 102.751 54.044 102.519 54.316C102.287 54.588 102.019 54.796 101.715 54.94C101.411 55.076 101.091 55.144 100.755 55.144ZM100.587 54.316C100.827 54.316 101.047 54.264 101.247 54.16C101.455 54.048 101.631 53.896 101.775 53.704C101.927 53.504 102.043 53.26 102.123 52.972C102.211 52.684 102.255 52.36 102.255 52C102.255 51.68 102.227 51.388 102.171 51.124C102.115 50.86 102.023 50.636 101.895 50.452C101.775 50.26 101.615 50.112 101.415 50.008C101.223 49.904 100.991 49.852 100.719 49.852C100.247 49.852 99.727 50.116 99.159 50.644V53.704C99.415 53.928 99.667 54.088 99.915 54.184C100.171 54.272 100.395 54.316 100.587 54.316ZM107.422 55.144C107.03 55.144 106.662 55.076 106.318 54.94C105.982 54.796 105.686 54.596 105.43 54.34C105.182 54.076 104.986 53.756 104.842 53.38C104.698 53.004 104.626 52.576 104.626 52.096C104.626 51.616 104.698 51.188 104.842 50.812C104.994 50.428 105.19 50.104 105.43 49.84C105.678 49.576 105.958 49.376 106.27 49.24C106.582 49.096 106.906 49.024 107.242 49.024C107.61 49.024 107.938 49.088 108.226 49.216C108.522 49.344 108.766 49.528 108.958 49.768C109.158 50.008 109.31 50.296 109.414 50.632C109.518 50.968 109.57 51.344 109.57 51.76C109.57 51.864 109.566 51.968 109.558 52.072C109.558 52.168 109.55 52.252 109.534 52.324H105.598C105.638 52.948 105.83 53.444 106.174 53.812C106.526 54.172 106.982 54.352 107.542 54.352C107.822 54.352 108.078 54.312 108.31 54.232C108.55 54.144 108.778 54.032 108.994 53.896L109.342 54.544C109.086 54.704 108.802 54.844 108.49 54.964C108.178 55.084 107.822 55.144 107.422 55.144ZM105.586 51.616H108.706C108.706 51.024 108.578 50.576 108.322 50.272C108.074 49.96 107.722 49.804 107.266 49.804C107.058 49.804 106.858 49.844 106.666 49.924C106.482 50.004 106.314 50.124 106.162 50.284C106.01 50.436 105.882 50.624 105.778 50.848C105.682 51.072 105.618 51.328 105.586 51.616ZM115.258 55.144C114.77 55.144 114.362 55 114.034 54.712C113.714 54.424 113.554 54.016 113.554 53.488C113.554 52.848 113.838 52.36 114.406 52.024C114.974 51.68 115.882 51.44 117.13 51.304C117.13 51.12 117.11 50.94 117.07 50.764C117.038 50.588 116.978 50.432 116.89 50.296C116.802 50.16 116.678 50.052 116.518 49.972C116.366 49.884 116.17 49.84 115.93 49.84C115.594 49.84 115.278 49.904 114.982 50.032C114.686 50.16 114.422 50.304 114.19 50.464L113.806 49.78C114.078 49.604 114.41 49.436 114.802 49.276C115.194 49.108 115.626 49.024 116.098 49.024C116.81 49.024 117.326 49.244 117.646 49.684C117.966 50.116 118.126 50.696 118.126 51.424V55H117.31L117.226 54.304H117.19C116.91 54.536 116.61 54.736 116.29 54.904C115.97 55.064 115.626 55.144 115.258 55.144ZM115.546 54.352C115.826 54.352 116.09 54.288 116.338 54.16C116.586 54.024 116.85 53.828 117.13 53.572V51.952C116.642 52.016 116.23 52.092 115.894 52.18C115.566 52.268 115.298 52.372 115.09 52.492C114.89 52.612 114.742 52.752 114.646 52.912C114.558 53.064 114.514 53.232 114.514 53.416C114.514 53.752 114.614 53.992 114.814 54.136C115.014 54.28 115.258 54.352 115.546 54.352ZM120.211 57.46V49.168H121.027L121.111 49.84H121.147C121.411 49.616 121.699 49.424 122.011 49.264C122.331 49.104 122.663 49.024 123.007 49.024C123.383 49.024 123.715 49.096 124.003 49.24C124.291 49.376 124.531 49.576 124.723 49.84C124.915 50.096 125.059 50.408 125.155 50.776C125.259 51.136 125.311 51.544 125.311 52C125.311 52.496 125.243 52.94 125.107 53.332C124.971 53.716 124.787 54.044 124.555 54.316C124.323 54.588 124.055 54.796 123.751 54.94C123.447 55.076 123.127 55.144 122.791 55.144C122.519 55.144 122.247 55.084 121.975 54.964C121.711 54.844 121.443 54.68 121.171 54.472L121.195 55.492V57.46H120.211ZM122.623 54.316C122.863 54.316 123.083 54.264 123.283 54.16C123.491 54.048 123.667 53.896 123.811 53.704C123.963 53.504 124.079 53.26 124.159 52.972C124.247 52.684 124.291 52.36 124.291 52C124.291 51.68 124.263 51.388 124.207 51.124C124.151 50.86 124.059 50.636 123.931 50.452C123.811 50.26 123.651 50.112 123.451 50.008C123.259 49.904 123.027 49.852 122.754 49.852C122.507 49.852 122.255 49.92 121.999 50.056C121.751 50.192 121.483 50.388 121.195 50.644V53.704C121.459 53.928 121.715 54.088 121.963 54.184C122.211 54.272 122.431 54.316 122.623 54.316ZM127.117 57.46V49.168H127.933L128.017 49.84H128.053C128.317 49.616 128.605 49.424 128.917 49.264C129.237 49.104 129.569 49.024 129.913 49.024C130.289 49.024 130.621 49.096 130.909 49.24C131.197 49.376 131.437 49.576 131.629 49.84C131.821 50.096 131.965 50.408 132.061 50.776C132.165 51.136 132.217 51.544 132.217 52C132.217 52.496 132.149 52.94 132.013 53.332C131.877 53.716 131.693 54.044 131.461 54.316C131.229 54.588 130.961 54.796 130.657 54.94C130.353 55.076 130.033 55.144 129.697 55.144C129.425 55.144 129.153 55.084 128.881 54.964C128.617 54.844 128.349 54.68 128.077 54.472L128.101 55.492V57.46H127.117ZM129.529 54.316C129.769 54.316 129.989 54.264 130.189 54.16C130.397 54.048 130.573 53.896 130.717 53.704C130.869 53.504 130.985 53.26 131.065 52.972C131.153 52.684 131.197 52.36 131.197 52C131.197 51.68 131.169 51.388 131.113 51.124C131.057 50.86 130.965 50.636 130.837 50.452C130.717 50.26 130.557 50.112 130.357 50.008C130.165 49.904 129.933 49.852 129.661 49.852C129.413 49.852 129.161 49.92 128.905 50.056C128.657 50.192 128.389 50.388 128.101 50.644V53.704C128.365 53.928 128.621 54.088 128.869 54.184C129.117 54.272 129.337 54.316 129.529 54.316ZM135.067 55.144C134.691 55.144 134.423 55.032 134.263 54.808C134.103 54.584 134.023 54.256 134.023 53.824V46.456H135.007V53.896C135.007 54.056 135.035 54.168 135.091 54.232C135.147 54.296 135.211 54.328 135.283 54.328C135.315 54.328 135.343 54.328 135.367 54.328C135.399 54.328 135.443 54.32 135.499 54.304L135.631 55.048C135.567 55.08 135.491 55.104 135.403 55.12C135.315 55.136 135.203 55.144 135.067 55.144ZM137.332 55V49.168H138.316V55H137.332ZM137.836 47.968C137.644 47.968 137.48 47.908 137.344 47.788C137.216 47.668 137.152 47.516 137.152 47.332C137.152 47.14 137.216 46.988 137.344 46.876C137.48 46.756 137.644 46.696 137.836 46.696C138.028 46.696 138.188 46.756 138.316 46.876C138.452 46.988 138.52 47.14 138.52 47.332C138.52 47.516 138.452 47.668 138.316 47.788C138.188 47.908 138.028 47.968 137.836 47.968ZM142.899 55.144C142.507 55.144 142.139 55.076 141.795 54.94C141.459 54.796 141.163 54.596 140.907 54.34C140.659 54.076 140.463 53.756 140.319 53.38C140.175 53.004 140.103 52.576 140.103 52.096C140.103 51.616 140.175 51.188 140.319 50.812C140.471 50.428 140.667 50.104 140.907 49.84C141.155 49.576 141.435 49.376 141.747 49.24C142.059 49.096 142.383 49.024 142.719 49.024C143.087 49.024 143.415 49.088 143.703 49.216C143.999 49.344 144.243 49.528 144.435 49.768C144.635 50.008 144.787 50.296 144.891 50.632C144.995 50.968 145.047 51.344 145.047 51.76C145.047 51.864 145.043 51.968 145.035 52.072C145.035 52.168 145.027 52.252 145.011 52.324H141.075C141.115 52.948 141.307 53.444 141.651 53.812C142.003 54.172 142.459 54.352 143.019 54.352C143.299 54.352 143.555 54.312 143.787 54.232C144.027 54.144 144.255 54.032 144.471 53.896L144.819 54.544C144.563 54.704 144.279 54.844 143.967 54.964C143.655 55.084 143.299 55.144 142.899 55.144ZM141.063 51.616H144.183C144.183 51.024 144.055 50.576 143.799 50.272C143.551 49.96 143.199 49.804 142.743 49.804C142.535 49.804 142.335 49.844 142.143 49.924C141.959 50.004 141.791 50.124 141.639 50.284C141.487 50.436 141.359 50.624 141.255 50.848C141.159 51.072 141.095 51.328 141.063 51.616ZM148.73 55.144C147.994 55.144 147.406 54.88 146.966 54.352C146.534 53.824 146.318 53.072 146.318 52.096C146.318 51.624 146.386 51.2 146.522 50.824C146.666 50.44 146.854 50.116 147.086 49.852C147.318 49.588 147.586 49.384 147.89 49.24C148.194 49.096 148.514 49.024 148.85 49.024C149.186 49.024 149.478 49.084 149.726 49.204C149.974 49.324 150.226 49.488 150.482 49.696L150.434 48.7V46.456H151.43V55H150.614L150.53 54.316H150.494C150.262 54.54 149.994 54.736 149.69 54.904C149.394 55.064 149.074 55.144 148.73 55.144ZM148.946 54.316C149.218 54.316 149.474 54.252 149.714 54.124C149.954 53.988 150.194 53.784 150.434 53.512V50.464C150.186 50.24 149.946 50.084 149.714 49.996C149.49 49.9 149.258 49.852 149.018 49.852C148.786 49.852 148.566 49.908 148.358 50.02C148.158 50.124 147.982 50.276 147.83 50.476C147.678 50.668 147.558 50.9 147.47 51.172C147.382 51.444 147.338 51.748 147.338 52.084C147.338 52.788 147.478 53.336 147.758 53.728C148.038 54.12 148.434 54.316 148.946 54.316ZM157.64 55.144C157.152 55.144 156.744 55 156.416 54.712C156.096 54.424 155.936 54.016 155.936 53.488C155.936 52.848 156.22 52.36 156.788 52.024C157.356 51.68 158.264 51.44 159.512 51.304C159.512 51.12 159.492 50.94 159.452 50.764C159.42 50.588 159.36 50.432 159.272 50.296C159.184 50.16 159.06 50.052 158.9 49.972C158.748 49.884 158.552 49.84 158.312 49.84C157.976 49.84 157.66 49.904 157.364 50.032C157.068 50.16 156.804 50.304 156.572 50.464L156.188 49.78C156.46 49.604 156.792 49.436 157.184 49.276C157.576 49.108 158.008 49.024 158.48 49.024C159.192 49.024 159.708 49.244 160.028 49.684C160.348 50.116 160.508 50.696 160.508 51.424V55H159.692L159.608 54.304H159.572C159.292 54.536 158.992 54.736 158.672 54.904C158.352 55.064 158.008 55.144 157.64 55.144ZM157.928 54.352C158.208 54.352 158.472 54.288 158.72 54.16C158.968 54.024 159.232 53.828 159.512 53.572V51.952C159.024 52.016 158.612 52.092 158.276 52.18C157.948 52.268 157.68 52.372 157.472 52.492C157.272 52.612 157.124 52.752 157.028 52.912C156.94 53.064 156.896 53.232 156.896 53.416C156.896 53.752 156.996 53.992 157.196 54.136C157.396 54.28 157.64 54.352 157.928 54.352ZM164.265 55.144C163.953 55.144 163.689 55.096 163.473 55C163.265 54.904 163.093 54.772 162.957 54.604C162.829 54.436 162.737 54.232 162.681 53.992C162.625 53.752 162.597 53.488 162.597 53.2V49.972H161.733V49.228L162.645 49.168L162.765 47.536H163.593V49.168H165.165V49.972H163.593V53.212C163.593 53.572 163.657 53.852 163.785 54.052C163.921 54.244 164.157 54.34 164.493 54.34C164.597 54.34 164.709 54.324 164.829 54.292C164.949 54.26 165.057 54.224 165.153 54.184L165.345 54.928C165.185 54.984 165.009 55.032 164.817 55.072C164.633 55.12 164.449 55.144 164.265 55.144ZM171.222 55.144C170.91 55.144 170.646 55.096 170.43 55C170.222 54.904 170.05 54.772 169.914 54.604C169.786 54.436 169.694 54.232 169.638 53.992C169.582 53.752 169.554 53.488 169.554 53.2V49.972H168.69V49.228L169.602 49.168L169.722 47.536H170.55V49.168H172.122V49.972H170.55V53.212C170.55 53.572 170.614 53.852 170.742 54.052C170.878 54.244 171.114 54.34 171.45 54.34C171.554 54.34 171.666 54.324 171.786 54.292C171.906 54.26 172.014 54.224 172.11 54.184L172.302 54.928C172.142 54.984 171.966 55.032 171.774 55.072C171.59 55.12 171.406 55.144 171.222 55.144ZM175.795 55.144C175.435 55.144 175.091 55.076 174.763 54.94C174.443 54.804 174.159 54.608 173.911 54.352C173.663 54.088 173.463 53.768 173.311 53.392C173.167 53.008 173.095 52.576 173.095 52.096C173.095 51.608 173.167 51.176 173.311 50.8C173.463 50.416 173.663 50.092 173.911 49.828C174.159 49.564 174.443 49.364 174.763 49.228C175.091 49.092 175.435 49.024 175.795 49.024C176.155 49.024 176.495 49.092 176.815 49.228C177.143 49.364 177.431 49.564 177.679 49.828C177.927 50.092 178.123 50.416 178.267 50.8C178.419 51.176 178.495 51.608 178.495 52.096C178.495 52.576 178.419 53.008 178.267 53.392C178.123 53.768 177.927 54.088 177.679 54.352C177.431 54.608 177.143 54.804 176.815 54.94C176.495 55.076 176.155 55.144 175.795 55.144ZM175.795 54.328C176.043 54.328 176.271 54.276 176.479 54.172C176.687 54.06 176.863 53.908 177.007 53.716C177.159 53.516 177.275 53.28 177.355 53.008C177.435 52.736 177.475 52.432 177.475 52.096C177.475 51.76 177.435 51.456 177.355 51.184C177.275 50.904 177.159 50.664 177.007 50.464C176.863 50.264 176.687 50.112 176.479 50.008C176.271 49.896 176.043 49.84 175.795 49.84C175.547 49.84 175.319 49.896 175.111 50.008C174.903 50.112 174.723 50.264 174.571 50.464C174.427 50.664 174.315 50.904 174.235 51.184C174.155 51.456 174.115 51.76 174.115 52.096C174.115 52.432 174.155 52.736 174.235 53.008C174.315 53.28 174.427 53.516 174.571 53.716C174.723 53.908 174.903 54.06 175.111 54.172C175.319 54.276 175.547 54.328 175.795 54.328ZM184.769 55.144C184.457 55.144 184.193 55.096 183.977 55C183.769 54.904 183.597 54.772 183.461 54.604C183.333 54.436 183.241 54.232 183.185 53.992C183.129 53.752 183.101 53.488 183.101 53.2V49.972H182.237V49.228L183.149 49.168L183.269 47.536H184.097V49.168H185.669V49.972H184.097V53.212C184.097 53.572 184.161 53.852 184.289 54.052C184.425 54.244 184.661 54.34 184.997 54.34C185.101 54.34 185.213 54.324 185.333 54.292C185.453 54.26 185.561 54.224 185.657 54.184L185.849 54.928C185.689 54.984 185.513 55.032 185.321 55.072C185.137 55.12 184.953 55.144 184.769 55.144ZM187.238 55V46.456H188.222V48.784L188.186 49.984C188.466 49.72 188.758 49.496 189.062 49.312C189.366 49.12 189.722 49.024 190.13 49.024C190.746 49.024 191.194 49.216 191.474 49.6C191.762 49.984 191.906 50.552 191.906 51.304V55H190.922V51.436C190.922 50.884 190.834 50.488 190.658 50.248C190.482 50 190.202 49.876 189.818 49.876C189.514 49.876 189.246 49.952 189.014 50.104C188.782 50.256 188.518 50.48 188.222 50.776V55H187.238ZM196.379 55.144C195.987 55.144 195.619 55.076 195.275 54.94C194.939 54.796 194.643 54.596 194.387 54.34C194.139 54.076 193.943 53.756 193.799 53.38C193.655 53.004 193.583 52.576 193.583 52.096C193.583 51.616 193.655 51.188 193.799 50.812C193.951 50.428 194.147 50.104 194.387 49.84C194.635 49.576 194.915 49.376 195.227 49.24C195.539 49.096 195.863 49.024 196.199 49.024C196.567 49.024 196.895 49.088 197.183 49.216C197.479 49.344 197.723 49.528 197.915 49.768C198.115 50.008 198.267 50.296 198.371 50.632C198.475 50.968 198.527 51.344 198.527 51.76C198.527 51.864 198.523 51.968 198.515 52.072C198.515 52.168 198.507 52.252 198.491 52.324H194.555C194.595 52.948 194.787 53.444 195.131 53.812C195.483 54.172 195.939 54.352 196.499 54.352C196.779 54.352 197.035 54.312 197.267 54.232C197.507 54.144 197.735 54.032 197.951 53.896L198.299 54.544C198.043 54.704 197.759 54.844 197.447 54.964C197.135 55.084 196.779 55.144 196.379 55.144ZM194.543 51.616H197.663C197.663 51.024 197.535 50.576 197.279 50.272C197.031 49.96 196.679 49.804 196.223 49.804C196.015 49.804 195.815 49.844 195.623 49.924C195.439 50.004 195.271 50.124 195.119 50.284C194.967 50.436 194.839 50.624 194.735 50.848C194.639 51.072 194.575 51.328 194.543 51.616ZM204.395 55.144C203.979 55.144 203.583 55.068 203.207 54.916C202.831 54.764 202.503 54.572 202.223 54.34L202.715 53.68C202.971 53.888 203.231 54.056 203.495 54.184C203.767 54.312 204.079 54.376 204.431 54.376C204.815 54.376 205.103 54.288 205.295 54.112C205.487 53.936 205.583 53.72 205.583 53.464C205.583 53.312 205.543 53.18 205.463 53.068C205.383 52.956 205.279 52.86 205.151 52.78C205.031 52.692 204.891 52.616 204.731 52.552C204.571 52.488 204.411 52.424 204.251 52.36C204.043 52.288 203.835 52.208 203.627 52.12C203.419 52.024 203.231 51.912 203.063 51.784C202.903 51.648 202.771 51.492 202.667 51.316C202.563 51.14 202.511 50.928 202.511 50.68C202.511 50.448 202.555 50.232 202.643 50.032C202.739 49.824 202.871 49.648 203.039 49.504C203.215 49.352 203.427 49.236 203.675 49.156C203.923 49.068 204.203 49.024 204.515 49.024C204.883 49.024 205.219 49.088 205.523 49.216C205.835 49.344 206.103 49.5 206.327 49.684L205.859 50.308C205.659 50.156 205.451 50.032 205.235 49.936C205.019 49.84 204.783 49.792 204.527 49.792C204.159 49.792 203.887 49.876 203.711 50.044C203.543 50.212 203.459 50.408 203.459 50.632C203.459 50.768 203.495 50.888 203.567 50.992C203.639 51.088 203.735 51.176 203.855 51.256C203.975 51.328 204.111 51.396 204.263 51.46C204.423 51.516 204.587 51.576 204.755 51.64C204.963 51.72 205.171 51.804 205.379 51.892C205.595 51.98 205.787 52.092 205.955 52.228C206.123 52.356 206.259 52.516 206.363 52.708C206.475 52.9 206.531 53.132 206.531 53.404C206.531 53.644 206.483 53.868 206.387 54.076C206.299 54.284 206.163 54.468 205.979 54.628C205.803 54.788 205.579 54.912 205.307 55C205.043 55.096 204.739 55.144 204.395 55.144ZM210.452 55.144C210.068 55.144 209.708 55.076 209.372 54.94C209.036 54.804 208.744 54.608 208.496 54.352C208.256 54.088 208.064 53.768 207.92 53.392C207.784 53.008 207.716 52.576 207.716 52.096C207.716 51.608 207.792 51.176 207.944 50.8C208.096 50.416 208.3 50.092 208.556 49.828C208.812 49.564 209.108 49.364 209.444 49.228C209.788 49.092 210.148 49.024 210.524 49.024C210.908 49.024 211.236 49.092 211.508 49.228C211.78 49.364 212.02 49.524 212.228 49.708L211.724 50.356C211.556 50.204 211.376 50.08 211.184 49.984C211 49.888 210.792 49.84 210.56 49.84C210.296 49.84 210.052 49.896 209.828 50.008C209.604 50.112 209.412 50.264 209.252 50.464C209.092 50.664 208.964 50.904 208.868 51.184C208.78 51.456 208.736 51.76 208.736 52.096C208.736 52.432 208.78 52.736 208.868 53.008C208.956 53.28 209.076 53.516 209.228 53.716C209.388 53.908 209.58 54.06 209.804 54.172C210.028 54.276 210.272 54.328 210.536 54.328C210.808 54.328 211.056 54.272 211.28 54.16C211.512 54.04 211.72 53.9 211.904 53.74L212.336 54.4C212.072 54.632 211.78 54.816 211.46 54.952C211.14 55.08 210.804 55.144 210.452 55.144ZM213.871 55V49.168H214.687L214.771 50.224H214.807C215.007 49.856 215.247 49.564 215.527 49.348C215.815 49.132 216.127 49.024 216.463 49.024C216.695 49.024 216.903 49.064 217.087 49.144L216.895 50.008C216.799 49.976 216.711 49.952 216.631 49.936C216.551 49.92 216.451 49.912 216.331 49.912C216.083 49.912 215.823 50.012 215.551 50.212C215.287 50.412 215.055 50.76 214.855 51.256V55H213.871ZM220.528 55.144C220.136 55.144 219.768 55.076 219.424 54.94C219.088 54.796 218.792 54.596 218.536 54.34C218.288 54.076 218.092 53.756 217.948 53.38C217.804 53.004 217.732 52.576 217.732 52.096C217.732 51.616 217.804 51.188 217.948 50.812C218.1 50.428 218.296 50.104 218.536 49.84C218.784 49.576 219.064 49.376 219.376 49.24C219.688 49.096 220.012 49.024 220.348 49.024C220.716 49.024 221.044 49.088 221.332 49.216C221.628 49.344 221.872 49.528 222.064 49.768C222.264 50.008 222.416 50.296 222.52 50.632C222.624 50.968 222.676 51.344 222.676 51.76C222.676 51.864 222.672 51.968 222.664 52.072C222.664 52.168 222.656 52.252 222.64 52.324H218.704C218.744 52.948 218.936 53.444 219.28 53.812C219.632 54.172 220.088 54.352 220.648 54.352C220.928 54.352 221.184 54.312 221.416 54.232C221.656 54.144 221.884 54.032 222.1 53.896L222.448 54.544C222.192 54.704 221.908 54.844 221.596 54.964C221.284 55.084 220.928 55.144 220.528 55.144ZM218.692 51.616H221.812C221.812 51.024 221.684 50.576 221.428 50.272C221.18 49.96 220.828 49.804 220.372 49.804C220.164 49.804 219.964 49.844 219.772 49.924C219.588 50.004 219.42 50.124 219.268 50.284C219.116 50.436 218.988 50.624 218.884 50.848C218.788 51.072 218.724 51.328 218.692 51.616ZM226.731 55.144C226.339 55.144 225.971 55.076 225.627 54.94C225.291 54.796 224.995 54.596 224.739 54.34C224.491 54.076 224.295 53.756 224.151 53.38C224.007 53.004 223.935 52.576 223.935 52.096C223.935 51.616 224.007 51.188 224.151 50.812C224.303 50.428 224.499 50.104 224.739 49.84C224.987 49.576 225.267 49.376 225.579 49.24C225.891 49.096 226.215 49.024 226.551 49.024C226.919 49.024 227.247 49.088 227.535 49.216C227.831 49.344 228.075 49.528 228.267 49.768C228.467 50.008 228.619 50.296 228.723 50.632C228.827 50.968 228.879 51.344 228.879 51.76C228.879 51.864 228.875 51.968 228.867 52.072C228.867 52.168 228.859 52.252 228.843 52.324H224.907C224.947 52.948 225.139 53.444 225.483 53.812C225.835 54.172 226.291 54.352 226.851 54.352C227.131 54.352 227.387 54.312 227.619 54.232C227.859 54.144 228.087 54.032 228.303 53.896L228.651 54.544C228.395 54.704 228.111 54.844 227.799 54.964C227.487 55.084 227.131 55.144 226.731 55.144ZM224.895 51.616H228.015C228.015 51.024 227.887 50.576 227.631 50.272C227.383 49.96 227.031 49.804 226.575 49.804C226.367 49.804 226.167 49.844 225.975 49.924C225.791 50.004 225.623 50.124 225.471 50.284C225.319 50.436 225.191 50.624 225.087 50.848C224.991 51.072 224.927 51.328 224.895 51.616ZM230.57 55V49.168H231.386L231.47 50.008H231.506C231.786 49.728 232.078 49.496 232.382 49.312C232.694 49.12 233.054 49.024 233.462 49.024C234.078 49.024 234.526 49.216 234.806 49.6C235.094 49.984 235.238 50.552 235.238 51.304V55H234.254V51.436C234.254 50.884 234.166 50.488 233.99 50.248C233.814 50 233.534 49.876 233.15 49.876C232.846 49.876 232.578 49.952 232.346 50.104C232.114 50.256 231.85 50.48 231.554 50.776V55H230.57ZM240.827 55L239.339 49.048H241.091L241.667 51.808C241.715 52.104 241.759 52.396 241.799 52.684C241.839 52.972 241.883 53.268 241.931 53.572H241.979C242.035 53.268 242.087 52.968 242.135 52.672C242.191 52.376 242.255 52.088 242.327 51.808L242.987 49.048H244.511L245.183 51.808C245.255 52.104 245.319 52.396 245.375 52.684C245.431 52.972 245.491 53.268 245.555 53.572H245.603C245.659 53.268 245.703 52.972 245.735 52.684C245.775 52.396 245.823 52.104 245.879 51.808L246.443 49.048H248.075L246.647 55H244.583L244.043 52.624C243.979 52.344 243.923 52.064 243.875 51.784C243.827 51.504 243.775 51.204 243.719 50.884H243.671C243.615 51.204 243.563 51.504 243.515 51.784C243.475 52.064 243.427 52.344 243.371 52.624L242.843 55H240.827ZM249.397 55V49.048H251.161V55H249.397ZM250.273 48.172C249.977 48.172 249.733 48.088 249.541 47.92C249.349 47.744 249.253 47.52 249.253 47.248C249.253 46.976 249.349 46.756 249.541 46.588C249.733 46.42 249.977 46.336 250.273 46.336C250.577 46.336 250.821 46.42 251.005 46.588C251.197 46.756 251.293 46.976 251.293 47.248C251.293 47.52 251.197 47.744 251.005 47.92C250.821 48.088 250.577 48.172 250.273 48.172ZM255.088 55.144C254.72 55.144 254.384 55.072 254.08 54.928C253.784 54.784 253.528 54.58 253.312 54.316C253.104 54.044 252.94 53.716 252.82 53.332C252.708 52.948 252.652 52.512 252.652 52.024C252.652 51.536 252.72 51.1 252.856 50.716C253 50.332 253.184 50.008 253.408 49.744C253.64 49.472 253.904 49.264 254.2 49.12C254.504 48.976 254.812 48.904 255.124 48.904C255.46 48.904 255.736 48.96 255.952 49.072C256.168 49.184 256.38 49.336 256.588 49.528L256.516 48.616V46.588H258.28V55H256.84L256.72 54.412H256.672C256.464 54.62 256.22 54.796 255.94 54.94C255.66 55.076 255.376 55.144 255.088 55.144ZM255.544 53.704C255.736 53.704 255.908 53.664 256.06 53.584C256.22 53.504 256.372 53.364 256.516 53.164V50.728C256.356 50.584 256.192 50.484 256.024 50.428C255.856 50.372 255.692 50.344 255.532 50.344C255.252 50.344 255.004 50.48 254.788 50.752C254.572 51.016 254.464 51.432 254.464 52C254.464 52.592 254.556 53.024 254.74 53.296C254.932 53.568 255.2 53.704 255.544 53.704ZM262.384 55.144C262.016 55.144 261.7 55.088 261.436 54.976C261.18 54.864 260.968 54.708 260.8 54.508C260.64 54.308 260.52 54.068 260.44 53.788C260.368 53.5 260.332 53.184 260.332 52.84V50.428H259.516V49.12L260.428 49.048L260.632 47.464H262.096V49.048H263.524V50.428H262.096V52.816C262.096 53.152 262.164 53.396 262.3 53.548C262.444 53.692 262.632 53.764 262.864 53.764C262.96 53.764 263.056 53.752 263.152 53.728C263.256 53.704 263.348 53.676 263.428 53.644L263.704 54.928C263.544 54.976 263.356 55.024 263.14 55.072C262.924 55.12 262.672 55.144 262.384 55.144ZM264.936 55V46.588H266.7V48.652L266.616 49.72C266.84 49.52 267.1 49.336 267.396 49.168C267.692 48.992 268.044 48.904 268.452 48.904C269.1 48.904 269.568 49.116 269.856 49.54C270.152 49.964 270.3 50.552 270.3 51.304V55H268.536V51.532C268.536 51.1 268.476 50.804 268.356 50.644C268.244 50.484 268.06 50.404 267.804 50.404C267.58 50.404 267.388 50.456 267.228 50.56C267.068 50.656 266.892 50.796 266.7 50.98V55H264.936ZM276.314 55.144C276.01 55.144 275.754 55.096 275.546 55C275.338 54.904 275.17 54.772 275.042 54.604C274.922 54.428 274.834 54.22 274.778 53.98C274.722 53.732 274.694 53.456 274.694 53.152V46.588H276.458V53.224C276.458 53.408 276.49 53.536 276.554 53.608C276.626 53.68 276.698 53.716 276.77 53.716C276.81 53.716 276.842 53.716 276.866 53.716C276.898 53.716 276.938 53.708 276.986 53.692L277.202 55C277.106 55.04 276.982 55.072 276.83 55.096C276.686 55.128 276.514 55.144 276.314 55.144ZM281.042 55.144C280.618 55.144 280.222 55.076 279.854 54.94C279.486 54.796 279.166 54.592 278.894 54.328C278.622 54.056 278.41 53.728 278.258 53.344C278.106 52.96 278.03 52.52 278.03 52.024C278.03 51.544 278.11 51.112 278.27 50.728C278.43 50.336 278.638 50.008 278.894 49.744C279.158 49.472 279.458 49.264 279.794 49.12C280.13 48.976 280.478 48.904 280.838 48.904C281.262 48.904 281.63 48.976 281.942 49.12C282.262 49.264 282.526 49.464 282.734 49.72C282.95 49.976 283.11 50.28 283.214 50.632C283.318 50.976 283.37 51.352 283.37 51.76C283.37 51.92 283.362 52.072 283.346 52.216C283.33 52.36 283.314 52.468 283.298 52.54H279.734C279.814 52.972 279.99 53.292 280.262 53.5C280.542 53.7 280.882 53.8 281.282 53.8C281.706 53.8 282.134 53.668 282.566 53.404L283.154 54.472C282.85 54.68 282.51 54.844 282.134 54.964C281.766 55.084 281.402 55.144 281.042 55.144ZM279.722 51.376H281.87C281.87 51.04 281.794 50.768 281.642 50.56C281.49 50.352 281.234 50.248 280.874 50.248C280.594 50.248 280.346 50.34 280.13 50.524C279.922 50.708 279.786 50.992 279.722 51.376Z" fill="#03060C"/>
</svg>
